<svg width="974" height="534" viewBox="0 0 974 534" fill="none" xmlns="http://www.w3.org/2000/svg">
<g filter="url(#filter0_d_1107_48)">
<rect x="15" y="3" width="956" height="516" rx="47" fill="#F4F4F4"/>
</g>
<path d="M15 50C15 24.0426 36.0426 3 62 3H924C949.957 3 971 24.0426 971 50V67H15V50Z" fill="#1A7FC2"/>
<g filter="url(#filter1_d_1107_48)">
<rect x="850" y="18" width="61" height="34" rx="11" fill="white"/>
</g>
<g filter="url(#filter2_d_1107_48)">
<rect x="773" y="18" width="61" height="34" rx="11" fill="white"/>
</g>
<g filter="url(#filter3_d_1107_48)">
<rect x="696" y="18" width="61" height="34" rx="11" fill="white"/>
</g>
<path d="M402.825 290.82C400.772 290.82 398.438 290.68 395.825 290.4C393.212 290.213 390.598 289.887 387.985 289.42C385.372 289.047 382.852 288.627 380.425 288.16C377.998 287.6 375.898 287.087 374.125 286.62L368.945 285.36L371.325 269.82C376.925 270.753 382.105 271.453 386.865 271.92C391.625 272.293 395.965 272.48 399.885 272.48C408.098 272.48 412.205 268.187 412.205 259.6C412.205 255.96 411.365 253.16 409.685 251.2C408.098 249.24 405.578 248.26 402.125 248.26C399.045 248.26 396.432 248.493 394.285 248.96C392.138 249.427 390.365 249.94 388.965 250.5C387.565 251.06 386.492 251.573 385.745 252.04C385.092 252.507 384.718 252.787 384.625 252.88L371.885 250.22L374.405 196.6H431.385V214.94H390.925L388.545 232.72C391.252 231.787 393.912 231.087 396.525 230.62C399.232 230.153 402.078 229.92 405.065 229.92C414.585 229.92 421.772 232.253 426.625 236.92C431.572 241.587 434.045 248.727 434.045 258.34C434.045 268.607 431.292 276.587 425.785 282.28C420.372 287.973 412.718 290.82 402.825 290.82ZM492.569 290.4C480.249 290.4 471.103 286.573 465.129 278.92C459.156 271.173 456.169 259.04 456.169 242.52C456.169 225.907 459.156 213.773 465.129 206.12C471.103 198.467 480.249 194.64 492.569 194.64C504.796 194.64 513.896 198.467 519.869 206.12C525.843 213.773 528.829 225.907 528.829 242.52C528.829 259.04 525.843 271.173 519.869 278.92C513.896 286.573 504.796 290.4 492.569 290.4ZM492.569 272.06C495.183 272.06 497.376 271.547 499.149 270.52C501.016 269.493 502.509 267.813 503.629 265.48C504.843 263.147 505.683 260.113 506.149 256.38C506.709 252.553 506.989 247.933 506.989 242.52C506.989 237.013 506.709 232.393 506.149 228.66C505.683 224.927 504.843 221.893 503.629 219.56C502.509 217.227 501.016 215.547 499.149 214.52C497.376 213.493 495.183 212.98 492.569 212.98C489.956 212.98 487.716 213.493 485.849 214.52C483.983 215.547 482.443 217.227 481.229 219.56C480.109 221.893 479.269 224.927 478.709 228.66C478.243 232.393 478.009 237.013 478.009 242.52C478.009 247.933 478.243 252.553 478.709 256.38C479.269 260.113 480.109 263.147 481.229 265.48C482.443 267.813 483.983 269.493 485.849 270.52C487.716 271.547 489.956 272.06 492.569 272.06ZM584.915 290.4C572.595 290.4 563.448 286.573 557.475 278.92C551.501 271.173 548.515 259.04 548.515 242.52C548.515 225.907 551.501 213.773 557.475 206.12C563.448 198.467 572.595 194.64 584.915 194.64C597.141 194.64 606.241 198.467 612.215 206.12C618.188 213.773 621.175 225.907 621.175 242.52C621.175 259.04 618.188 271.173 612.215 278.92C606.241 286.573 597.141 290.4 584.915 290.4ZM584.915 272.06C587.528 272.06 589.721 271.547 591.495 270.52C593.361 269.493 594.855 267.813 595.975 265.48C597.188 263.147 598.028 260.113 598.495 256.38C599.055 252.553 599.335 247.933 599.335 242.52C599.335 237.013 599.055 232.393 598.495 228.66C598.028 224.927 597.188 221.893 595.975 219.56C594.855 217.227 593.361 215.547 591.495 214.52C589.721 213.493 587.528 212.98 584.915 212.98C582.301 212.98 580.061 213.493 578.195 214.52C576.328 215.547 574.788 217.227 573.575 219.56C572.455 221.893 571.615 224.927 571.055 228.66C570.588 232.393 570.355 237.013 570.355 242.52C570.355 247.933 570.588 252.553 571.055 256.38C571.615 260.113 572.455 263.147 573.575 265.48C574.788 267.813 576.328 269.493 578.195 270.52C580.061 271.547 582.301 272.06 584.915 272.06Z" fill="#888888"/>
<path d="M378.841 351.54C377.431 351.54 376.006 351.42 374.566 351.18C373.126 350.97 371.701 350.745 370.291 350.505L370.471 346.05C372.301 346.29 373.876 346.515 375.196 346.725C376.546 346.935 377.716 347.04 378.706 347.04C379.846 347.04 380.746 346.875 381.406 346.545C382.096 346.185 382.441 345.585 382.441 344.745C382.441 343.875 381.946 343.215 380.956 342.765C379.996 342.285 378.631 341.85 376.861 341.46C375.931 341.25 375.046 341.01 374.206 340.74C373.366 340.44 372.631 340.05 372.001 339.57C371.371 339.09 370.876 338.475 370.516 337.725C370.156 336.975 369.976 336.045 369.976 334.935C369.976 332.595 370.741 330.855 372.271 329.715C373.831 328.575 375.976 328.005 378.706 328.005C380.056 328.005 381.436 328.125 382.846 328.365C384.286 328.605 385.681 328.845 387.031 329.085L386.941 333.45C385.231 333.21 383.701 333 382.351 332.82C381.031 332.61 379.861 332.505 378.841 332.505C377.701 332.505 376.816 332.67 376.186 333C375.556 333.33 375.241 333.915 375.241 334.755C375.241 335.535 375.556 336.105 376.186 336.465C376.846 336.825 377.926 337.155 379.426 337.455C380.416 337.665 381.406 337.905 382.396 338.175C383.386 338.415 384.271 338.775 385.051 339.255C385.861 339.705 386.506 340.32 386.986 341.1C387.466 341.85 387.706 342.84 387.706 344.07C387.706 346.62 386.986 348.51 385.546 349.74C384.106 350.94 381.871 351.54 378.841 351.54ZM394.085 340.2C394.085 336.09 394.88 333.03 396.47 331.02C398.09 328.98 400.595 327.96 403.985 327.96C407.105 327.96 409.475 328.815 411.095 330.525C412.745 332.235 413.54 334.815 413.48 338.265L413.075 341.595H399.395C399.425 342.555 399.53 343.38 399.71 344.07C399.92 344.73 400.235 345.27 400.655 345.69C401.075 346.11 401.63 346.425 402.32 346.635C403.01 346.815 403.865 346.905 404.885 346.905C405.905 346.905 406.97 346.89 408.08 346.86C409.19 346.83 410.27 346.755 411.32 346.635L412.625 346.5L412.715 350.415C411.005 350.805 409.43 351.09 407.99 351.27C406.55 351.45 405.215 351.54 403.985 351.54C400.445 351.54 397.91 350.61 396.38 348.75C394.85 346.89 394.085 344.04 394.085 340.2ZM399.35 337.95H408.215C408.215 335.88 407.885 334.425 407.225 333.585C406.595 332.745 405.5 332.325 403.94 332.325C402.32 332.325 401.15 332.76 400.43 333.63C399.74 334.5 399.38 335.94 399.35 337.95ZM419.771 328.5H424.991V331.065C427.571 329.475 430.061 328.44 432.461 327.96V333.27C431.351 333.42 430.121 333.72 428.771 334.17C427.421 334.62 426.176 335.07 425.036 335.52V351H419.771V328.5ZM437.166 328.5H442.656L446.751 346.5H448.146L452.376 328.5H457.731L452.061 351H442.836L437.166 328.5ZM463.488 340.2C463.488 336.09 464.283 333.03 465.873 331.02C467.493 328.98 469.998 327.96 473.388 327.96C476.508 327.96 478.878 328.815 480.498 330.525C482.148 332.235 482.943 334.815 482.883 338.265L482.478 341.595H468.798C468.828 342.555 468.933 343.38 469.113 344.07C469.323 344.73 469.638 345.27 470.058 345.69C470.478 346.11 471.033 346.425 471.723 346.635C472.413 346.815 473.268 346.905 474.288 346.905C475.308 346.905 476.373 346.89 477.483 346.86C478.593 346.83 479.673 346.755 480.723 346.635L482.028 346.5L482.118 350.415C480.408 350.805 478.833 351.09 477.393 351.27C475.953 351.45 474.618 351.54 473.388 351.54C469.848 351.54 467.313 350.61 465.783 348.75C464.253 346.89 463.488 344.04 463.488 340.2ZM468.753 337.95H477.618C477.618 335.88 477.288 334.425 476.628 333.585C475.998 332.745 474.903 332.325 473.343 332.325C471.723 332.325 470.553 332.76 469.833 333.63C469.143 334.5 468.783 335.94 468.753 337.95ZM489.175 328.5H494.395V331.065C496.975 329.475 499.465 328.44 501.865 327.96V333.27C500.755 333.42 499.525 333.72 498.175 334.17C496.825 334.62 495.58 335.07 494.44 335.52V351H489.175V328.5ZM515.226 340.2C515.226 336.09 516.021 333.03 517.611 331.02C519.231 328.98 521.736 327.96 525.126 327.96C528.246 327.96 530.616 328.815 532.236 330.525C533.886 332.235 534.681 334.815 534.621 338.265L534.216 341.595H520.536C520.566 342.555 520.671 343.38 520.851 344.07C521.061 344.73 521.376 345.27 521.796 345.69C522.216 346.11 522.771 346.425 523.461 346.635C524.151 346.815 525.006 346.905 526.026 346.905C527.046 346.905 528.111 346.89 529.221 346.86C530.331 346.83 531.411 346.755 532.461 346.635L533.766 346.5L533.856 350.415C532.146 350.805 530.571 351.09 529.131 351.27C527.691 351.45 526.356 351.54 525.126 351.54C521.586 351.54 519.051 350.61 517.521 348.75C515.991 346.89 515.226 344.04 515.226 340.2ZM520.491 337.95H529.356C529.356 335.88 529.026 334.425 528.366 333.585C527.736 332.745 526.641 332.325 525.081 332.325C523.461 332.325 522.291 332.76 521.571 333.63C520.881 334.5 520.521 335.94 520.491 337.95ZM540.913 328.5H546.133V331.065C548.713 329.475 551.203 328.44 553.603 327.96V333.27C552.493 333.42 551.263 333.72 549.913 334.17C548.563 334.62 547.318 335.07 546.178 335.52V351H540.913V328.5ZM559.433 328.5H564.653V331.065C567.233 329.475 569.723 328.44 572.123 327.96V333.27C571.013 333.42 569.783 333.72 568.433 334.17C567.083 334.62 565.838 335.07 564.698 335.52V351H559.433V328.5ZM577.503 339.75C577.503 337.95 577.698 336.33 578.088 334.89C578.508 333.42 579.123 332.175 579.933 331.155C580.773 330.135 581.823 329.355 583.083 328.815C584.373 328.245 585.888 327.96 587.628 327.96C591.048 327.96 593.583 329.01 595.233 331.11C596.913 333.18 597.753 336.06 597.753 339.75C597.753 341.58 597.543 343.23 597.123 344.7C596.733 346.14 596.118 347.37 595.278 348.39C594.468 349.41 593.418 350.19 592.128 350.73C590.868 351.27 589.368 351.54 587.628 351.54C584.178 351.54 581.628 350.52 579.978 348.48C578.328 346.41 577.503 343.5 577.503 339.75ZM582.858 339.75C582.858 342.15 583.203 343.965 583.893 345.195C584.583 346.425 585.828 347.04 587.628 347.04C589.368 347.04 590.598 346.44 591.318 345.24C592.038 344.04 592.398 342.195 592.398 339.705C592.398 337.365 592.053 335.58 591.363 334.35C590.673 333.09 589.428 332.46 587.628 332.46C585.888 332.46 584.658 333.06 583.938 334.26C583.218 335.46 582.858 337.29 582.858 339.75ZM604.34 328.5H609.56V331.065C612.14 329.475 614.63 328.44 617.03 327.96V333.27C615.92 333.42 614.69 333.72 613.34 334.17C611.99 334.62 610.745 335.07 609.605 335.52V351H604.34V328.5Z" fill="#888888"/>
<defs>
<filter id="filter0_d_1107_48" x="0" y="0" width="974" height="534" filterUnits="userSpaceOnUse" color-interpolation-filters="sRGB">
<feFlood flood-opacity="0" result="BackgroundImageFix"/>
<feColorMatrix in="SourceAlpha" type="matrix" values="0 0 0 0 0 0 0 0 0 0 0 0 0 0 0 0 0 0 127 0" result="hardAlpha"/>
<feOffset dx="-6" dy="6"/>
<feGaussianBlur stdDeviation="4.5"/>
<feComposite in2="hardAlpha" operator="out"/>
<feColorMatrix type="matrix" values="0 0 0 0 0 0 0 0 0 0 0 0 0 0 0 0 0 0 0.25 0"/>
<feBlend mode="normal" in2="BackgroundImageFix" result="effect1_dropShadow_1107_48"/>
<feBlend mode="normal" in="SourceGraphic" in2="effect1_dropShadow_1107_48" result="shape"/>
</filter>
<filter id="filter1_d_1107_48" x="846" y="18" width="65" height="38" filterUnits="userSpaceOnUse" color-interpolation-filters="sRGB">
<feFlood flood-opacity="0" result="BackgroundImageFix"/>
<feColorMatrix in="SourceAlpha" type="matrix" values="0 0 0 0 0 0 0 0 0 0 0 0 0 0 0 0 0 0 127 0" result="hardAlpha"/>
<feOffset dx="-3" dy="3"/>
<feGaussianBlur stdDeviation="0.5"/>
<feComposite in2="hardAlpha" operator="out"/>
<feColorMatrix type="matrix" values="0 0 0 0 0 0 0 0 0 0 0 0 0 0 0 0 0 0 0.33 0"/>
<feBlend mode="normal" in2="BackgroundImageFix" result="effect1_dropShadow_1107_48"/>
<feBlend mode="normal" in="SourceGraphic" in2="effect1_dropShadow_1107_48" result="shape"/>
</filter>
<filter id="filter2_d_1107_48" x="769" y="18" width="65" height="38" filterUnits="userSpaceOnUse" color-interpolation-filters="sRGB">
<feFlood flood-opacity="0" result="BackgroundImageFix"/>
<feColorMatrix in="SourceAlpha" type="matrix" values="0 0 0 0 0 0 0 0 0 0 0 0 0 0 0 0 0 0 127 0" result="hardAlpha"/>
<feOffset dx="-3" dy="3"/>
<feGaussianBlur stdDeviation="0.5"/>
<feComposite in2="hardAlpha" operator="out"/>
<feColorMatrix type="matrix" values="0 0 0 0 0 0 0 0 0 0 0 0 0 0 0 0 0 0 0.33 0"/>
<feBlend mode="normal" in2="BackgroundImageFix" result="effect1_dropShadow_1107_48"/>
<feBlend mode="normal" in="SourceGraphic" in2="effect1_dropShadow_1107_48" result="shape"/>
</filter>
<filter id="filter3_d_1107_48" x="692" y="18" width="65" height="38" filterUnits="userSpaceOnUse" color-interpolation-filters="sRGB">
<feFlood flood-opacity="0" result="BackgroundImageFix"/>
<feColorMatrix in="SourceAlpha" type="matrix" values="0 0 0 0 0 0 0 0 0 0 0 0 0 0 0 0 0 0 127 0" result="hardAlpha"/>
<feOffset dx="-3" dy="3"/>
<feGaussianBlur stdDeviation="0.5"/>
<feComposite in2="hardAlpha" operator="out"/>
<feColorMatrix type="matrix" values="0 0 0 0 0 0 0 0 0 0 0 0 0 0 0 0 0 0 0.33 0"/>
<feBlend mode="normal" in2="BackgroundImageFix" result="effect1_dropShadow_1107_48"/>
<feBlend mode="normal" in="SourceGraphic" in2="effect1_dropShadow_1107_48" result="shape"/>
</filter>
</defs>
</svg>
