<?xml version="1.0" encoding="utf-8"?>
<!-- Generator: Adobe Illustrator 27.5.0, SVG Export Plug-In . SVG Version: 6.00 Build 0)  -->
<svg version="1.1" id="_x3C_Layer_x3E_" xmlns="http://www.w3.org/2000/svg" xmlns:xlink="http://www.w3.org/1999/xlink" x="0px"
	 y="0px" viewBox="0 0 2760 1840" style="enable-background:new 0 0 2760 1840;" xml:space="preserve">
<rect style="fill:#FFFFFF;" width="2760" height="1840"/>
<g>
	<path style="fill:#EBF3FA;" d="M227.028,1597.396c0.604-10.499-246.548-325.749,41.267-616.812
		c129.927-131.392,349.702-60.2,314.936-444.028c-30.017-331.401,488.427-526.132,810.634-230.246
		c208.169,191.165,418.913-63.857,749.165,80.842c330.252,144.699,112.781,537.987,248.299,575.045
		c266.95,72.999,399.534,394.244,186.703,631.634L227.028,1597.396z"/>
	<g>
		<path style="fill:#8C9DF4;" d="M1339.784,831.193c-1.399-2.89-2.944-5.822-4.589-8.712l4.648-2.642
			c1.701,2.991,3.301,6.026,4.752,9.021L1339.784,831.193z M1330.062,814.063c-1.771-2.716-3.66-5.446-5.622-8.115l4.311-3.166
			c2.02,2.75,3.968,5.563,5.792,8.361L1330.062,814.063z M798.887,873.016c-3.382,0.363-6.783,0.648-10.11,0.843l-0.315-5.337
			c3.241-0.19,6.557-0.468,9.852-0.823L798.887,873.016z M808.942,871.692l-0.819-5.284c3.217-0.499,6.496-1.082,9.748-1.734
			l1.051,5.244C815.593,870.584,812.235,871.182,808.942,871.692z M778.629,874.199c-3.401,0.025-6.818-0.039-10.156-0.192
			l0.246-5.342c3.242,0.15,6.563,0.212,9.87,0.187L778.629,874.199z M828.813,867.718l-1.269-5.194
			c3.169-0.774,6.393-1.632,9.578-2.546l1.476,5.14C835.344,866.052,832.052,866.927,828.813,867.718z M758.335,873.255
			c-3.382-0.346-6.775-0.795-10.084-1.334l0.859-5.277c3.205,0.522,6.493,0.957,9.771,1.293L758.335,873.255z M848.269,862.141
			l-1.667-5.081c3.103-1.019,6.255-2.117,9.368-3.268l1.851,5.018C854.647,859.981,851.433,861.102,848.269,862.141z
			 M867.244,855.146l-2.021-4.95c3.027-1.238,6.1-2.552,9.13-3.906l2.183,4.88C873.453,852.548,870.326,853.886,867.244,855.146z
			 M738.26,869.982c-3.327-0.755-6.645-1.618-9.857-2.568l1.516-5.128c3.102,0.917,6.309,1.752,9.524,2.482L738.26,869.982z
			 M1318.378,798.146c-2.071-2.524-4.245-5.042-6.463-7.481l3.956-3.598c2.278,2.507,4.513,5.092,6.642,7.688L1318.378,798.146z
			 M885.691,846.899l-2.335-4.81c2.943-1.428,5.93-2.932,8.877-4.474l2.477,4.739C891.716,843.92,888.681,845.448,885.691,846.899z
			 M718.727,864.203c-3.194-1.181-6.37-2.481-9.438-3.865l2.198-4.873c2.956,1.332,6.016,2.586,9.094,3.724L718.727,864.203z
			 M903.589,837.552l-2.61-4.666c2.859-1.6,5.757-3.274,8.613-4.975l2.735,4.594C909.431,834.231,906.49,835.928,903.589,837.552z
			 M1305.083,783.517c-2.324-2.313-4.739-4.602-7.179-6.805l3.584-3.97c2.503,2.261,4.98,4.611,7.366,6.984L1305.083,783.517z
			 M700.142,855.813c-2.993-1.617-5.953-3.361-8.798-5.182l2.883-4.503c2.734,1.75,5.579,3.426,8.458,4.98L700.142,855.813z
			 M920.928,827.229l-2.855-4.521c2.766-1.745,5.573-3.568,8.349-5.418l2.966,4.449
			C926.576,823.614,923.729,825.461,920.928,827.229z M937.709,816.045l-3.071-4.377c2.685-1.883,5.404-3.838,8.086-5.813
			l3.169,4.307C943.18,812.16,940.426,814.14,937.709,816.045z M682.955,844.801c-2.718-2.049-5.382-4.223-7.92-6.461l3.538-4.01
			c2.435,2.149,4.991,4.233,7.6,6.198L682.955,844.801z M1290.404,770.259c-2.535-2.077-5.159-4.123-7.799-6.085l3.188-4.292
			c2.707,2.011,5.4,4.11,8.001,6.243L1290.404,770.259z M953.943,804.098l-3.264-4.236l0.793-0.611
			c2.405-1.861,4.81-3.691,7.205-5.484l3.204,4.28c-2.372,1.777-4.753,3.589-7.142,5.437L953.943,804.098z M1274.524,758.467
			c-2.724-1.828-5.53-3.617-8.342-5.317l2.766-4.575c2.886,1.743,5.764,3.578,8.558,5.454L1274.524,758.467z M667.65,831.287
			c-2.363-2.44-4.653-5.006-6.809-7.622l4.126-3.4c2.065,2.508,4.262,4.965,6.526,7.304L667.65,831.287z M969.919,792.148
			l-3.123-4.34c2.731-1.963,5.5-3.916,8.232-5.802l3.037,4.401C975.361,788.274,972.619,790.206,969.919,792.148z M1257.597,748.234
			c-2.884-1.563-5.847-3.077-8.807-4.502l2.32-4.818c3.035,1.462,6.075,3.016,9.033,4.618L1257.597,748.234z M986.324,780.833
			l-2.945-4.463c2.82-1.861,5.67-3.698,8.467-5.461l2.851,4.525C991.93,777.176,989.113,778.992,986.324,780.833z M654.66,815.521
			c-1.941-2.78-3.797-5.68-5.515-8.616l4.615-2.7c1.646,2.815,3.424,5.592,5.282,8.257L654.66,815.521z M1003.181,770.222
			l-2.747-4.588c2.881-1.727,5.81-3.435,8.707-5.079l2.641,4.65C1008.92,766.829,1006.027,768.517,1003.181,770.222z
			 M1239.779,739.654c-3.026-1.283-6.119-2.509-9.194-3.644l1.853-5.017c3.153,1.164,6.326,2.422,9.429,3.737L1239.779,739.654z
			 M1020.496,760.396l-2.525-4.713c2.96-1.586,5.972-3.148,8.952-4.649l2.404,4.776
			C1026.386,757.29,1023.416,758.833,1020.496,760.396z M1221.228,732.807c-3.127-0.988-6.322-1.914-9.498-2.754l1.368-5.17
			c3.257,0.861,6.535,1.813,9.741,2.826L1221.228,732.807z M1038.272,751.46l-2.275-4.84c3.052-1.434,6.145-2.835,9.194-4.166
			l2.137,4.902C1044.326,748.666,1041.278,750.046,1038.272,751.46z M644.334,797.873c-1.474-3.052-2.846-6.204-4.079-9.373
			l4.981-1.941c1.184,3.039,2.5,6.063,3.913,8.989L644.334,797.873z M1202.112,727.75c-3.199-0.688-6.469-1.312-9.717-1.852
			l0.879-5.274c3.328,0.555,6.681,1.193,9.961,1.897L1202.112,727.75z M1056.496,743.516l-1.993-4.962
			c3.132-1.258,6.304-2.477,9.43-3.622l1.841,5.021C1062.699,741.08,1059.578,742.278,1056.496,743.516z M1182.604,724.5
			c-3.259-0.389-6.572-0.708-9.849-0.949l0.392-5.333c3.356,0.247,6.753,0.573,10.09,0.973L1182.604,724.5z M1075.151,736.682
			l-1.679-5.077c3.21-1.061,6.456-2.075,9.647-3.014l1.51,5.13C1081.494,734.644,1078.306,735.639,1075.151,736.682z
			 M1162.873,723.047c-3.264-0.094-6.593-0.117-9.897-0.068l-0.079-5.346c3.382-0.051,6.791-0.027,10.131,0.068L1162.873,723.047z
			 M1094.198,731.084l-1.33-5.179c3.261-0.838,6.571-1.625,9.84-2.34l1.143,5.222
			C1100.646,729.49,1097.396,730.263,1094.198,731.084z M1143.082,723.337c-3.271,0.188-6.593,0.448-9.874,0.773l-0.527-5.321
			c3.354-0.332,6.75-0.599,10.094-0.79L1143.082,723.337z M1113.578,726.852l-0.946-5.263c3.328-0.599,6.691-1.136,9.996-1.598
			l0.74,5.296C1120.131,725.74,1116.837,726.267,1113.578,726.852z M636.917,778.842c-0.979-3.225-1.851-6.549-2.594-9.88
			l5.219-1.163c0.713,3.201,1.552,6.393,2.491,9.49L636.917,778.842z M632.47,758.926c-0.18-1.226-0.346-2.457-0.494-3.694
			c-0.258-2.139-0.471-4.308-0.633-6.451l5.332-0.403c0.155,2.064,0.36,4.155,0.608,6.215c0.144,1.19,0.303,2.374,0.477,3.553
			L632.47,758.926z M636.269,738.548l-5.347,0.041c-0.024-3.358,0.063-6.786,0.261-10.193l5.338,0.311
			C636.329,731.996,636.245,735.308,636.269,738.548z M637.402,718.892l-5.31-0.643c0.398-3.283,0.904-6.622,1.504-9.924
			l5.289,0.805l-0.039,0.208C638.277,712.479,637.787,715.713,637.402,718.892z M640.861,699.435l-5.216-1.178
			c0.743-3.289,1.565-6.598,2.442-9.83l5.161,1.401C642.391,692.989,641.587,696.221,640.861,699.435z M823.79,672.379
			c-3.529,0.335-7.024,0.425-10.386,0.267l0.251-5.341c3.11,0.146,6.352,0.062,9.63-0.249L823.79,672.379z M834.004,670.764
			l-1.149-5.223c3.102-0.683,6.256-1.562,9.37-2.611l1.708,5.066C840.635,669.108,837.295,670.038,834.004,670.764z
			 M803.034,671.307c-3.515-0.767-6.886-1.853-10.021-3.229l2.148-4.897c2.813,1.234,5.845,2.21,9.014,2.903L803.034,671.307z
			 M853.502,664.224l-2.204-4.871c2.938-1.33,5.863-2.825,8.694-4.445l2.657,4.641C859.672,661.252,856.596,662.824,853.502,664.224
			z M871.309,654.041l-3.075-4.375c2.664-1.873,5.262-3.886,7.716-5.982l3.473,4.066
			C876.84,649.955,874.109,652.071,871.309,654.041z M646.053,680.339l-5.093-1.629c1.026-3.214,2.138-6.437,3.299-9.581
			l5.015,1.854C648.14,674.053,647.057,677.2,646.053,680.339z M783.844,662.773c-2.838-2.106-5.438-4.555-7.725-7.274l4.091-3.441
			c2.021,2.402,4.316,4.563,6.82,6.424L783.844,662.773z M886.91,640.717l-3.845-3.716c2.27-2.349,4.428-4.817,6.415-7.337
			l4.199,3.313C891.581,635.636,889.304,638.24,886.91,640.717z M652.914,661.783l-4.927-2.078c1.311-3.107,2.709-6.218,4.154-9.247
			l4.826,2.303C655.557,655.718,654.193,658.752,652.914,661.783z M770.247,646.713c-1.572-2.993-2.911-6.256-3.98-9.697
			l5.106-1.588c0.973,3.132,2.188,6.093,3.608,8.8L770.247,646.713z M899.621,624.568l-4.525-2.849
			c1.735-2.758,3.32-5.614,4.707-8.491l4.816,2.325C903.144,618.608,901.463,621.642,899.621,624.568z M661.432,643.934
			l-4.715-2.523c1.587-2.967,3.267-5.938,4.988-8.827l4.594,2.738C664.617,638.142,662.98,641.039,661.432,643.934z
			 M763.942,626.883c-0.145-0.931-0.276-1.876-0.393-2.839c-0.288-2.39-0.485-4.892-0.584-7.435l5.344-0.208
			c0.094,2.399,0.278,4.756,0.55,7.004c0.107,0.899,0.231,1.784,0.366,2.655L763.942,626.883z M908.557,606.008l-5.055-1.742
			c1.054-3.059,1.926-6.196,2.593-9.327l5.229,1.112C910.613,599.394,909.683,602.744,908.557,606.008z M671.56,626.944
			l-4.463-2.947c1.849-2.8,3.794-5.601,5.783-8.328l4.321,3.15C675.262,621.479,673.362,624.213,671.56,626.944z M768.347,606.592
			l-5.343-0.208c0.133-3.417,0.384-6.838,0.748-10.164l5.315,0.58C768.718,600.004,768.475,603.298,768.347,606.592z
			 M912.85,585.826l-5.327-0.46c0.274-3.191,0.355-6.445,0.239-9.675l5.344-0.193C913.229,578.944,913.143,582.419,912.85,585.826z
			 M683.213,610.959l-4.17-3.345c2.101-2.621,4.295-5.233,6.52-7.764l4.015,3.532C687.405,605.852,685.265,608.4,683.213,610.959z
			 M696.282,596.102l-3.851-3.71c2.337-2.426,4.758-4.828,7.195-7.142l3.681,3.88C700.928,591.388,698.563,593.734,696.282,596.102z
			 M770.486,587.107l-5.258-0.973c0.62-3.352,1.374-6.7,2.243-9.953l5.166,1.379C771.806,580.68,771.081,583.892,770.486,587.107z
			 M906.573,566.287c-0.723-3.095-1.786-6.06-3.156-8.814l4.786-2.384c1.556,3.125,2.76,6.483,3.576,9.981L906.573,566.287z
			 M710.639,582.475l-3.506-4.037c2.536-2.201,5.16-4.379,7.801-6.475l3.324,4.189C715.678,578.198,713.115,580.326,710.639,582.475
			z M775.535,568.221l-5.039-1.79c1.139-3.204,2.421-6.393,3.809-9.478l4.877,2.195
			C777.852,562.101,776.625,565.153,775.535,568.221z M898.279,549.666c-1.97-2.338-4.266-4.522-6.824-6.488l3.258-4.239
			c2.862,2.2,5.438,4.65,7.656,7.281L898.279,549.666z M726.147,570.168l-3.137-4.33c2.73-1.977,5.534-3.917,8.337-5.767
			l2.945,4.462C731.556,566.341,728.814,568.236,726.147,570.168z M742.676,559.258l-2.75-4.586c2.888-1.73,5.851-3.419,8.808-5.022
			l2.547,4.703C748.392,555.917,745.496,557.567,742.676,559.258z M783.556,550.4l-4.681-2.584c1.444-2.617,3.007-5.224,4.654-7.764
			c-1.761,0.616-3.523,1.258-5.265,1.919l-1.896-4.999c3.161-1.2,6.379-2.338,9.566-3.38l1.663,5.082
			c-0.894,0.292-1.789,0.592-2.685,0.898l3.713,2.455C786.823,544.755,785.117,547.572,783.556,550.4z M883.398,538.106
			c-2.74-1.41-5.721-2.672-8.86-3.748l1.734-5.059c3.383,1.161,6.604,2.523,9.573,4.052L883.398,538.106z M760.091,549.827
			l-2.339-4.808c3.03-1.475,6.132-2.898,9.217-4.232l2.121,4.907C766.078,546.997,763.05,548.389,760.091,549.827z M865.188,531.778
			c-3.071-0.663-6.31-1.193-9.628-1.576l0.613-5.311c3.49,0.401,6.902,0.96,10.142,1.659L865.188,531.778z M797.071,535.823
			l-1.06-3.854c-0.565,0.697-1.123,1.399-1.669,2.1l-4.221-3.281c2.058-2.646,4.262-5.275,6.556-7.818l3.971,3.581
			c-1.073,1.19-2.127,2.4-3.153,3.622c2.677-0.708,5.367-1.361,8.021-1.946l1.153,5.222
			C803.492,534.148,800.264,534.947,797.071,535.823z M845.791,529.494c-3.188-0.102-6.495-0.086-9.825,0.048l-0.215-5.343
			c3.458-0.139,6.894-0.155,10.211-0.05L845.791,529.494z M816.367,531.579l-0.867-5.276c3.394-0.556,6.783-1.015,10.087-1.361
			l0.557,5.318C822.938,530.596,819.656,531.039,816.367,531.579z M807.48,519.485l-3.716-3.845
			c2.397-2.318,4.934-4.616,7.535-6.828l3.465,4.071C812.249,515.023,809.799,517.245,807.48,519.485z M822.451,506.728l-3.22-4.268
			c2.652-2.001,5.435-3.982,8.269-5.888l2.985,4.438C827.728,502.862,825.026,504.785,822.451,506.728z M838.811,495.71l-2.76-4.579
			c2.842-1.713,5.808-3.407,8.813-5.035l2.547,4.703C844.477,492.387,841.584,494.04,838.811,495.71z M856.23,486.265l-2.345-4.805
			c2.979-1.453,6.073-2.888,9.194-4.262l2.155,4.893C862.178,483.438,859.147,484.842,856.23,486.265z M874.4,478.257l-1.975-4.969
			c3.082-1.226,6.269-2.43,9.472-3.578l1.806,5.033C880.557,475.872,877.427,477.054,874.4,478.257z M893.121,471.537l-1.643-5.089
			c3.175-1.024,6.431-2.021,9.675-2.961l1.489,5.135C899.449,469.549,896.245,470.529,893.121,471.537z M912.25,465.989
			l-1.339-5.177c3.233-0.836,6.54-1.642,9.831-2.395l1.193,5.213C918.693,464.372,915.434,465.166,912.25,465.989z M931.685,461.542
			l-1.048-5.244c3.327-0.665,6.677-1.285,9.956-1.844l0.898,5.271C938.262,460.275,934.963,460.887,931.685,461.542z
			 M961.168,457.049c-0.025,0.002-3.669,0.3-9.823,1.151l-0.734-5.296c6.35-0.881,10.018-1.177,10.13-1.185L961.168,457.049z"/>
	</g>
	<rect x="774.447" y="1045.972" style="fill:#BDD1F9;" width="212.718" height="546.246"/>
	<rect x="1105.371" y="867.426" style="fill:#BDD1F9;" width="212.718" height="724.792"/>
	<rect x="1406.261" y="674.733" style="fill:#BDD1F9;" width="232.921" height="917.484"/>
	<rect x="1722.167" y="547.718" style="fill:#BDD1F9;" width="212.718" height="1044.5"/>
	<g>
		<polygon style="fill:#F77D48;" points="1639.182,980.488 2086.261,764.06 1886.873,1189.067 1853.16,996.24 		"/>
	</g>
	<g>
		<path style="fill:#FFB93E;" d="M1536.327,835.601c-10.939-44.953,16.636-90.264,61.59-101.203
			c44.954-10.94,90.265,16.635,101.203,61.59c10.939,44.954-16.635,90.264-61.589,101.203S1547.267,880.555,1536.327,835.601z"/>
		<g>
			<path style="fill:#FFA412;" d="M1636.004,890.917c-19.809,4.819-40.309,1.638-57.725-8.96
				c-17.416-10.6-29.662-27.346-34.482-47.154c-4.82-19.809-1.638-40.309,8.961-57.727c10.598-17.415,27.345-29.66,47.153-34.481
				c19.81-4.819,40.311-1.638,57.726,8.961c17.416,10.598,29.661,27.345,34.482,47.153c4.82,19.809,1.638,40.31-8.961,57.726
				C1672.561,873.851,1655.814,886.097,1636.004,890.917z M1600.988,747.019c-38.453,9.358-62.125,48.255-52.767,86.707
				c9.356,38.453,48.253,62.124,86.706,52.768c38.453-9.358,62.125-48.255,52.768-86.708
				C1678.338,761.333,1639.441,737.662,1600.988,747.019z"/>
		</g>
		<g>
			<path style="fill:#FFA412;" d="M1633.405,835.796c-0.199-1.646-0.607-3.066-1.223-4.264c-0.616-1.198-1.514-2.242-2.691-3.134
				c-1.178-0.89-2.651-1.665-4.423-2.326c-1.77-0.66-3.906-1.256-6.411-1.786c-4.31-0.949-8.247-2.013-11.813-3.19
				c-3.567-1.178-6.678-2.659-9.334-4.444c-2.655-1.785-4.816-3.987-6.482-6.609c-1.665-2.62-2.731-5.851-3.196-9.69
				c-0.403-3.33-0.182-6.439,0.668-9.324c0.849-2.884,2.246-5.478,4.192-7.783c1.945-2.303,4.37-4.275,7.274-5.921
				c2.903-1.642,6.232-2.872,9.985-3.685l-1.524-12.576l10.123-1.227l1.546,12.752c3.684,0.032,7.09,0.593,10.218,1.684
				c3.128,1.093,5.865,2.67,8.213,4.729c2.346,2.063,4.27,4.602,5.77,7.62c1.5,3.02,2.487,6.487,2.962,10.404l-18.284,2.216
				c-0.569-4.701-2.039-8.091-4.409-10.17c-2.371-2.076-5.306-2.904-8.808-2.48c-1.897,0.23-3.5,0.693-4.807,1.389
				c-1.306,0.694-2.347,1.557-3.121,2.584c-0.773,1.028-1.296,2.194-1.565,3.499c-0.27,1.306-0.316,2.683-0.142,4.133
				c0.176,1.45,0.546,2.736,1.109,3.859c0.564,1.125,1.424,2.124,2.579,2.998c1.153,0.874,2.639,1.648,4.453,2.322
				c1.815,0.674,4.045,1.328,6.69,1.963c4.275,1.031,8.188,2.148,11.736,3.348c3.547,1.2,6.65,2.702,9.309,4.506
				c2.658,1.807,4.82,4.019,6.485,6.639c1.666,2.623,2.729,5.833,3.189,9.633c0.418,3.448,0.192,6.616-0.677,9.503
				c-0.87,2.89-2.281,5.466-4.232,7.728c-1.951,2.265-4.403,4.192-7.355,5.782c-2.953,1.59-6.306,2.791-10.059,3.603l1.417,11.695
				l-10.06,1.219l-1.41-11.636c-3.544,0.072-7.021-0.282-10.432-1.062c-3.411-0.779-6.517-2.122-9.315-4.028
				c-2.798-1.906-5.161-4.453-7.089-7.64c-1.926-3.185-3.175-7.129-3.744-11.83l18.284-2.215c0.337,2.781,1.008,5.057,2.015,6.82
				c1.004,1.768,2.229,3.131,3.672,4.088c1.442,0.958,3.024,1.562,4.745,1.81c1.721,0.25,3.444,0.267,5.175,0.059
				c1.982-0.24,3.691-0.705,5.128-1.396c1.435-0.69,2.604-1.548,3.507-2.573c0.903-1.023,1.533-2.183,1.89-3.479
				C1633.49,838.618,1633.581,837.247,1633.405,835.796z"/>
		</g>
	</g>
	<g>
		<path style="fill:#FFB93E;" d="M1977.051,598.143c-1.77-45.024,33.295-82.958,78.319-84.728
			c45.024-1.769,82.958,33.295,84.728,78.318c1.771,45.024-33.294,82.958-78.318,84.729
			C2016.755,678.231,1978.821,643.166,1977.051,598.143z"/>
		<g>
			<path style="fill:#FFA412;" d="M2061.533,670.178c-19.84,0.78-38.797-6.213-53.377-19.691
				c-14.581-13.477-23.041-31.826-23.82-51.665c-0.779-19.84,6.213-38.797,19.691-53.376c13.477-14.581,31.826-23.04,51.666-23.819
				c19.84-0.78,38.795,6.212,53.376,19.689c14.58,13.478,23.04,31.826,23.819,51.666c0.78,19.84-6.213,38.796-19.689,53.376
				C2099.721,660.94,2081.373,669.398,2061.533,670.178z M2055.867,526.057c-38.513,1.513-68.613,34.078-67.1,72.59
				c1.514,38.514,34.078,68.614,72.59,67.102c38.514-1.516,68.614-34.08,67.101-72.593
				C2126.943,554.644,2094.38,524.542,2055.867,526.057z"/>
		</g>
		<g>
			<path style="fill:#FFA412;" d="M2069.686,617.057c0.128-1.609,0.012-3.044-0.345-4.306c-0.358-1.262-1.012-2.432-1.964-3.51
				c-0.953-1.077-2.211-2.103-3.773-3.074c-1.563-0.971-3.488-1.951-5.775-2.942c-3.932-1.737-7.485-3.512-10.662-5.324
				c-3.178-1.813-5.861-3.827-8.053-6.044c-2.189-2.218-3.827-4.736-4.912-7.56c-1.085-2.822-1.479-6.112-1.183-9.867
				c0.258-3.256,1.069-6.181,2.437-8.772c1.367-2.589,3.201-4.797,5.504-6.621c2.302-1.822,4.997-3.238,8.087-4.247
				c3.089-1.01,6.503-1.54,10.243-1.592l0.971-12.3l9.9,0.782l-0.984,12.471c3.51,0.742,6.652,1.935,9.429,3.58
				c2.775,1.645,5.084,3.678,6.928,6.099c1.841,2.422,3.188,5.216,4.038,8.388c0.849,3.171,1.123,6.673,0.82,10.503l-17.882-1.413
				c0.362-4.596-0.387-8.116-2.248-10.558c-1.862-2.44-4.505-3.797-7.928-4.067c-1.856-0.146-3.476-0.014-4.857,0.398
				s-2.54,1.033-3.478,1.864c-0.938,0.833-1.661,1.846-2.17,3.04c-0.51,1.192-0.82,2.499-0.933,3.917
				c-0.111,1.418-0.007,2.717,0.314,3.898c0.321,1.183,0.949,2.302,1.884,3.359c0.932,1.057,2.201,2.082,3.804,3.076
				c1.603,0.993,3.604,2.048,6.008,3.164c3.882,1.81,7.402,3.63,10.558,5.46c3.154,1.83,5.827,3.863,8.016,6.098
				c2.189,2.237,3.826,4.767,4.911,7.588c1.084,2.825,1.479,6.095,1.186,9.812c-0.266,3.37-1.093,6.353-2.479,8.94
				c-1.389,2.59-3.231,4.777-5.531,6.56c-2.299,1.786-5.012,3.153-8.137,4.101c-3.125,0.949-6.558,1.448-10.298,1.5l-0.903,11.438
				l-9.838-0.777l0.898-11.379c-3.396-0.616-6.648-1.624-9.753-3.025c-3.106-1.402-5.812-3.283-8.114-5.644
				c-2.305-2.358-4.068-5.246-5.293-8.658c-1.226-3.413-1.656-7.419-1.293-12.017l17.881,1.413c-0.215,2.72-0.014,5.022,0.607,6.9
				c0.619,1.882,1.524,3.418,2.717,4.611c1.192,1.192,2.585,2.074,4.181,2.643c1.594,0.57,3.236,0.92,4.929,1.055
				c1.939,0.153,3.66,0.038,5.164-0.344c1.503-0.382,2.785-0.975,3.845-1.778c1.06-0.803,1.884-1.789,2.475-2.957
				C2069.222,619.768,2069.573,618.476,2069.686,617.057z"/>
		</g>
	</g>
	<g>
		<path style="fill:#FFB93E;" d="M1861.931,742.866c-0.55-31.075,24.197-56.712,55.271-57.261
			c31.074-0.549,56.71,24.196,57.26,55.271c0.549,31.074-24.196,56.711-55.271,57.26
			C1888.116,798.685,1862.479,773.941,1861.931,742.866z"/>
		<g>
			<path style="fill:#FFA412;" d="M1919.114,793.8c-13.693,0.243-26.661-4.862-36.515-14.374
				c-9.854-9.512-15.414-22.291-15.655-35.983c-0.243-13.693,4.862-26.661,14.374-36.515c9.511-9.853,22.29-15.413,35.983-15.655
				c13.692-0.243,26.661,4.862,36.515,14.374c9.854,9.512,15.413,22.29,15.656,35.983c0.241,13.692-4.863,26.661-14.375,36.514
				C1945.586,787.998,1932.807,793.558,1919.114,793.8z M1917.355,694.33c-26.58,0.47-47.823,22.478-47.354,49.058
				c0.47,26.581,22.478,47.824,49.058,47.354c26.581-0.471,47.824-22.478,47.354-49.059
				C1965.943,715.104,1943.937,693.86,1917.355,694.33z"/>
		</g>
		<g>
			<path style="fill:#FFA412;" d="M1925.528,757.289c0.111-1.107,0.054-2.099-0.174-2.974c-0.228-0.876-0.662-1.692-1.302-2.45
				c-0.642-0.757-1.493-1.482-2.557-2.176c-1.063-0.692-2.376-1.398-3.938-2.116c-2.686-1.256-5.109-2.533-7.272-3.829
				c-2.166-1.298-3.986-2.727-5.463-4.289c-1.478-1.561-2.569-3.322-3.275-5.285c-0.706-1.963-0.929-4.237-0.668-6.822
				c0.226-2.242,0.829-4.246,1.811-6.013c0.981-1.766,2.279-3.261,3.894-4.484c1.614-1.222,3.495-2.158,5.641-2.809
				c2.145-0.649,4.508-0.965,7.087-0.944l0.854-8.468l6.814,0.687l-0.865,8.587c2.41,0.563,4.561,1.433,6.45,2.607
				c1.889,1.178,3.45,2.613,4.687,4.31c1.233,1.697,2.12,3.646,2.659,5.844c0.538,2.199,0.675,4.619,0.409,7.255l-12.311-1.239
				c0.319-3.165-0.146-5.604-1.393-7.315c-1.247-1.711-3.05-2.686-5.406-2.923c-1.278-0.128-2.397-0.06-3.354,0.202
				c-0.959,0.263-1.769,0.674-2.427,1.233c-0.659,0.56-1.174,1.248-1.542,2.064c-0.369,0.815-0.603,1.71-0.701,2.687
				c-0.099,0.977-0.046,1.874,0.158,2.693c0.204,0.821,0.621,1.602,1.249,2.345c0.627,0.742,1.487,1.468,2.577,2.178
				c1.091,0.71,2.456,1.466,4.096,2.271c2.649,1.306,5.05,2.614,7.199,3.922c2.147,1.311,3.96,2.751,5.438,4.325
				c1.476,1.575,2.566,3.345,3.272,5.307c0.705,1.964,0.93,4.225,0.672,6.783c-0.234,2.32-0.849,4.364-1.844,6.128
				c-0.996,1.766-2.299,3.246-3.911,4.443c-1.612,1.196-3.503,2.099-5.673,2.706c-2.17,0.606-4.543,0.899-7.124,0.88l-0.793,7.874
				l-6.772-0.683l0.79-7.835c-2.334-0.474-4.561-1.218-6.681-2.231c-2.122-1.014-3.959-2.351-5.514-4.013
				c-1.553-1.662-2.727-3.678-3.52-6.05c-0.794-2.372-1.031-5.141-0.713-8.305l12.31,1.239c-0.188,1.874-0.083,3.463,0.315,4.769
				c0.4,1.305,1.001,2.38,1.806,3.22s1.752,1.469,2.844,1.885c1.091,0.417,2.219,0.683,3.383,0.801
				c1.335,0.135,2.523,0.081,3.565-0.16c1.043-0.241,1.936-0.631,2.679-1.17c0.743-0.537,1.326-1.205,1.751-2.001
				C1925.168,759.152,1925.43,758.267,1925.528,757.289z"/>
		</g>
	</g>
	<g>
		<path style="fill:#FFB93E;" d="M1624.955,569.166c-23.838-71.996,15.2-149.683,87.193-173.522
			c71.995-23.839,149.684,15.199,173.521,87.194c23.84,71.994-15.198,149.682-87.193,173.521
			C1726.482,680.198,1648.795,641.159,1624.955,569.166z"/>
		<g>
			<path style="fill:#FFA412;" d="M1795.15,646.31c-31.725,10.505-65.642,8.027-95.502-6.977
				c-29.861-15.005-52.091-40.74-62.596-72.465c-10.504-31.725-8.025-65.641,6.979-95.501c15.005-29.86,40.739-52.091,72.464-62.595
				s65.641-8.026,95.502,6.979c29.86,15.005,52.09,40.739,62.595,72.464c10.504,31.725,8.025,65.642-6.979,95.502
				C1852.608,613.577,1826.875,635.807,1795.15,646.31z M1718.842,415.857c-61.582,20.391-95.094,87.083-74.703,148.666
				c20.391,61.582,87.082,95.095,148.666,74.703c61.582-20.391,95.094-87.082,74.703-148.664
				C1847.115,428.978,1780.425,395.466,1718.842,415.857z"/>
		</g>
		<g>
			<path style="fill:#FFA412;" d="M1783.588,556.599c-0.544-2.661-1.399-4.929-2.564-6.804c-1.166-1.875-2.771-3.462-4.812-4.762
				c-2.043-1.299-4.554-2.37-7.534-3.214c-2.981-0.843-6.551-1.532-10.712-2.068c-7.168-0.978-13.742-2.194-19.724-3.645
				c-5.985-1.452-11.264-3.459-15.84-6.022c-4.576-2.565-8.397-5.876-11.468-9.938c-3.068-4.061-5.238-9.196-6.509-15.408
				c-1.102-5.387-1.15-10.494-0.146-15.322c1.004-4.826,2.942-9.25,5.816-13.272c2.873-4.021,6.573-7.567,11.101-10.639
				c4.525-3.07,9.801-5.521,15.825-7.345l-4.16-20.346l16.376-3.348l4.218,20.63c6.021-0.438,11.662,0.028,16.918,1.395
				c5.254,1.369,9.937,3.582,14.045,6.637c4.107,3.059,7.588,6.952,10.439,11.684c2.85,4.734,4.924,10.27,6.219,16.607
				l-29.577,6.047c-1.555-7.605-4.406-12.949-8.556-16.031c-4.147-3.078-9.054-4.042-14.717-2.885
				c-3.071,0.629-5.628,1.598-7.669,2.907c-2.044,1.307-3.628,2.854-4.758,4.636c-1.127,1.783-1.827,3.758-2.094,5.926
				c-0.268,2.168-0.161,4.425,0.317,6.77c0.48,2.345,1.255,4.399,2.326,6.16c1.07,1.763,2.606,3.279,4.61,4.555
				c2.001,1.274,4.53,2.343,7.585,3.203c3.055,0.861,6.784,1.634,11.189,2.318c7.122,1.119,13.664,2.424,19.619,3.912
				c5.955,1.491,11.226,3.533,15.807,6.129c4.583,2.596,8.409,5.926,11.479,9.983c3.068,4.063,5.231,9.168,6.488,15.315
				c1.14,5.576,1.192,10.784,0.153,15.616c-1.036,4.836-3.001,9.231-5.887,13.188c-2.888,3.958-6.638,7.434-11.251,10.424
				c-4.612,2.99-9.932,5.396-15.956,7.224l3.868,18.917l-16.273,3.328l-3.849-18.824c-5.781,0.589-11.509,0.471-17.185-0.349
				c-5.677-0.821-10.928-2.603-15.754-5.348c-4.825-2.744-9.023-6.59-12.594-11.539c-3.571-4.949-6.135-11.226-7.689-18.832
				l29.579-6.046c0.92,4.5,2.317,8.127,4.196,10.878c1.877,2.753,4.059,4.817,6.543,6.19c2.483,1.375,5.148,2.151,7.993,2.328
				c2.843,0.179,5.663-0.021,8.463-0.593c3.206-0.655,5.936-1.641,8.19-2.961c2.253-1.318,4.05-2.874,5.39-4.668
				c1.34-1.792,2.215-3.77,2.625-5.936C1784.102,561.198,1784.067,558.945,1783.588,556.599z"/>
		</g>
	</g>
	<g>
		<path style="fill:#739AF0;" d="M1213.357,488.245c-12.342,3.083-24.126,6.026-35.146,7.912
			c-35.689,6.104-63.262,1.069-75.146-46.507c-11.884-47.582,10.083-64.99,44.449-76.385c10.613-3.517,22.398-6.46,34.739-9.543
			c26.382-6.589,55.579-3.68,78.833,3.954c22.874,7.518,39.991,19.609,43.025,31.758c3.456,13.834-5.963,32.568-22.722,49.534
			C1264.355,466.228,1239.738,481.656,1213.357,488.245z"/>
		<polygon style="fill:#163560;" points="1147.515,373.265 1106.977,346.792 1042.98,360.428 1109.452,407.127 		"/>
		<polygon style="fill:#163560;" points="1178.114,495.769 1154.784,538.194 1091.893,556.251 1128.599,483.781 		"/>
		<path style="fill:#163560;" d="M1178.211,496.157c-35.689,6.104-63.262,1.069-75.146-46.507
			c-11.884-47.582,10.083-64.99,44.449-76.385L1178.211,496.157z"/>
		<path style="fill:#F77D48;" d="M1019.737,470.461c0,0,17.814-41.51,49.001-35.117c31.813,6.52,27.805,40.797,3.931,43.942
			C1048.795,482.431,1033.664,466.982,1019.737,470.461z"/>
		<path style="fill:#163560;" d="M1209.45,389.421c16.482-4.117,33.181,5.907,37.297,22.389c4.117,16.482-5.907,33.18-22.389,37.297
			c-16.481,4.116-33.181-5.907-37.297-22.389C1182.945,410.236,1192.969,393.538,1209.45,389.421z"/>
		<g>
			<path style="fill:#BDD1F9;" d="M1216.906,452.078c-14.701,0-28.113-9.969-31.835-24.863
				c-4.384-17.552,6.329-35.399,23.883-39.783c17.548-4.385,35.398,6.329,39.782,23.882c2.124,8.502,0.811,17.323-3.701,24.838
				c-4.511,7.514-11.678,12.821-20.18,14.945C1222.197,451.761,1219.53,452.078,1216.906,452.078z M1216.901,390.552
				c-2.297,0-4.628,0.278-6.954,0.86c-7.439,1.858-13.71,6.502-17.658,13.077c-3.945,6.575-5.097,14.293-3.237,21.733
				c3.836,15.357,19.453,24.734,34.81,20.895c7.44-1.857,13.711-6.502,17.658-13.077c3.946-6.575,5.097-14.293,3.238-21.733
				C1241.502,399.276,1229.766,390.552,1216.901,390.552z"/>
		</g>
		<path style="fill:#F77D48;" d="M1281.391,448.968l-20.304-81.292c22.874,7.518,39.991,19.609,43.025,31.758
			C1307.568,413.268,1298.149,432.002,1281.391,448.968z"/>
	</g>
	<g>
		<path style="fill:#ED7D2B;" d="M2201.231,895.352c0,0,62.153,64.442,65.091,88.697c2.937,24.255-29.772,62.118-29.772,62.118
			L2201.231,895.352z"/>
		<path style="fill:#2E5A99;" d="M2173.146,1563.217c0,0-2.193,34.182-8.809,34.658c-0.88,0.063-33.546-0.008-33.546-0.008
			l-41.7-0.332c0,0,0.295-10.047,12.488-12.146c12.194-2.098,32.615-10.62,40.034-26.714
			C2149.418,1541.744,2173.146,1563.217,2173.146,1563.217z"/>
		<path style="fill:#18417C;" d="M2266.027,1563.419c0,0-2.193,34.182-8.809,34.658c-0.88,0.063-33.547-0.009-33.547-0.009
			l-41.699-0.332c0,0,0.295-10.047,12.488-12.145c12.194-2.098,32.615-10.62,40.034-26.715
			C2242.299,1541.946,2266.027,1563.419,2266.027,1563.419z"/>
		<path style="fill:#163560;" d="M2127.763,1195.7c0,0,10.755,69.776,51.171,193.688s45.844,177.544,45.844,177.544l43.648-1.13
			c0,0,0.666-135.323-17.947-197.63c-18.616-62.307-3.561-224.485-3.561-224.485L2127.763,1195.7z"/>
		<path style="fill:#1C468A;" d="M2106.629,1147.204c0,0-1.773,105.11,16.134,234.212c17.905,129.1,11.622,183.871,11.622,183.871
			l43.556,1.543c0,0,26.311-129.053,18.987-193.667c-7.322-64.614,36.128-221.587,36.128-221.587L2106.629,1147.204z"/>
		<path style="fill:#FFB27D;" d="M2191.484,901.408l-23.24,15.165l-33.526-6.324c0.47-2.707,2.708-13.924,4.747-24.083
			c0.123-0.6,0.246-1.199,0.361-1.784c1.746-8.646,3.254-16.071,3.254-16.071l31.356-13.755l11.69-5.126
			c-0.031,0.182-0.926,9.595-1.051,10.97C2182.831,884.805,2191.484,901.408,2191.484,901.408z"/>
		<path style="fill:#ED7D2B;" d="M2143.345,893.625c0.65-0.273,40.415-11.913,44.729-10.477c4.314,1.434,6.852,9.793,6.852,9.793
			l-65.03,14.554C2129.895,907.494,2135.032,897.104,2143.345,893.625z"/>
		<path style="fill:#F99746;" d="M2249.773,1160.492c-6.803,30.714-118.914,34.113-147.75,6.158
			c-3.28-3.187-3.41-17.979-2.127-37.92c2.51-38.962,10.424-97.56,10.792-127.506c0.179-14.462,2.198-29.249,4.875-42.675
			c5.692-28.614,14.33-51.06,14.33-51.06s54.793-17.582,65.031-14.55C2244.254,907.551,2256.576,1129.778,2249.773,1160.492z"/>
		<path style="fill:#ED7D2B;" d="M2099.896,1128.73c2.51-38.962,10.424-97.56,10.792-127.506
			c0.179-14.462,2.198-29.249,4.875-42.675l32.95-5.741C2148.514,952.809,2180.432,1084.415,2099.896,1128.73z"/>
		<path style="fill:#FFB27D;" d="M2117.851,1074.455c0,0,2.233,5.371-2.488,8.965c-4.724,3.593-7.794,9.424-6.724,13.692
			c1.07,4.268,11.398,11.25,14.985,10.136c3.589-1.114,10.897-6.718,10.116-8.969c-0.78-2.253,4.951-19.737-3.775-26.492
			C2121.24,1065.032,2117.851,1074.455,2117.851,1074.455z"/>
		<path style="fill:#F99746;" d="M2155.062,899.661c0,0-32.136,5.941-57.813,43.607c-25.679,37.664-42.579,65.672-37.893,79.276
			c4.685,13.606,47.562,60.85,54.971,60.866c7.409,0.016,19.379-5.348,20.078-17.471c0,0-30.161-45.417-24.185-52.196
			c2.554-2.897,39.354-32.642,44.57-19.158C2163.42,1016.893,2155.062,899.661,2155.062,899.661z"/>
		<path style="fill:#FCA56B;" d="M2182.724,860.825c-6.903,11.639-32.56,21.659-43.259,25.341c0.123-0.6,0.246-1.199,0.361-1.784
			c1.746-8.646,3.254-16.071,3.254-16.071l31.356-13.755C2181.36,854.477,2185.572,856.036,2182.724,860.825z"/>
		<path style="fill:#FFB27D;" d="M2131.276,866.38c0,0,50.427,15.85,59.814-15.705c9.387-31.555,22.218-50.761-9.581-62.215
			c-31.8-11.454-41.665-1.283-47.361,8.486C2128.454,806.718,2118.4,861.443,2131.276,866.38z"/>
		<path style="fill:#163560;" d="M2136.138,793.91c0,0,3.138,36.749,10.739,35.171c7.603-1.579,14.497-2.746,13.36,8.327
			s-11.701,23.841,11.712,25.851c23.414,2.01,57.211-58.31,50.803-69.759C2204.261,760.466,2109.396,753.602,2136.138,793.91z"/>
	</g>
	<g>
		<g>
			<g>
				<g>
					<path style="fill:#FFB93E;" d="M1891.619,1576.666v13.222c0,1.05-0.385,2.028-1.043,2.843
						c-0.688,0.854-1.684,1.527-2.842,1.902c-0.36,0.126-0.729,0.213-1.112,0.268c-0.353,0.055-0.705,0.078-1.073,0.078h-250.718
						c-3.031,0-5.562-1.888-6.008-4.332c-0.022-0.164-0.047-0.328-0.054-0.501c0-0.086-0.008-0.172-0.008-0.258v-13.222
						c0-0.086,0.008-0.172,0.008-0.258c0.007-0.172,0.031-0.337,0.054-0.501c0.446-2.444,2.977-4.331,6.008-4.331h250.718
						c0.368,0,0.721,0.022,1.073,0.078c0.384,0.055,0.752,0.148,1.112,0.266c1.158,0.376,2.153,1.05,2.842,1.903
						C1891.234,1574.638,1891.619,1575.617,1891.619,1576.666z"/>
					<path style="fill:#FFA412;" d="M1768.504,1594.979h-134.323c-2.489,0-4.586-1.608-5.211-3.771
						c-0.06-0.184-0.111-0.37-0.146-0.562c-0.022-0.164-0.047-0.328-0.054-0.501c0-0.086-0.008-0.172-0.008-0.258v-13.222
						c0-0.086,0.008-0.172,0.008-0.258c0.007-0.172,0.031-0.337,0.054-0.501c0.035-0.191,0.087-0.378,0.146-0.562
						c0.625-2.162,2.722-3.77,5.211-3.77h117.828C1753.889,1578.469,1758.274,1587.992,1768.504,1594.979z"/>
					<g>
						<rect x="1858.26" y="1571.574" style="fill:#FFA412;" width="2.849" height="23.406"/>
						<rect x="1848.614" y="1571.574" style="fill:#FFA412;" width="2.849" height="23.406"/>
						<rect x="1837.047" y="1571.574" style="fill:#FFA412;" width="2.849" height="23.406"/>
						<rect x="1819.316" y="1571.574" style="fill:#FFA412;" width="2.85" height="23.406"/>
						<rect x="1800.567" y="1571.574" style="fill:#FFA412;" width="2.851" height="23.406"/>
						<rect x="1771.826" y="1571.574" style="fill:#FFA412;" width="2.849" height="23.406"/>
						<rect x="1744.914" y="1571.574" style="fill:#FFA412;" width="2.85" height="23.406"/>
						<rect x="1720.884" y="1571.574" style="fill:#FFA412;" width="2.849" height="23.406"/>
						<rect x="1867.441" y="1571.574" style="fill:#FFA412;" width="2.849" height="23.406"/>
						<rect x="1873.506" y="1571.574" style="fill:#FFA412;" width="2.851" height="23.406"/>
						<rect x="1879.364" y="1571.574" style="fill:#FFA412;" width="2.85" height="23.406"/>
						<path style="fill:#FFA412;" d="M1886.621,1571.655v23.244c-0.349,0.053-0.705,0.081-1.07,0.081h-1.78v-23.406h1.78
							C1885.916,1571.574,1886.272,1571.603,1886.621,1571.655z"/>
						<path style="fill:#FFA412;" d="M1890.577,1573.824v18.906c-0.69,0.855-1.683,1.529-2.847,1.906v-22.719
							C1888.895,1572.295,1889.887,1572.969,1890.577,1573.824z"/>
					</g>
				</g>
				<g>
					<path style="fill:#FFB93E;" d="M1864.809,1553.264v13.213c0,1.058-0.384,2.036-1.033,2.852
						c-0.173,0.211-0.368,0.415-0.572,0.603c-0.626,0.564-1.401,1.018-2.279,1.3c-0.353,0.118-0.728,0.204-1.111,0.259
						c-0.345,0.055-0.705,0.087-1.065,0.087h-250.726c-3.023,0-5.553-1.896-6-4.34c-0.023-0.164-0.046-0.329-0.055-0.493
						c-0.008-0.087-0.008-0.173-0.008-0.267v-13.213c0-0.086,0-0.18,0.008-0.266c0.009-0.165,0.031-0.329,0.055-0.494
						c0.447-2.443,2.977-4.339,6-4.339h250.726c0.156,0,0.321,0.008,0.478,0.023c0.063,0,0.118,0.008,0.173,0.016
						c0.007-0.008,0.023-0.008,0.03,0c0.071,0,0.149,0.008,0.228,0.023c0.055,0.008,0.102,0.016,0.157,0.023
						c0.384,0.056,0.759,0.142,1.111,0.258c0.212,0.071,0.415,0.149,0.611,0.235h0.008c0.133,0.063,0.266,0.126,0.392,0.188
						c0.07,0.039,0.149,0.086,0.219,0.126c0.07,0.038,0.142,0.078,0.204,0.124c0.266,0.157,0.509,0.337,0.736,0.541
						c0.079,0.063,0.141,0.133,0.212,0.196c0.047,0.038,0.085,0.078,0.125,0.116c0.023,0.024,0.048,0.048,0.063,0.071l0.055,0.055
						c0.078,0.078,0.156,0.164,0.228,0.259C1864.425,1551.235,1864.809,1552.206,1864.809,1553.264z"/>
					<path style="fill:#FFA412;" d="M1741.693,1571.576h-134.322c-2.489,0-4.581-1.617-5.203-3.781
						c-0.06-0.184-0.112-0.368-0.146-0.559c-0.023-0.164-0.046-0.329-0.055-0.493c-0.008-0.087-0.008-0.173-0.008-0.267v-13.213
						c0-0.086,0-0.18,0.008-0.266c0.009-0.165,0.031-0.329,0.055-0.494c0.034-0.189,0.087-0.376,0.146-0.559
						c0.622-2.164,2.714-3.78,5.203-3.78h117.828c0.047,0.196,0.102,0.384,0.165,0.579
						C1727.33,1555.582,1731.747,1564.785,1741.693,1571.576z"/>
					<g>
						<rect x="1831.452" y="1548.168" style="fill:#FFA412;" width="2.85" height="23.406"/>
						<rect x="1821.807" y="1548.168" style="fill:#FFA412;" width="2.85" height="23.406"/>
						<rect x="1810.24" y="1548.168" style="fill:#FFA412;" width="2.849" height="23.406"/>
						<rect x="1792.511" y="1548.168" style="fill:#FFA412;" width="2.849" height="23.406"/>
						<rect x="1773.762" y="1548.168" style="fill:#FFA412;" width="2.849" height="23.406"/>
						<rect x="1745.02" y="1548.168" style="fill:#FFA412;" width="2.849" height="23.406"/>
						<rect x="1718.107" y="1548.168" style="fill:#FFA412;" width="2.849" height="23.406"/>
						<rect x="1694.076" y="1548.168" style="fill:#FFA412;" width="2.85" height="23.406"/>
						<rect x="1840.635" y="1548.168" style="fill:#FFA412;" width="2.85" height="23.406"/>
						<rect x="1846.7" y="1548.168" style="fill:#FFA412;" width="2.85" height="23.406"/>
						<rect x="1852.558" y="1548.168" style="fill:#FFA412;" width="2.849" height="23.406"/>
						<path style="fill:#FFA412;" d="M1859.814,1548.249v23.243c-0.349,0.053-0.705,0.082-1.07,0.082h-1.781v-23.407h1.781
							C1859.109,1548.167,1859.466,1548.195,1859.814,1548.249z"/>
						<path style="fill:#FFA412;" d="M1863.771,1550.418v18.905c-0.69,0.856-1.684,1.529-2.847,1.906v-22.719
							C1862.087,1548.889,1863.08,1549.562,1863.771,1550.418z"/>
					</g>
				</g>
				<g>
					<path style="fill:#FFB93E;" d="M1877.764,1530.433v13.222c0,1.049-0.384,2.027-1.042,2.843
						c-0.688,0.854-1.677,1.527-2.844,1.902c-0.352,0.118-0.728,0.204-1.112,0.267c-0.344,0.047-0.704,0.078-1.064,0.078h-250.726
						c-1.003,0-1.958-0.211-2.796-0.579c-1.66-0.729-2.883-2.092-3.195-3.697c-0.023-0.109-0.031-0.219-0.048-0.329
						c-0.007-0.069-0.015-0.148-0.015-0.227c-0.008-0.087-0.008-0.172-0.008-0.258v-13.222c0-0.086,0-0.173,0.008-0.259
						c0.008-0.164,0.023-0.336,0.055-0.493c0.446-2.451,2.976-4.339,5.999-4.339h250.726c0.36,0,0.721,0.023,1.064,0.078
						c0.385,0.055,0.761,0.142,1.112,0.258c1.167,0.385,2.155,1.059,2.844,1.912
						C1877.38,1528.404,1877.764,1529.383,1877.764,1530.433z"/>
					<path style="fill:#FFA412;" d="M1754.648,1548.744h-134.322c-0.901,0-1.747-0.211-2.491-0.579
						c-1.488-0.729-2.576-2.092-2.851-3.697c-0.023-0.109-0.031-0.219-0.048-0.329c-0.007-0.069-0.015-0.148-0.015-0.227
						c-0.008-0.087-0.008-0.172-0.008-0.258v-13.222c0-0.086,0-0.173,0.008-0.259c0.008-0.164,0.023-0.336,0.055-0.493
						c0.033-0.186,0.084-0.366,0.14-0.546c0.613-2.177,2.715-3.793,5.21-3.793h117.828c1.832,6.696,6.03,15.9,15.672,22.823
						C1754.092,1548.361,1754.366,1548.557,1754.648,1548.744z"/>
					<g>
						<rect x="1844.407" y="1525.34" style="fill:#FFA412;" width="2.85" height="23.405"/>
						<rect x="1834.762" y="1525.34" style="fill:#FFA412;" width="2.85" height="23.405"/>
						<rect x="1823.194" y="1525.34" style="fill:#FFA412;" width="2.85" height="23.405"/>
						<rect x="1805.464" y="1525.34" style="fill:#FFA412;" width="2.851" height="23.405"/>
						<rect x="1786.716" y="1525.34" style="fill:#FFA412;" width="2.85" height="23.405"/>
						<rect x="1757.973" y="1525.34" style="fill:#FFA412;" width="2.85" height="23.405"/>
						<rect x="1731.062" y="1525.34" style="fill:#FFA412;" width="2.85" height="23.405"/>
						<rect x="1707.031" y="1525.34" style="fill:#FFA412;" width="2.849" height="23.405"/>
						<rect x="1853.589" y="1525.34" style="fill:#FFA412;" width="2.85" height="23.405"/>
						<rect x="1859.654" y="1525.34" style="fill:#FFA412;" width="2.85" height="23.405"/>
						<rect x="1865.512" y="1525.34" style="fill:#FFA412;" width="2.85" height="23.405"/>
						<path style="fill:#FFA412;" d="M1872.769,1525.42v23.243c-0.35,0.054-0.704,0.081-1.069,0.081h-1.781v-23.405h1.781
							C1872.064,1525.339,1872.419,1525.366,1872.769,1525.42z"/>
						<path style="fill:#FFA412;" d="M1876.726,1527.588v18.907c-0.691,0.856-1.684,1.529-2.848,1.906v-22.72
							C1875.042,1526.059,1876.034,1526.732,1876.726,1527.588z"/>
					</g>
				</g>
				<g>
					<path style="fill:#FFB93E;" d="M1883.771,1507.03v13.213c0,1.058-0.385,2.028-1.043,2.843c-0.085,0.109-0.18,0.211-0.273,0.313
						c-0.479,0.509-1.065,0.94-1.73,1.261c-0.268,0.126-0.549,0.243-0.839,0.337c-0.36,0.118-0.729,0.204-1.112,0.259
						c-0.172,0.023-0.345,0.047-0.524,0.063c-0.181,0.016-0.368,0.023-0.548,0.023h-250.718c-3.031,0-5.561-1.896-6.008-4.339
						c-0.023-0.165-0.047-0.329-0.054-0.493v-13.746c0.156-2.482,2.442-4.504,5.341-4.794c0.234-0.022,0.478-0.038,0.721-0.038
						h250.718c0.18,0,0.367,0.008,0.548,0.023c0.18,0.015,0.353,0.031,0.524,0.063c0.384,0.055,0.752,0.142,1.112,0.258
						c1.159,0.377,2.154,1.051,2.843,1.904C1883.387,1504.993,1883.771,1505.973,1883.771,1507.03z"/>
					<path style="fill:#FFA412;" d="M1760.655,1525.342h-134.322c-2.489,0-4.586-1.615-5.211-3.778
						c-0.06-0.184-0.111-0.369-0.146-0.561c-0.023-0.165-0.047-0.329-0.054-0.493v-13.746c0.14-2.475,2.185-4.504,4.769-4.794
						c0.212-0.022,0.423-0.038,0.643-0.038h117.828c0,0.016,0.008,0.023,0.008,0.038
						C1746.057,1508.854,1750.443,1518.363,1760.655,1525.342z"/>
					<g>
						<rect x="1850.413" y="1501.933" style="fill:#FFA412;" width="2.85" height="23.406"/>
						<rect x="1840.768" y="1501.933" style="fill:#FFA412;" width="2.849" height="23.406"/>
						<rect x="1829.2" y="1501.933" style="fill:#FFA412;" width="2.849" height="23.406"/>
						<rect x="1811.47" y="1501.933" style="fill:#FFA412;" width="2.85" height="23.406"/>
						<rect x="1792.722" y="1501.933" style="fill:#FFA412;" width="2.849" height="23.406"/>
						<rect x="1763.979" y="1501.933" style="fill:#FFA412;" width="2.85" height="23.406"/>
						<rect x="1737.066" y="1501.933" style="fill:#FFA412;" width="2.851" height="23.406"/>
						<rect x="1713.036" y="1501.933" style="fill:#FFA412;" width="2.851" height="23.406"/>
						<rect x="1859.594" y="1501.933" style="fill:#FFA412;" width="2.85" height="23.406"/>
						<rect x="1865.66" y="1501.933" style="fill:#FFA412;" width="2.85" height="23.406"/>
						<rect x="1871.518" y="1501.933" style="fill:#FFA412;" width="2.85" height="23.406"/>
						<path style="fill:#FFA412;" d="M1878.773,1502.014v23.242c-0.348,0.054-0.703,0.082-1.068,0.082h-1.781v-23.406h1.781
							C1878.07,1501.932,1878.426,1501.959,1878.773,1502.014z"/>
						<path style="fill:#FFA412;" d="M1882.731,1504.182v18.906c-0.69,0.856-1.684,1.529-2.847,1.906v-22.72
							C1881.048,1502.652,1882.041,1503.325,1882.731,1504.182z"/>
					</g>
				</g>
				<g>
					<path style="fill:#FFB93E;" d="M1865.334,1483.659v13.212c0,1.058-0.376,2.029-1.034,2.844
						c-0.688,0.861-1.685,1.535-2.851,1.911c-0.354,0.118-0.729,0.204-1.105,0.258c-0.116,0.024-0.234,0.04-0.352,0.048h-0.047
						c-0.063,0.008-0.126,0.016-0.188,0.016c-0.054,0.008-0.102,0.008-0.164,0.016c-0.11,0-0.212,0.007-0.321,0.007h-250.718
						c-3.234,0-5.897-2.153-6.062-4.831c-0.009-0.087-0.009-0.173-0.009-0.268v-13.212c0-0.087,0-0.181,0.009-0.267
						c0-0.07,0.008-0.142,0.015-0.212c0.243-2.154,2.108-3.939,4.551-4.457c0.055-0.015,0.118-0.03,0.181-0.038
						c0.422-0.078,0.861-0.126,1.315-0.126h250.718c0.188,0,0.36,0.008,0.541,0.024c0.078,0.007,0.156,0.015,0.227,0.023
						c0.008,0,0.008,0,0.016,0h0.008c0.094,0.007,0.188,0.023,0.281,0.038c0.377,0.055,0.752,0.142,1.105,0.259
						c1.166,0.376,2.162,1.05,2.851,1.911C1864.958,1481.631,1865.334,1482.602,1865.334,1483.659z"/>
					<path style="fill:#FFA412;" d="M1742.219,1501.97h-134.314c-2.891,0-5.264-2.153-5.412-4.831
						c-0.009-0.087-0.009-0.173-0.009-0.268v-13.212c0-0.087,0-0.181,0.009-0.267c0-0.07,0.008-0.142,0.015-0.212
						c0.22-2.209,1.95-4.009,4.207-4.487c0.069-0.023,0.147-0.039,0.226-0.048c0.314-0.055,0.636-0.086,0.965-0.086h117.82
						c0.015,0.063,0.031,0.11,0.046,0.173c1.903,6.861,6.289,16.274,16.394,23.199
						C1742.18,1501.947,1742.203,1501.955,1742.219,1501.97z"/>
					<g>
						<rect x="1831.979" y="1478.563" style="fill:#FFA412;" width="2.85" height="23.405"/>
						<rect x="1822.334" y="1478.563" style="fill:#FFA412;" width="2.85" height="23.405"/>
						<rect x="1810.767" y="1478.563" style="fill:#FFA412;" width="2.85" height="23.405"/>
						<rect x="1793.037" y="1478.563" style="fill:#FFA412;" width="2.85" height="23.405"/>
						<rect x="1774.288" y="1478.563" style="fill:#FFA412;" width="2.851" height="23.405"/>
						<rect x="1745.546" y="1478.563" style="fill:#FFA412;" width="2.85" height="23.405"/>
						<rect x="1718.634" y="1478.563" style="fill:#FFA412;" width="2.85" height="23.405"/>
						<rect x="1694.604" y="1478.563" style="fill:#FFA412;" width="2.85" height="23.405"/>
						<rect x="1841.162" y="1478.563" style="fill:#FFA412;" width="2.849" height="23.405"/>
						<rect x="1847.227" y="1478.563" style="fill:#FFA412;" width="2.851" height="23.405"/>
						<rect x="1853.084" y="1478.563" style="fill:#FFA412;" width="2.85" height="23.405"/>
						<path style="fill:#FFA412;" d="M1860.341,1478.644v23.243c-0.349,0.053-0.704,0.082-1.069,0.082h-1.78v-23.406h1.78
							C1859.637,1478.563,1859.992,1478.59,1860.341,1478.644z"/>
						<path style="fill:#FFA412;" d="M1864.298,1480.812v18.907c-0.69,0.855-1.684,1.529-2.847,1.906v-22.72
							C1862.614,1479.283,1863.607,1479.956,1864.298,1480.812z"/>
					</g>
				</g>
				<g>
					<path style="fill:#FFB93E;" d="M1864.809,1460.42v13.214c0,1.057-0.384,2.028-1.033,2.843c-0.173,0.212-0.368,0.415-0.572,0.61
						c-0.626,0.564-1.401,1.019-2.279,1.301c-0.281,0.094-0.571,0.165-0.861,0.22h-0.008c-0.008,0-0.008,0-0.016,0
						c-0.078,0.015-0.148,0.031-0.227,0.038c-0.345,0.055-0.705,0.087-1.065,0.087h-250.726c-0.259,0-0.524-0.016-0.783-0.047
						c-0.103-0.008-0.204-0.023-0.299-0.04c-2.552-0.391-4.565-2.138-4.926-4.307c-0.023-0.149-0.038-0.29-0.047-0.439
						c-0.008-0.094-0.008-0.18-0.008-0.266v-13.214c0-0.094,0-0.18,0.008-0.266c0.009-0.164,0.031-0.329,0.055-0.493
						c0.447-2.444,2.977-4.34,6-4.34h250.726c0.156,0,0.321,0.008,0.478,0.017c0.023,0,0.047,0.007,0.063,0.007
						c0.046,0.008,0.093,0.008,0.14,0.008c0.071,0.009,0.149,0.017,0.228,0.032c0.055,0,0.102,0.008,0.157,0.023
						c0.384,0.055,0.759,0.141,1.111,0.258c0.212,0.07,0.415,0.149,0.611,0.234h0.008c0.783,0.346,1.464,0.832,2.005,1.41
						c0.078,0.086,0.156,0.173,0.228,0.259C1864.425,1458.384,1864.809,1459.362,1864.809,1460.42z"/>
					<path style="fill:#FFA412;" d="M1741.693,1478.732h-134.322c-0.102,0-0.211-0.009-0.313-0.009
						c-0.118-0.007-0.234-0.023-0.344-0.03c-2.429-0.29-4.371-2.092-4.7-4.354c-0.023-0.149-0.038-0.29-0.047-0.439
						c-0.008-0.094-0.008-0.18-0.008-0.266v-13.214c0-0.094,0-0.18,0.008-0.266c0.009-0.164,0.031-0.329,0.055-0.493
						c0.034-0.19,0.087-0.376,0.146-0.56c0.622-2.164,2.714-3.78,5.203-3.78h117.828c0.047,0.196,0.102,0.385,0.165,0.579
						c1.95,6.783,6.312,15.885,16.087,22.659C1741.529,1478.622,1741.615,1478.67,1741.693,1478.732z"/>
					<g>
						<rect x="1831.452" y="1455.324" style="fill:#FFA412;" width="2.85" height="23.406"/>
						<rect x="1821.807" y="1455.324" style="fill:#FFA412;" width="2.85" height="23.406"/>
						<rect x="1810.24" y="1455.324" style="fill:#FFA412;" width="2.849" height="23.406"/>
						<rect x="1792.511" y="1455.324" style="fill:#FFA412;" width="2.849" height="23.406"/>
						<rect x="1773.762" y="1455.324" style="fill:#FFA412;" width="2.849" height="23.406"/>
						<rect x="1745.02" y="1455.324" style="fill:#FFA412;" width="2.849" height="23.406"/>
						<rect x="1718.107" y="1455.324" style="fill:#FFA412;" width="2.849" height="23.406"/>
						<rect x="1694.076" y="1455.324" style="fill:#FFA412;" width="2.85" height="23.406"/>
						<rect x="1840.635" y="1455.324" style="fill:#FFA412;" width="2.85" height="23.406"/>
						<rect x="1846.7" y="1455.324" style="fill:#FFA412;" width="2.85" height="23.406"/>
						<rect x="1852.558" y="1455.324" style="fill:#FFA412;" width="2.849" height="23.406"/>
						<path style="fill:#FFA412;" d="M1859.814,1455.405v23.242c-0.349,0.054-0.705,0.082-1.07,0.082h-1.781v-23.406h1.781
							C1859.109,1455.323,1859.466,1455.352,1859.814,1455.405z"/>
						<path style="fill:#FFA412;" d="M1863.771,1457.573v18.906c-0.69,0.855-1.684,1.529-2.847,1.906v-22.72
							C1862.087,1456.044,1863.08,1456.717,1863.771,1457.573z"/>
					</g>
				</g>
				<g>
					<path style="fill:#FFB93E;" d="M1877.764,1437.59v13.213c0,1.057-0.384,2.036-1.042,2.852
						c-0.688,0.854-1.677,1.526-2.844,1.902c-0.352,0.118-0.728,0.203-1.112,0.259c-0.344,0.054-0.704,0.085-1.064,0.085h-250.726
						c-1.003,0-1.958-0.211-2.796-0.579c-1.66-0.729-2.883-2.092-3.195-3.696c-0.023-0.109-0.031-0.219-0.048-0.329
						c-0.007-0.078-0.015-0.148-0.015-0.227c-0.008-0.087-0.008-0.173-0.008-0.267v-13.213c0-0.086,0-0.181,0.008-0.267
						c0.008-0.165,0.023-0.329,0.055-0.493c0.446-2.444,2.976-4.34,5.999-4.34h250.726c0.36,0,0.721,0.031,1.064,0.086
						c0.385,0.055,0.761,0.142,1.112,0.259c1.167,0.376,2.155,1.05,2.844,1.911
						C1877.38,1435.562,1877.764,1436.532,1877.764,1437.59z"/>
					<path style="fill:#FFA412;" d="M1754.648,1455.9h-134.322c-0.901,0-1.747-0.211-2.491-0.579
						c-1.488-0.729-2.576-2.092-2.851-3.696c-0.023-0.109-0.031-0.219-0.048-0.329c-0.007-0.078-0.015-0.148-0.015-0.227
						c-0.008-0.087-0.008-0.173-0.008-0.267v-13.213c0-0.086,0-0.181,0.008-0.267c0.008-0.165,0.023-0.329,0.055-0.493
						c0.033-0.186,0.084-0.366,0.14-0.544c0.613-2.173,2.714-3.796,5.21-3.796h117.828c1.832,6.705,6.03,15.908,15.672,22.831
						C1754.092,1455.518,1754.366,1455.706,1754.648,1455.9z"/>
					<g>
						<rect x="1844.407" y="1432.495" style="fill:#FFA412;" width="2.85" height="23.405"/>
						<rect x="1834.762" y="1432.495" style="fill:#FFA412;" width="2.85" height="23.405"/>
						<rect x="1823.194" y="1432.495" style="fill:#FFA412;" width="2.85" height="23.405"/>
						<rect x="1805.464" y="1432.495" style="fill:#FFA412;" width="2.851" height="23.405"/>
						<rect x="1786.716" y="1432.495" style="fill:#FFA412;" width="2.85" height="23.405"/>
						<rect x="1757.973" y="1432.495" style="fill:#FFA412;" width="2.85" height="23.405"/>
						<rect x="1731.062" y="1432.495" style="fill:#FFA412;" width="2.85" height="23.405"/>
						<rect x="1707.031" y="1432.495" style="fill:#FFA412;" width="2.849" height="23.405"/>
						<rect x="1853.589" y="1432.495" style="fill:#FFA412;" width="2.85" height="23.405"/>
						<rect x="1859.654" y="1432.495" style="fill:#FFA412;" width="2.85" height="23.405"/>
						<rect x="1865.512" y="1432.495" style="fill:#FFA412;" width="2.85" height="23.405"/>
						<path style="fill:#FFA412;" d="M1872.769,1432.576v23.243c-0.35,0.053-0.704,0.081-1.069,0.081h-1.781v-23.406h1.781
							C1872.064,1432.494,1872.419,1432.522,1872.769,1432.576z"/>
						<path style="fill:#FFA412;" d="M1876.726,1434.744v18.906c-0.691,0.856-1.684,1.529-2.848,1.906v-22.719
							C1875.042,1433.215,1876.034,1433.889,1876.726,1434.744z"/>
					</g>
				</g>
				<g>
					<path style="fill:#FFB93E;" d="M1898.253,1414.18v13.22c0,1.05-0.385,2.021-1.034,2.836l-0.008,0.007
						c-0.086,0.109-0.18,0.212-0.274,0.313c-0.384,0.407-0.83,0.761-1.339,1.05c-0.25,0.141-0.518,0.273-0.799,0.384
						c-0.009,0-0.009,0.008-0.009,0.008c-0.133,0.055-0.273,0.109-0.422,0.157c-0.353,0.117-0.729,0.203-1.112,0.258
						c-0.345,0.055-0.705,0.078-1.065,0.078h-250.726c-3.023,0-5.553-1.887-6-4.33c-0.031-0.166-0.046-0.329-0.055-0.502
						c-0.008-0.086-0.008-0.172-0.008-0.259v-13.22c0-0.087,0-0.173,0.008-0.259c0.149-2.476,2.436-4.504,5.342-4.794
						c0.235-0.031,0.471-0.039,0.713-0.039h250.726c0.36,0,0.721,0.031,1.065,0.078c0.384,0.063,0.76,0.149,1.112,0.267
						c1.018,0.329,1.895,0.885,2.568,1.591c0.095,0.102,0.188,0.203,0.274,0.313l0.008,0.008
						C1897.868,1412.158,1898.253,1413.129,1898.253,1414.18z"/>
					<path style="fill:#FFA412;" d="M1775.139,1432.49h-134.324c-2.495,0-4.596-1.616-5.209-3.787
						c-0.057-0.178-0.105-0.358-0.141-0.543c-0.031-0.166-0.046-0.329-0.055-0.502c-0.008-0.086-0.008-0.172-0.008-0.259v-13.22
						c0-0.087,0-0.173,0.008-0.259c0.135-2.476,2.178-4.504,4.763-4.794c0.212-0.031,0.423-0.039,0.642-0.039h117.828
						c0,0.008,0.009,0.023,0.009,0.039C1760.539,1416.012,1764.925,1425.521,1775.139,1432.49z"/>
					<g>
						<rect x="1864.896" y="1409.088" style="fill:#FFA412;" width="2.85" height="23.406"/>
						<rect x="1855.251" y="1409.088" style="fill:#FFA412;" width="2.85" height="23.406"/>
						<rect x="1843.685" y="1409.088" style="fill:#FFA412;" width="2.849" height="23.406"/>
						<rect x="1825.954" y="1409.088" style="fill:#FFA412;" width="2.85" height="23.406"/>
						<rect x="1807.205" y="1409.088" style="fill:#FFA412;" width="2.85" height="23.406"/>
						<rect x="1778.463" y="1409.088" style="fill:#FFA412;" width="2.85" height="23.406"/>
						<rect x="1751.552" y="1409.088" style="fill:#FFA412;" width="2.849" height="23.406"/>
						<rect x="1727.521" y="1409.088" style="fill:#FFA412;" width="2.849" height="23.406"/>
						<rect x="1874.078" y="1409.088" style="fill:#FFA412;" width="2.85" height="23.406"/>
						<rect x="1880.145" y="1409.088" style="fill:#FFA412;" width="2.85" height="23.406"/>
						<rect x="1886.002" y="1409.088" style="fill:#FFA412;" width="2.849" height="23.406"/>
						<path style="fill:#FFA412;" d="M1893.259,1409.169v23.243c-0.35,0.053-0.705,0.082-1.07,0.082h-1.78v-23.407h1.78
							C1892.554,1409.087,1892.909,1409.115,1893.259,1409.169z"/>
						<path style="fill:#FFA412;" d="M1897.215,1411.338v18.905c-0.69,0.856-1.684,1.529-2.847,1.906v-22.719
							C1895.531,1409.809,1896.524,1410.481,1897.215,1411.338z"/>
					</g>
				</g>
				<g>
					<path style="fill:#FFB93E;" d="M1865.334,1390.815v13.212c0,1.059-0.376,2.029-1.034,2.844
						c-0.688,0.862-1.685,1.536-2.851,1.911c-0.354,0.118-0.729,0.204-1.105,0.259c-0.116,0.016-0.234,0.031-0.352,0.047h-0.047
						c-0.078,0.016-0.157,0.016-0.235,0.023c-0.047,0-0.094,0.008-0.142,0.008c-0.101,0-0.194,0.008-0.297,0.008h-250.718
						c-2.177,0-4.097-0.971-5.161-2.428c-0.524-0.705-0.846-1.526-0.9-2.404c-0.009-0.095-0.009-0.181-0.009-0.268v-13.212
						c0-0.095,0-0.181,0.009-0.266c0.133-2.17,1.91-3.995,4.3-4.605c0.556-0.149,1.15-0.228,1.762-0.228h250.718
						c0.109,0,0.211,0.008,0.321,0.008c0.056,0,0.11,0.008,0.157,0.016c0.203,0.008,0.398,0.031,0.594,0.063
						c0.377,0.055,0.752,0.142,1.105,0.258c0.18,0.055,0.353,0.118,0.517,0.196h0.008c0.666,0.274,1.261,0.65,1.754,1.104
						c0.009,0.008,0.017,0.016,0.024,0.031c0.023,0.024,0.047,0.039,0.07,0.063c0.172,0.156,0.328,0.329,0.478,0.51
						C1864.958,1388.778,1865.334,1389.758,1865.334,1390.815z"/>
					<path style="fill:#FFA412;" d="M1742.219,1409.127h-134.314c-1.888,0-3.564-0.924-4.527-2.311
						c-0.517-0.736-0.839-1.598-0.885-2.521c-0.009-0.095-0.009-0.181-0.009-0.268v-13.212c0-0.095,0-0.181,0.009-0.266
						c0.133-2.335,1.942-4.262,4.314-4.724c0.354-0.07,0.721-0.109,1.098-0.109h117.82c0.046,0.18,0.102,0.36,0.156,0.54
						c1.95,6.83,6.359,16.025,16.283,22.831C1742.18,1409.096,1742.203,1409.111,1742.219,1409.127z"/>
					<g>
						<rect x="1831.979" y="1385.719" style="fill:#FFA412;" width="2.85" height="23.406"/>
						<rect x="1822.334" y="1385.719" style="fill:#FFA412;" width="2.85" height="23.406"/>
						<rect x="1810.767" y="1385.719" style="fill:#FFA412;" width="2.85" height="23.406"/>
						<rect x="1793.037" y="1385.719" style="fill:#FFA412;" width="2.85" height="23.406"/>
						<rect x="1774.288" y="1385.719" style="fill:#FFA412;" width="2.851" height="23.406"/>
						<rect x="1745.546" y="1385.719" style="fill:#FFA412;" width="2.85" height="23.406"/>
						<rect x="1718.634" y="1385.719" style="fill:#FFA412;" width="2.85" height="23.406"/>
						<rect x="1694.604" y="1385.719" style="fill:#FFA412;" width="2.85" height="23.406"/>
						<rect x="1841.162" y="1385.719" style="fill:#FFA412;" width="2.849" height="23.406"/>
						<rect x="1847.227" y="1385.719" style="fill:#FFA412;" width="2.851" height="23.406"/>
						<rect x="1853.084" y="1385.719" style="fill:#FFA412;" width="2.85" height="23.406"/>
						<path style="fill:#FFA412;" d="M1860.341,1385.8v23.242c-0.349,0.054-0.704,0.082-1.069,0.082h-1.78v-23.406h1.78
							C1859.637,1385.718,1859.992,1385.745,1860.341,1385.8z"/>
						<path style="fill:#FFA412;" d="M1864.298,1387.968v18.906c-0.69,0.856-1.684,1.529-2.847,1.906v-22.72
							C1862.614,1386.438,1863.607,1387.112,1864.298,1387.968z"/>
					</g>
				</g>
				<g>
					<path style="fill:#FFB93E;" d="M1883.771,1367.946v13.218c0,1.054-0.382,2.031-1.04,2.845
						c-0.689,0.855-1.683,1.529-2.847,1.906c-0.355,0.118-0.728,0.205-1.11,0.262c-0.348,0.054-0.703,0.082-1.069,0.082h-250.72
						c-0.974,0-1.896-0.194-2.71-0.541c-1.827-0.77-3.136-2.298-3.333-4.083c-0.008-0.068-0.014-0.138-0.018-0.208
						c-0.002-0.088-0.006-0.175-0.006-0.263v-13.218c0-0.088,0.004-0.175,0.006-0.262c0.151-2.481,2.441-4.506,5.343-4.796
						c0.234-0.025,0.472-0.036,0.718-0.036h250.72c0.366,0,0.722,0.027,1.069,0.082c0.383,0.056,0.755,0.143,1.11,0.261
						c1.164,0.378,2.157,1.051,2.847,1.907C1883.389,1365.916,1883.771,1366.893,1883.771,1367.946z"/>
					<path style="fill:#FFA412;" d="M1760.653,1386.259h-134.319c-0.869,0-1.691-0.194-2.418-0.541
						c-1.634-0.77-2.797-2.298-2.975-4.083c-0.008-0.068-0.014-0.138-0.018-0.208c-0.002-0.088-0.006-0.175-0.006-0.263v-13.218
						c0-0.088,0.004-0.175,0.006-0.262c0.134-2.479,2.18-4.506,4.77-4.796c0.207-0.025,0.422-0.036,0.641-0.036h117.824
						c0.004,0.011,0.008,0.025,0.011,0.036c1.837,6.711,6.052,15.91,15.714,22.829
						C1760.134,1385.901,1760.393,1386.081,1760.653,1386.259z"/>
					<g>
						<rect x="1850.413" y="1362.853" style="fill:#FFA412;" width="2.85" height="23.406"/>
						<rect x="1840.768" y="1362.853" style="fill:#FFA412;" width="2.849" height="23.406"/>
						<rect x="1829.2" y="1362.853" style="fill:#FFA412;" width="2.849" height="23.406"/>
						<rect x="1811.47" y="1362.853" style="fill:#FFA412;" width="2.85" height="23.406"/>
						<rect x="1792.722" y="1362.853" style="fill:#FFA412;" width="2.849" height="23.406"/>
						<rect x="1763.979" y="1362.853" style="fill:#FFA412;" width="2.85" height="23.406"/>
						<rect x="1737.066" y="1362.853" style="fill:#FFA412;" width="2.851" height="23.406"/>
						<rect x="1713.036" y="1362.853" style="fill:#FFA412;" width="2.851" height="23.406"/>
						<rect x="1859.594" y="1362.853" style="fill:#FFA412;" width="2.85" height="23.406"/>
						<rect x="1865.66" y="1362.853" style="fill:#FFA412;" width="2.85" height="23.406"/>
						<rect x="1871.518" y="1362.853" style="fill:#FFA412;" width="2.85" height="23.406"/>
						<path style="fill:#FFA412;" d="M1878.773,1362.934v23.242c-0.348,0.054-0.703,0.082-1.068,0.082h-1.781v-23.406h1.781
							C1878.07,1362.852,1878.426,1362.879,1878.773,1362.934z"/>
						<path style="fill:#FFA412;" d="M1882.731,1365.102v18.906c-0.69,0.856-1.684,1.529-2.847,1.906v-22.72
							C1881.048,1363.572,1882.041,1364.245,1882.731,1365.102z"/>
					</g>
				</g>
				<g>
					<path style="fill:#FFB93E;" d="M1891.617,1344.576v13.218c0,1.054-0.382,2.03-1.04,2.845c-0.69,0.856-1.683,1.529-2.847,1.906
						c-0.355,0.119-0.728,0.206-1.109,0.263c-0.118,0.017-0.234,0.033-0.353,0.045c-0.063,0.005-0.13,0.011-0.197,0.017
						c-0.064,0.006-0.132,0.009-0.198,0.011c-0.107,0.006-0.215,0.009-0.322,0.009H1634.83c-3.231,0-5.895-2.151-6.059-4.832
						c-0.004-0.087-0.007-0.174-0.007-0.263v-13.218c0-0.087,0.003-0.174,0.007-0.262c0.164-2.681,2.827-4.832,6.059-4.832h250.721
						c0.365,0,0.722,0.028,1.07,0.082c0.382,0.057,0.754,0.144,1.109,0.262c1.164,0.378,2.156,1.051,2.847,1.906
						C1891.235,1342.546,1891.617,1343.523,1891.617,1344.576z"/>
					<path style="fill:#FFA412;" d="M1768.501,1362.889H1634.18c-2.883,0-5.262-2.151-5.408-4.832
						c-0.004-0.087-0.007-0.174-0.007-0.263v-13.218c0-0.087,0.003-0.174,0.007-0.262c0.146-2.681,2.525-4.832,5.408-4.832h117.825
						c1.878,6.879,6.251,16.387,16.441,23.37C1768.464,1362.863,1768.483,1362.878,1768.501,1362.889z"/>
					<g>
						<rect x="1858.26" y="1339.483" style="fill:#FFA412;" width="2.849" height="23.406"/>
						<rect x="1848.614" y="1339.483" style="fill:#FFA412;" width="2.849" height="23.406"/>
						<rect x="1837.047" y="1339.483" style="fill:#FFA412;" width="2.85" height="23.406"/>
						<rect x="1819.317" y="1339.483" style="fill:#FFA412;" width="2.849" height="23.406"/>
						<rect x="1800.568" y="1339.483" style="fill:#FFA412;" width="2.85" height="23.406"/>
						<rect x="1771.826" y="1339.483" style="fill:#FFA412;" width="2.85" height="23.406"/>
						<rect x="1744.914" y="1339.483" style="fill:#FFA412;" width="2.85" height="23.406"/>
						<rect x="1720.884" y="1339.482" style="fill:#FFA412;" width="2.85" height="23.406"/>
						<rect x="1867.441" y="1339.483" style="fill:#FFA412;" width="2.85" height="23.406"/>
						<rect x="1873.507" y="1339.483" style="fill:#FFA412;" width="2.85" height="23.406"/>
						<rect x="1879.364" y="1339.483" style="fill:#FFA412;" width="2.85" height="23.406"/>
						<path style="fill:#FFA412;" d="M1886.621,1339.563v23.243c-0.349,0.054-0.704,0.082-1.069,0.082h-1.78v-23.406h1.78
							C1885.917,1339.482,1886.272,1339.51,1886.621,1339.563z"/>
						<path style="fill:#FFA412;" d="M1890.578,1341.732v18.906c-0.691,0.855-1.684,1.529-2.848,1.906v-22.72
							C1888.895,1340.203,1889.887,1340.876,1890.578,1341.732z"/>
					</g>
				</g>
			</g>
			<g>
				<path style="fill:#FFEDDC;" d="M1812.144,1206.098c0,0-13.168,18.539-25.241,18.797s-30.44-8.594-30.44-8.594
					s-11.085-24.704-3.566-34.371c0,0,7.541-3.309,15.425,2.534c1.353,1.01,2.728,2.277,4.081,3.91
					c1.912,2.299,4.061,3.609,6.337,4.296c8.615,2.621,18.84-3.544,22.665,2.406c2.233,3.459,4.661,6.059,6.659,7.885
					C1810.426,1205.066,1812.144,1206.098,1812.144,1206.098z"/>
				<path style="fill:#FFEDDC;" d="M1640.463,1339.825c0,0,46.546-112.782,130.328-114.931c0,0,77.336,8.593,81.633,114.931
					H1640.463z"/>
				<path style="fill:#DB6A1D;" d="M1747.838,1228.338c0,0,33.582,7.469,43.943,3.079c0,0,1.565-14.041-12.576-12.072
					c-9.681,1.348-15.984-3.304-19.693-5.191C1754.264,1211.482,1746.443,1222.465,1747.838,1228.338z"/>
				<path style="fill:#E5C1A1;" d="M1777.063,1207.171c-2.148,1.612-8.742-22.707-8.742-22.707c1.353,1.01,2.728,2.277,4.081,3.91
					c1.912,2.299,4.061,3.609,6.337,4.296C1778.761,1193.379,1779.147,1205.604,1777.063,1207.171z"/>
				<path style="fill:#E5C1A1;" d="M1808.063,1202.961c-0.473,0.278-16.005,9.581-18.11,9.581c-2.147,0,11.451-17.466,11.451-17.466
					C1803.637,1198.535,1806.064,1201.135,1808.063,1202.961z"/>
				<path style="fill:#F9DDBF;" d="M1685.935,1308.318c-0.861-0.736,32.94-49.769,42.249-50.126
					c9.31-0.358,30.225,10.741,45.366,12.173c15.143,1.433,29.821-2.864,32.687,6.087c2.864,8.951,10.741,40.685,5.907,45.764
					C1807.311,1327.294,1704.521,1324.196,1685.935,1308.318z"/>
			</g>
		</g>
		<path style="opacity:0.5;fill:#E2810E;" d="M1717.767,1478.56c-0.008,0.063-0.008,0.118-0.017,0.173
			c-0.438,7.855-1.698,15.625-3.759,23.199c0,0.008-0.008,0.023-0.008,0.038c-0.298,1.098-0.611,2.193-0.947,3.282
			c-2.1,6.908-4.864,13.636-8.264,20.09c-4.269,8.105-9.531,15.782-15.75,22.823c-0.165,0.196-0.337,0.392-0.51,0.579
			c-7.769,8.702-16.987,16.433-27.545,22.832c-2.225,1.354-4.504,2.646-6.847,3.876c-1.582,0.83-3.171,1.614-4.77,2.374
			c-1.527,0.885-3.14,1.645-4.66,2.576c-4.417,2.702-9.931,4.849-15.93,6.556v-10.292c0-0.086,0.008-0.172,0.008-0.258
			c0.007-0.172,0.031-0.337,0.054-0.501c0.035-0.191,0.087-0.378,0.146-0.562c0.625-2.162,2.722-3.77,5.211-3.77h-26.81
			c-2.489,0-4.581-1.617-5.203-3.781c-0.06-0.184-0.112-0.368-0.146-0.559c-0.023-0.164-0.046-0.329-0.055-0.493
			c-0.008-0.087-0.008-0.173-0.008-0.267v-13.213c0-0.086,0-0.18,0.008-0.266c0.009-0.165,0.031-0.329,0.055-0.494
			c0.034-0.189,0.087-0.376,0.146-0.559c0.622-2.164,2.714-3.78,5.203-3.78h10.464c-1.488-0.729-2.576-2.092-2.851-3.697
			c-0.023-0.109-0.031-0.219-0.048-0.329c-0.007-0.069-0.015-0.148-0.015-0.227c-0.008-0.087-0.008-0.172-0.008-0.258v-13.222
			c0-0.086,0-0.173,0.008-0.259c0.008-0.164,0.023-0.336,0.055-0.493c0.033-0.186,0.084-0.366,0.14-0.546
			c0.613-2.177,2.715-3.793,5.21-3.793h6.007c-2.489,0-4.586-1.615-5.211-3.778c-0.06-0.184-0.111-0.369-0.146-0.561
			c-0.023-0.165-0.047-0.329-0.054-0.493v-13.746c0.14-2.475,2.185-4.504,4.769-4.794h-17.786c-2.891,0-5.264-2.153-5.412-4.831
			c-0.009-0.087-0.009-0.173-0.009-0.268v-13.212c0-0.087,0-0.181,0.009-0.267c0-0.07,0.008-0.142,0.015-0.212
			c0.22-2.209,1.95-4.009,4.207-4.487c-2.429-0.29-4.371-2.092-4.7-4.354c-0.023-0.149-0.038-0.29-0.047-0.439
			c-0.008-0.094-0.008-0.18-0.008-0.266v-13.214c0-0.094,0-0.18,0.008-0.266c0.009-0.164,0.031-0.329,0.055-0.493
			c0.034-0.19,0.087-0.376,0.146-0.56c0.622-2.164,2.714-3.78,5.203-3.78h10.464c-1.488-0.729-2.576-2.092-2.851-3.696
			c-0.023-0.109-0.031-0.219-0.048-0.329c-0.007-0.078-0.015-0.148-0.015-0.227c-0.008-0.087-0.008-0.173-0.008-0.267v-13.213
			c0-0.086,0-0.181,0.008-0.267c0.008-0.165,0.023-0.329,0.055-0.493c0.033-0.186,0.084-0.366,0.14-0.544
			c0.613-2.173,2.714-3.796,5.21-3.796h20.488c-2.495,0-4.596-1.616-5.209-3.787c-0.057-0.178-0.105-0.358-0.141-0.543
			c-0.031-0.166-0.046-0.329-0.055-0.502c-0.008-0.086-0.008-0.172-0.008-0.259v-13.22c0-0.087,0-0.173,0.008-0.259
			c0.135-2.476,2.178-4.504,4.763-4.794h-32.269c-1.888,0-3.564-0.924-4.527-2.311l0.016-0.117l3.399-20.755l0.015-0.118
			l4.841-29.613c5.615,0.751,11.169,1.871,16.612,3.344c0.32,0.087,0.635,0.173,0.955,0.259c0.017,0.008,0.039,0.016,0.063,0.023
			c3.173,0.885,6.306,1.888,9.392,3.016c0.031,0.008,0.055,0.016,0.087,0.031c14.207,5.177,27.443,12.86,38.926,22.831
			c0.203,0.172,0.406,0.353,0.603,0.54c5.968,5.239,11.45,11.113,16.322,17.583c0.979,1.285,1.928,2.593,2.843,3.925
			c0.306,0.438,0.611,0.877,0.901,1.323c0.016,0.008,0.023,0.023,0.023,0.039c1.48,2.186,2.882,4.425,4.214,6.728
			c3.141,5.429,5.78,10.989,7.934,16.636c2.874,7.496,4.888,15.141,6.078,22.831c0.039,0.196,0.063,0.385,0.094,0.579
			C1717.829,1463.459,1718.174,1471.049,1717.767,1478.56z"/>
		<g>
			<path style="fill:#E2810E;" d="M1458.782,1526.016c-32.88-59.646-11.181-134.655,48.466-167.535
				c59.646-32.881,134.655-11.182,167.535,48.466c32.881,59.646,11.183,134.655-48.465,167.535
				C1566.672,1607.362,1491.663,1585.663,1458.782,1526.016z"/>
			<path style="fill:#FFB93E;" d="M1621.529,1576.987c-1.519,0.926-3.063,1.822-4.633,2.688c-0.532,0.294-1.063,0.582-1.596,0.861
				c-1.216,0.648-2.432,1.271-3.656,1.879c-58.728,28.842-130.359,6.705-162.286-51.207
				c-30.452-55.238-14.084-123.658,35.882-159.586c3.985-2.866,8.18-5.525,12.585-7.951c1.581-0.871,3.176-1.707,4.776-2.497
				c1.555-0.775,3.125-1.514,4.7-2.213c4.826-2.152,9.733-3.966,14.687-5.449c7.363-2.219,14.839-3.713,22.329-4.503
				c23.23-2.46,46.603,1.783,67.327,11.922c21.99,10.752,41.002,28.144,53.718,51.207
				C1697.375,1470.218,1677.648,1542.853,1621.529,1576.987z"/>
			<g>
				<path style="fill:#FFA412;" d="M1558.223,1583.502c-10.313,0-20.684-1.459-30.864-4.404
					c-28.354-8.201-51.815-26.954-66.064-52.803c-14.248-25.849-17.578-55.698-9.376-84.051
					c8.202-28.354,26.954-51.815,52.803-66.063c53.359-29.416,120.701-9.934,150.115,43.425
					c29.414,53.359,9.933,120.701-43.426,150.115C1594.843,1578.854,1576.629,1583.501,1558.223,1583.502z M1557.885,1365.449
					c-17.539,0-35.311,4.293-51.726,13.342c-25.15,13.864-43.397,36.692-51.378,64.281c-7.981,27.588-4.741,56.633,9.124,81.783
					c13.864,25.152,36.692,43.398,64.281,51.38c27.588,7.98,56.633,4.739,81.784-9.125c51.92-28.62,70.875-94.146,42.254-146.065
					C1632.653,1385.54,1595.819,1365.449,1557.885,1365.449z"/>
			</g>
			<g>
				<path style="fill:#FFA412;" d="M1612.408,1483.685c-0.243-0.607-0.501-1.195-0.764-1.772c-2-4.396-4.492-7.962-7.48-10.687
					c-3.379-3.079-7.303-5.389-11.775-6.928c-4.472-1.54-9.46-2.478-14.96-2.812c-5.505-0.339-11.496-0.415-17.969-0.232
					c-4.001,0.121-7.419,0.05-10.261-0.208c-2.836-0.259-5.247-0.785-7.222-1.58c-1.98-0.795-3.586-1.884-4.821-3.267
					c-1.236-1.377-2.254-3.063-3.064-5.054c-0.811-1.991-1.271-3.966-1.393-5.926c-0.121-1.954,0.173-3.813,0.876-5.576
					c0.704-1.757,1.849-3.383,3.439-4.872c1.585-1.494,3.682-2.77,6.29-3.828c4.811-1.955,9.303-1.909,13.471,0.127
					c4.168,2.04,7.562,6.289,10.185,12.746l25.125-10.199c-2.188-5.378-4.928-9.926-8.224-13.639
					c-3.292-3.707-7.005-6.574-11.138-8.6c-4.127-2.021-8.625-3.206-13.491-3.55c-4.861-0.345-9.922,0.172-15.163,1.55
					l-7.116-17.523l-13.906,5.646l7.014,17.28c-5.019,2.604-9.272,5.632-12.768,9.086c-3.488,3.459-6.173,7.196-8.047,11.218
					c-1.879,4.025-2.861,8.249-2.958,12.676c-0.091,4.427,0.79,8.929,2.648,13.502c2.143,5.277,4.903,9.455,8.281,12.535
					c3.378,3.079,7.298,5.378,11.76,6.888c4.461,1.514,9.449,2.42,14.97,2.715c5.521,0.298,11.526,0.293,18.014-0.021
					c3.764-0.213,7.03-0.192,9.801,0.065c2.77,0.253,5.16,0.785,7.182,1.596c2.016,0.814,3.692,1.949,5.029,3.413
					c1.337,1.463,2.466,3.327,3.382,5.586c0.811,1.996,1.211,3.976,1.2,5.956c-0.004,1.98-0.45,3.869-1.342,5.672
					c-0.886,1.804-2.218,3.475-3.991,5.009c-1.772,1.534-4.021,2.852-6.745,3.96c-2.375,0.963-4.832,1.602-7.373,1.915
					c-2.543,0.309-5.02,0.061-7.44-0.745c-2.421-0.805-4.685-2.269-6.791-4.391c-2.112-2.116-3.946-5.09-5.495-8.913l-25.12,10.2
					c2.619,6.457,5.915,11.582,9.881,15.36c3.966,3.782,8.306,6.492,13.016,8.118c4.715,1.631,9.644,2.345,14.788,2.132
					c5.146-0.207,10.226-1.043,15.234-2.518l6.487,15.99l13.821-5.612l-6.523-16.064c5.019-2.603,9.318-5.606,12.899-9.005
					c3.316-3.145,5.909-6.528,7.784-10.164c0.151-0.294,0.299-0.588,0.439-0.887c1.895-3.965,2.908-8.169,3.029-12.61
					C1615.234,1493.008,1614.333,1488.42,1612.408,1483.685z"/>
			</g>
		</g>
	</g>
	<g style="opacity:0.7;">
		<g>
			<path style="fill:#77A4E5;" d="M2438.322,1458.778c0,0,23.699-27.647,1.462-45.209c0,0-16.243-9.834-29.488-9.036
				c0,0,18.768,31.471,12.696,34.602c-6.071,3.13-18.384-36.575-18.384-36.575s-36.964-3.585-48.854,2.133
				c0,0,31.6,25.859,24.943,27.398c-6.654,1.539-40.786-23.842-40.786-23.842s-34.403,5.854-32.569,26.842
				c1.835,20.986,13.689,27.467,18.9,26.909c5.209-0.559,35.687-12.192,36.35-7.924c0.664,4.27-17.681,18.221-30.528,18.873
				c0,0,24.255,26.749,40.375,19.029c16.12-7.721,17.496-19.957,27.544-24.547c10.049-4.59,18.627-4.578,14.479,0.104
				c-4.148,4.681-22.335,9.229-28.082,19.395c-5.746,10.164-10.902,17.02,5.775,14.511c16.679-2.51,43.788-14.713,44.978-28.688
				C2438.322,1458.778,2438.322,1458.778,2438.322,1458.778z"/>
			<g>
				<path style="fill:#77A4E5;" d="M2324.246,1435.656c0,0,93.441-3.601,114.076,23.122c0,0,4.564,13.668,18.607,26.114l2.189,5.966
					c0,0-16.193-17.072-21.987-18.105C2437.132,1472.753,2446.193,1439.646,2324.246,1435.656z"/>
				<path style="fill:#77A4E5;" d="M2456.93,1484.893c0,0,20.057,14.832,21.449,41.335l-3.64,0.325c0,0-6.406-27.402-17.983-38.119
					C2445.178,1477.718,2456.93,1484.893,2456.93,1484.893z"/>
			</g>
		</g>
		<g>
			<path style="fill:#77A4E5;" d="M2511.399,1436.157c0,0-33.231-18.61-17.724-43.866c0,0,12.406-15.509,25.699-19.497
				c0,0-7.09,37.663,0,38.55c7.09,0.886,4.874-42.537,4.874-42.537s35.005-16.838,48.741-15.509c0,0-21.712,36.777-14.622,35.891
				c7.09-0.886,31.46-38.106,31.46-38.106s35.891-6.646,41.651,14.622c5.76,21.269-3.545,31.903-8.862,33.233
				c-5.316,1.328-39.436,0.886-38.549,5.316c0.886,4.432,23.927,11.521,36.776,7.533c0,0-14.179,35.005-32.788,33.232
				c-18.611-1.773-24.371-13.293-35.893-14.18c-11.521-0.886-19.938,2.216-14.179,5.317c5.761,3.102,25.257,1.017,34.562,8.928
				c9.306,7.909,16.838,12.784-0.442,16.329c-17.281,3.545-48.298,1.329-54.502-11.964
				C2511.399,1436.157,2511.399,1436.157,2511.399,1436.157z"/>
			<g>
				<path style="fill:#77A4E5;" d="M2615.085,1372.351c0,0-93.052,30.131-103.686,63.807c0,0,0.443,15.065-8.862,32.346v6.647
					c0,0,9.748-22.599,15.065-25.7C2517.603,1449.45,2496.777,1420.205,2615.085,1372.351z"/>
				<path style="fill:#77A4E5;" d="M2502.537,1468.503c0,0-14.35,21.791-6.168,48.317l3.691-0.992c0,0-3.584-29.216,3.924-43.911
					C2511.492,1457.224,2502.537,1468.503,2502.537,1468.503z"/>
			</g>
		</g>
		<g>
			<path style="fill:#9FC1F4;" d="M2461.206,1394.894c0,0,49.694-27.829,26.504-65.596c0,0-18.553-23.19-38.431-29.154
				c0,0,10.602,56.319,0,57.646c-10.601,1.324-7.288-63.608-7.288-63.608s-52.345-25.179-72.884-23.19
				c0,0,32.467,54.994,21.865,53.669s-47.045-56.982-47.045-56.982s-53.668-9.938-62.282,21.865
				c-8.613,31.805,5.3,47.706,13.251,49.694c7.951,1.987,58.971,1.325,57.646,7.951c-1.326,6.625-35.779,17.227-54.996,11.264
				c0,0,21.203,52.344,49.031,49.693s36.443-19.877,53.67-21.202c17.228-1.325,29.816,3.313,21.203,7.951
				c-8.613,4.638-37.768,1.52-51.682,13.349s-25.178,19.118,0.662,24.418c25.842,5.301,72.223,1.988,81.498-17.89
				C2461.206,1394.894,2461.206,1394.894,2461.206,1394.894z"/>
			<g>
				<path style="fill:#9FC1F4;" d="M2306.162,1299.481c0,0,139.143,45.056,155.044,95.412c0,0-0.662,22.527,13.252,48.368v9.938
					c0,0-14.577-33.791-22.528-38.43C2451.93,1414.771,2483.071,1371.04,2306.162,1299.481z"/>
				<path style="fill:#9FC1F4;" d="M2474.458,1443.262c0,0,21.458,32.586,9.225,72.25l-5.521-1.482c0,0,5.359-43.688-5.868-65.662
					C2461.067,1426.395,2474.458,1443.262,2474.458,1443.262z"/>
			</g>
		</g>
		<path style="fill:#9FC1F4;" d="M2460.006,1592.646c-47.393,0-85.811-38.418-85.811-85.81h171.62
			C2545.815,1554.228,2507.397,1592.646,2460.006,1592.646z"/>
		
			<rect x="2372.244" y="1506.835" transform="matrix(-1 -1.224647e-16 1.224647e-16 -1 4920.8809 3016.3027)" style="fill:#77A4E5;" width="176.393" height="2.633"/>
		<path style="fill:#77A4E5;" d="M2496.652,1592.646h-80.344l0,0c0-3.8,3.081-6.881,6.882-6.881h66.579
			C2493.571,1585.765,2496.652,1588.846,2496.652,1592.646L2496.652,1592.646z"/>
	</g>
	<g>
		<path style="fill:#F77D48;" d="M1936.984,1016.516c-110.413,89.899-242.689,159.004-393.168,205.395
			c-122.226,37.669-257.646,60.755-402.513,68.617c-39.504,2.146-77.981,3.08-115.018,3.08c-74.892,0-143.945-3.806-204.13-9.105
			l24.353-115.205c82.981,6.762,182.09,10.309,289.164,4.501c136.331-7.385,263.298-28.968,377.352-64.116
			c137.243-42.315,257.282-104.833,356.753-185.845L1936.984,1016.516z"/>
	</g>
	<g>
		<path style="fill:#163560;" d="M1113.751,786.789c-15.354-7.965-27.657-2.959-27.657-2.959
			c-46.977-5.518-60.682,49.27-60.044,68.122c0.628,18.849,2.787,39.098-18.192,63.588c-60.602,70.741,66.318,73.861,66.318,73.861
			c1.072-56.52,68.825-35.897,65.855-30.17C1226.884,980.075,1148.667,804.904,1113.751,786.789z"/>
		<path style="fill:#FFB27D;" d="M932.535,1022.419c0,0-8.262-12.577-14.92-12.823c-6.659-0.247-18.989-3.699-18.003-1.233
			c0.987,2.466,8.633,2.713,9.371,4.192c0.74,1.479-11.343,3.699-14.796,3.945c-3.452,0.247-11.59,0-11.344,1.727
			c0.247,1.727,14.668,8.878,24.842,7.892c10.176-0.986,22.752,2.959,22.752,2.959L932.535,1022.419z"/>
		<path style="fill:#F99746;" d="M1052.015,1026.488c0,0-4.491,8.892-12.637,19.108c-9.817,12.296-24.954,26.501-43.96,29.305
			c-9.077,1.339-17.955-0.614-26.115-4.239c-0.021-0.008-0.029-0.008-0.029-0.008c-23.082-10.246-40.438-33.809-40.438-33.809
			c-4.067-11.098,2.59-18.621,2.59-18.621s46.608,10.482,51.047,8.264c4.439-2.22,30.333-76.814,36.495-86.188
			c6.17-9.373,27.181-14.241,27.181-14.241L1052.015,1026.488z"/>
		<path style="fill:#ED7D2B;" d="M1039.378,1045.597c-9.817,12.296-24.954,26.501-43.96,29.305
			c-9.077,1.339-17.955-0.614-26.115-4.239c0.902,0.118,23.956,2.966,33.145-13.473c9.373-16.771,19.508-43.404,33.432-34.527
			C1041.886,1026.495,1041.62,1036.016,1039.378,1045.597z"/>
		<path style="fill:#36599E;" d="M1225.9,1529.597c0,0,14.222,12.979,11.446,22.202c-2.774,9.221-15.608,15.369-17.343,26.64
			c-1.735,11.272-8.672,17.42-14.916,17.42c-6.243,0-29.768,0-29.768,0s-4.596-7.931,6.504-10.323
			c11.101-2.391,15.285-15.635,14.592-27.93c-0.693-12.297,1.04-28.691,1.04-28.691l23.588-5.465L1225.9,1529.597z"/>
		<path style="fill:#2B478B;" d="M1105.527,1535.107c0,0,5.115,54.983-1.128,58.057l-79.905-0.163c0,0,0-9.223,12.834-11.271
			c12.834-2.05,35.381-9.563,39.197-26.3C1080.341,1538.693,1105.527,1535.107,1105.527,1535.107z"/>
		<path style="fill:#FFB27D;" d="M1162.469,1140.646c-16.443-36.876-26.504-47.46-24.583-58.905
			c1.429-8.519-4.354-158.829-4.354-158.829c-1.95-0.604-5.861-1.146-7.999-1.622c-6.746-1.497-12.328-6.234-14.651-12.74
			c-2.799-7.838-5.023-19.412-4.972-33.914l-2.106,0.414l-35.416,7.013c0,0,0.806,11.146,0.829,21.646
			c0,0.087,0.001,0.174,0.001,0.261c0.044,9.119-5.938,17.168-14.7,19.697c-4.474,1.291-8.365,2.394-8.365,2.394
			s-13.006,37.129-15.489,75.272c-2.484,38.143,23.648,54.712-0.197,130.934C1006.121,1210.113,1171.553,1161.022,1162.469,1140.646
			z"/>
		<path style="fill:#E8945B;" d="M1068.387,882.062c0,0,0.806,11.146,0.829,21.646c19.819-0.56,30.295-18.639,34.587-28.659
			L1068.387,882.062z"/>
		<path style="fill:#FFB27D;" d="M1061.768,892.005c0,0,46.891,0.772,46.923-28.436c0.032-29.208,6.106-48.78-23.831-50.509
			c-29.937-1.729-35.766,9.41-38.147,19.156C1044.329,841.964,1049.572,891.051,1061.768,892.005z"/>
		<path style="fill:#163560;" d="M1063.504,812.346c0,0,12.839,34.267,32.541,39.334c19.703,5.065,28.249-0.213,28.249-0.213
			s-15.112-12.006-18.249-32.963C1106.045,818.504,1073.188,796.035,1063.504,812.346z"/>
		<path style="fill:#163560;" d="M1066.686,815.127c0,0-9.521,3.56-13.438,10.503c-3.832,6.79-7.096,15.782-6.339,26.814
			c0,0-9.673-23.292,1.198-36.467C1059.633,802.007,1066.686,815.127,1066.686,815.127z"/>
		<path style="fill:#EBF3FA;" d="M1071.971,873.884c0,0-3.235,4.258-9.709,3.951c-5.214-0.247-7.225-4.771-7.225-4.771
			S1064.614,870.762,1071.971,873.884z"/>
		<path style="fill:#F99746;" d="M1166.995,989.401c0,0,1.19,16.788,0,36.934c-0.793,13.354-14.3,31.239-16.217,35.664
			c-4.809,11.097-10.231,12.902-10.231,12.902l-41.955,10.282l-14.751,3.611l-46.52-13.894c0,0-21.188-59.141-12.681-92.433
			c8.509-33.291,21.507-56.41,21.507-56.41s37.959,37.168,87.386-3.151L1166.995,989.401z"/>
		<path style="fill:#233862;" d="M1040.28,1083.878c0,0-23.037,71.707-24.518,96.121c-1.479,24.413,44.038,346.818,45.869,358.067
			c1.727,10.604,14.894,17.363,14.894,17.363s6.056,3.572,14.699,1.132c11.991-3.386,15.781-7.439,15.781-7.439
			s17.932-229.938,6.836-312.076c-11.098-82.138-11.229-153.168-11.229-153.168H1040.28z"/>
		<path style="fill:#2B478B;" d="M1137.886,1081.74c0,0,35.141,47.15,38.416,79.023c3.276,31.873,5.14,143.83,12.119,174.903
			c6.979,31.071,32.623,90.866,32.623,187.782c0,0-2.666,5.555-10.896,8.514c-2.632,0.946-6.158,1.864-9.582,2.649
			c-6.787,1.556-13.751-1.761-16.848-7.998c-17.338-34.906-72.563-147.488-75.394-170.857
			c-2.004-16.539-19.441-125.995-57.477-190.223c-9.131-15.419,5.604-76.739,5.604-76.739L1137.886,1081.74z"/>
		<path style="fill:#FFFFFF;" d="M1070.929,874.666c0,0-0.811,3.441-9.374,2.911c0,0-7.188-0.445-6.969-4.227
			C1054.586,873.35,1061.556,870.658,1070.929,874.666z"/>
		<path style="fill:#233862;" d="M1036.6,1072.809c0,0,9.249,7.315,27.621,7.686c21.945,0.441,76.324-5.595,76.324-5.595
			s2.416,6.75,2.318,13.878c0,0-66.415,16.753-104.896,2.447C1037.968,1091.225,1033.005,1081.886,1036.6,1072.809z"/>
		<g>
			<path style="fill:#FFFFFF;" d="M1058.956,1099.405c-5.521,0-10.014-5.084-10.014-11.334c0-6.249,4.492-11.333,10.014-11.333
				s10.014,5.084,10.014,11.333C1068.97,1094.321,1064.478,1099.405,1058.956,1099.405z M1058.956,1080.058
				c-3.691,0-6.695,3.595-6.695,8.014c0,4.42,3.004,8.016,6.695,8.016c3.69,0,6.695-3.596,6.695-8.016
				C1065.651,1083.652,1062.646,1080.058,1058.956,1080.058z"/>
		</g>
		
			<rect x="1092.356" y="1007.084" transform="matrix(0.7542 -0.6567 0.6567 0.7542 -422.2593 1009.7406)" style="fill:#B5453C;" width="90.224" height="123.502"/>
		<path style="fill:#FFB27D;" d="M1125.197,1085.997c0,0-24.931,2.915-24.852,8.833c0.077,5.918,6.211,18.076,9.291,18.616
			c3.079,0.541,20.289-16.441,20.289-16.441L1125.197,1085.997z"/>
		<path style="fill:#F99746;" d="M1133.533,922.907c0,0,33.285,2.333,46.045,33.351c12.759,31.016,36.968,83.093,36.968,91.854
			c0,8.76-13.523,35.767-86.147,51.294c0,0-7.512-7.901-7.056-14.15c0,0,45.334-38.938,45.212-43.489
			c-0.23-8.609-7.432-19.974-47.233-59.788C1110.499,971.153,1133.533,922.907,1133.533,922.907z"/>
	</g>
	<g>
		<g>
			<g>
				<g>
					<path style="fill:#95C0F4;" d="M413.534,1595.784h-0.329c-1.938,0-3.496-1.595-3.451-3.532l5.234-226.864l15.418-1.799
						l-13.148,228.679C417.145,1594.241,415.511,1595.784,413.534,1595.784z"/>
				</g>
				<g>
					<path style="fill:#B0D4FF;" d="M661.464,1595.784h0.329c1.937,0,3.496-1.595,3.451-3.532l-5.234-226.864l-15.419-1.799
						l13.149,228.679C657.853,1594.241,659.487,1595.784,661.464,1595.784z"/>
				</g>
				<path style="fill:#B0D4FF;" d="M403.318,1351.317v-155.458c0-27.354,22.175-49.529,49.528-49.529h112.005
					c27.354,0,49.528,22.175,49.528,49.529v161.398L403.318,1351.317z"/>
				<path style="fill:#95C0F4;" d="M634.448,1375.86H418.189c-8.213,0-14.871-6.659-14.871-14.871v-9.672h231.13V1375.86z"/>
				<path style="fill:#B0D4FF;" d="M660.362,1375.86H496.755c-6.073,0-10.997-4.924-10.997-10.996v-2.55
					c0-6.073,4.924-10.997,10.997-10.997h163.607c6.073,0,10.997,4.924,10.997,10.997v2.55
					C671.359,1370.937,666.435,1375.86,660.362,1375.86z"/>
			</g>
			<g>
				<path style="fill:#233862;" d="M654.011,1312.582c-16.046,27.926-36.227,38.706-36.227,38.706h-83.959
					C533.824,1351.288,666.251,1291.277,654.011,1312.582z"/>
				<g>
					<path style="fill:#FFB27D;" d="M589.527,1528.652c-2.188,2.508-2.467,5.311-1.384,8.302c0.001,0.013,0.008,0.03,0.021,0.042
						c2.003,5.533,8.618,11.713,16.303,17.884c0.983,0.794,1.856,1.514,2.616,2.182c0.2,0.175,0.401,0.351,0.588,0.526
						c0.154,0.136,0.304,0.277,0.453,0.408c7.165,6.605,4.469,8.119,17.343,21.523c14.68,15.273,24.786,15.549,27.661,14.158
						c2.434-1.188-2.509-9.288-7.985-18.393c-0.266-0.438-0.525-0.883-0.798-1.328c-0.729-1.21-1.453-2.438-2.178-3.655
						c-6.417-10.958-4.769-16.101-3.248-32.407c1.236-13.252,20.617-74.035,20.617-74.035l-28.132-4.847
						c0,0-8.473,48.402-17.807,55.855c-4.99,3.973-10.578,4.023-15.375,6.968c-0.34,0.205-0.672,0.416-0.999,0.631
						C594.498,1524.273,591.721,1526.139,589.527,1528.652z"/>
					<path style="fill:#233862;" d="M589.527,1528.652c-2.188,2.508-2.467,5.311-1.384,8.302c0.001,0.013,0.008,0.03,0.021,0.042
						c2.452,5.527,8.901,11.677,16.33,17.827c0.97,0.806,1.827,1.546,2.589,2.238c0.2,0.175,0.401,0.351,0.588,0.526
						c0.154,0.136,0.304,0.277,0.453,0.408c7.165,6.605,4.469,8.119,17.343,21.523c14.68,15.273,24.786,15.549,27.661,14.158
						c2.434-1.188-2.509-9.288-7.985-18.393c-2.857-1.047-16.131-6.439-26.168-19.281c-8.839-11.28-14.733-25.772-20.752-34.168
						c-0.34,0.205-0.672,0.416-0.999,0.631C594.498,1524.273,591.721,1526.139,589.527,1528.652z"/>
					<path style="fill:#FFB27D;" d="M816.365,1511.083c1.736,8.684,14.114,7.235,27.943,3.856
						c13.828-3.381,10.542,0.638,30.224-1.541c19.682-2.179,25.644-9.519,26.244-12.444c0.538-2.597-9.188-3.512-19.619-4.714
						c-1.312-0.146-2.629-0.31-3.946-0.472c-11.777-1.479-20.401-9.077-31.101-15.318c-10.132-5.912-25.253-29.998-25.253-29.998
						l-26.992,2.137c0,0,14.164,21.514,19.643,30.867c3.223,5.502,3.052,12.776,2.649,18.394
						C815.948,1504.903,815.749,1508.024,816.365,1511.083z"/>
					<path style="fill:#233862;" d="M844.309,1514.939c13.828-3.381,10.542,0.638,30.224-1.541
						c19.682-2.179,25.644-9.519,26.244-12.444c0.538-2.597-9.188-3.512-19.619-4.714l-0.098,0.2c0,0-11.803,8.369-28.186,8.762
						c-13.353,0.324-27.496-3.502-36.717-3.353c-0.209,3.054-0.408,6.175,0.208,9.233
						C818.102,1519.767,830.479,1518.318,844.309,1514.939z"/>
					<path style="fill:#233862;" d="M712.927,1338.493l-25.232,67.896l-32.941,88.653c0,0-8.939,0.862-17.5-1.599
						c-7.882-2.278-16.926-8.239-16.926-8.239s9.146-95.188,26.21-149.83c4.373-14.025,9.273-25.37,14.683-31.757
						C687.671,1272.357,712.927,1338.493,712.927,1338.493z"/>
					<path style="fill:#2B478B;" d="M687.272,1230.664c-16.53-5.332-63.678,1.515-111.039,10.786l-9.916-16.356l-102.298-7.989
						c0,0-33.757,74.859-15.276,122.559c2.717,7.011,8.114,11.507,17.314,11.654c0.003,0.005,1.49-0.004,1.495,0
						c0,0,60.885-0.035,80.655-0.035c50.874,0,107.667-34.971,115.013-36.44c12.027-2.405,16.836,21.646,28.862,46.899
						c12.024,25.252,113.037,111.836,113.037,111.836s15.525,0.153,21.94-2.252c6.896-2.587,9.42-5.946,9.42-5.946
						S724.551,1242.69,687.272,1230.664z"/>
					<path style="fill:#B5453C;" d="M562.293,927.221c-13.106-6.881-33.044-7.812-36.284-8.248
						c-38.764-5.21-62.095,51.119-63.467,68.188c-2.529,31.459-19.172,36.256-42.597,55.958
						c-46.97,39.505-33.196,85.411-7.513,102.467c15.409,10.235,42.571-0.001,42.571-0.001
						c0.385,0.269,74.284-41.312,110.713-61.369C620.327,1076.452,595.688,944.757,562.293,927.221z"/>
					<path style="fill:#FFB27D;" d="M535.183,1067.143c0.161,0.104-17.922,6.276-30.014,0.922
						c-11.376-5.027-19.993-23.743-19.824-23.753c5.175-0.239,10.855-4.763,15.23-34.448l2.204,0.791l37.049,13.331
						c0,0-2.685,11.888-4.421,23.206C533.946,1056.694,533.16,1065.799,535.183,1067.143z"/>
					<path style="fill:#ED975D;" d="M539.828,1023.985c0,0-2.685,11.888-4.421,23.206c-21.28-3.83-29.632-25.032-32.628-36.537
						L539.828,1023.985z"/>
					<path style="fill:#FFB27D;" d="M545.346,1035.784c0,0-50.69-6.804-45.967-38.306c4.722-31.502,1.36-53.596,33.925-50.584
						c32.563,3.013,37.035,15.974,38.017,26.871C572.301,984.664,558.653,1036.742,545.346,1035.784z"/>
					<path style="fill:#B5453C;" d="M569.473,956.498c0,0-32.449,27.964-54.521,30.218c-22.072,2.255-30.429-4.829-30.429-4.829
						s13.011-10.803,20.839-28.234c2.308-5.139,7.183-8.665,12.794-9.149C533.918,943.143,563.795,942.523,569.473,956.498z"/>
					<path style="fill:#B5453C;" d="M549.188,953.994c0,0,10.856,10.496,14.274,18.281c3.3,7.513,4.289,25.481,1.662,32.617
						c0,0,16.913-32.888,7.338-48.866C562.308,939.083,549.188,953.994,549.188,953.994z"/>
					<path style="fill:#8C9DF4;" d="M577.868,1141.813c-1.533,102.608-0.422,81.168-11.646,90.904
						c-2.705,2.344-10.308,3.742-20.314,4.402c-31.463,2.089-86.772-3.096-88.875-8.91c-7.258-20.119-2.134-26.369-8.189-57.171
						c-0.631-3.276-1.412-6.822-2.329-10.684c-5.048-21.156-9.962-28.353,7.948-62.341c16.243-30.787,33.116-55.774,34.634-54.873
						c42.852,25.438,46.31,4.057,46.31,4.057S578.619,1091.764,577.868,1141.813z"/>
					<path style="fill:#2B478B;" d="M687.694,1406.39l-32.941,88.653c0,0-8.939,0.862-17.5-1.599
						c-7.882-2.278-16.926-8.239-16.926-8.239s9.146-95.188,26.21-149.83L687.694,1406.39z"/>
					<path style="fill:#8C9DF4;" d="M535.407,1047.191c0,0,44.094,7.476,49.272,26.46c5.178,18.985,35.648,130.593,35.648,130.593
						s-22.416,4.027-32.771-6.328c-10.355-10.355-36.032-96.074-36.032-96.074L535.407,1047.191z"/>
					<path style="fill:#6980E2;" d="M545.908,1237.119c-31.463,2.089-86.772-3.096-88.875-8.91
						c-7.258-20.119-2.134-26.369-8.189-57.171l15.176-42.733c0,0-2.51,47.586,11.524,60.102
						c14.019,12.517,57.458,24.161,64.278,34.619C543.113,1228.044,545.278,1233.078,545.908,1237.119z"/>
					<path style="fill:#FFB27D;" d="M509.859,1217.104c0,0,31.04-6.911,36.049-4.156c5.008,2.755,17.249,12.786,18.781,16.278
						c1.533,3.49-11.149-2.65-15.275-3.757c-2.672-0.717-9.705,1.727-13.186,2.888c-14.649,4.883-23.627,2.371-23.627,2.371
						L509.859,1217.104z"/>
					<path style="fill:#8C9DF4;" d="M489.07,1043.118c0,0-41.679,2.567-56.107,22.691c-20.31,28.327-60.601,149.055-37.51,165.156
						c26.004,18.133,118.352,4.743,118.352,4.743s3.073-14.364-1.203-21.313c-4.275-6.948-73.759-18.173-76.966-21.379
						c-3.207-3.207,40.087-62.535,40.087-72.155C475.723,1111.24,489.07,1043.118,489.07,1043.118z"/>
					<path style="fill:#FFB27D;" d="M547.411,1221.588c0,0,6.504,8.39,8.636,9.391c2.133,1.002,3.509,0.752,3.509,0.752
						l-4.383-7.889L547.411,1221.588z"/>
					<path style="fill:#FFB27D;" d="M545.908,1212.948l18.91,9.183c0,0-0.805,1.316-3.133,1.211
						c-2.329-0.107-8.201-2.255-8.201-2.255L545.908,1212.948z"/>
				</g>
				<g>
					<g>
						<polygon style="fill:#F77D48;" points="549.207,1243.83 708.741,1243.83 756.732,1131.937 597.443,1131.937 						"/>
						<polygon style="fill:#F77D48;" points="710.61,1236.58 499.944,1236.58 499.944,1243.647 708.741,1243.647 						"/>
					</g>
					<path style="fill:#EBF3FA;" d="M668.469,1187.884c1.203-3.934-1.223-7.122-5.417-7.122c-4.195,0-8.57,3.188-9.774,7.122
						c-1.202,3.933,1.224,7.122,5.418,7.122C662.891,1195.006,667.266,1191.816,668.469,1187.884z"/>
				</g>
			</g>
		</g>
		<g>
			<g>
				<path style="fill:#233862;" d="M944.627,1598.902h0.435c2.563,0,4.624-2.327,4.565-5.153l-6.923-331.014l-20.39-2.625
					l17.389,333.662C939.852,1596.652,942.014,1598.902,944.627,1598.902z"/>
			</g>
			<g>
				<path style="fill:#233862;" d="M514.815,1598.902h-0.435c-2.562,0-4.624-2.327-4.564-5.153l6.922-331.014l20.391-2.625
					l-17.389,333.662C519.591,1596.652,517.43,1598.902,514.815,1598.902z"/>
			</g>
			<path style="fill:#233862;" d="M952.656,1267.517H488.175c-4.103,0-7.43-3.327-7.43-7.431v-8.825c0-4.104,3.326-7.431,7.43-7.431
				h464.482c4.104,0,7.43,3.327,7.43,7.431v8.825C960.086,1264.189,956.761,1267.517,952.656,1267.517z"/>
		</g>
	</g>
	<path style="fill:#2E3552;" d="M2650.615,1603.415H132.82c-1.995,0-3.628-1.632-3.628-3.628v-3.514
		c0-1.995,1.633-3.628,3.628-3.628h2517.795c1.995,0,3.628,1.633,3.628,3.628v3.514
		C2654.243,1601.783,2652.61,1603.415,2650.615,1603.415z"/>
</g>
</svg>
