<?xml version="1.0" encoding="utf-8"?>
<!-- Generator: Adobe Illustrator 27.5.0, SVG Export Plug-In . SVG Version: 6.00 Build 0)  -->
<svg version="1.1" xmlns="http://www.w3.org/2000/svg" xmlns:xlink="http://www.w3.org/1999/xlink" x="0px" y="0px"
	 viewBox="0 0 3710 3710" style="enable-background:new 0 0 3710 3710;" xml:space="preserve">
<g id="Background">
	<g>
		<g>
			<rect style="fill:#FFFFFF;" width="3710" height="3710"/>
		</g>
	</g>
</g>
<g id="Illustration">
	<g>
		<linearGradient id="SVGID_1_" gradientUnits="userSpaceOnUse" x1="3548.6306" y1="4022.6826" x2="1097.5049" y2="978.5383">
			<stop  offset="0" style="stop-color:#DAE3FE"/>
			<stop  offset="1" style="stop-color:#E9EFFD"/>
		</linearGradient>
		<path style="fill:url(#SVGID_1_);" d="M2874.31,2822.182c-56.301,59.272-109.573,97.495-151.662,127.695
			c-494.748,354.988-1080.167,251.51-1204.585,226.24c-183.726-37.316-538.865-109.447-795.624-411.39
			c-388.455-456.815-327.967-1176.515-26.655-1651.599c55.115-86.901,346.247-569.221,937.971-646.57
			c358.105-46.811,775.541,47.601,1077.836,300.864C3346.135,1299.045,3300.962,2373.017,2874.31,2822.182z"/>
		<g>
			<g>
				<g>
					<path style="fill:#91B3FA;" d="M1233.333,634.83c-1.181,0.082-2.381-0.407-3.161-1.414c-2.954-3.815-6.035-7.6-9.156-11.252
						c-1.318-1.541-1.137-3.858,0.406-5.176c1.541-1.314,3.86-1.133,5.177,0.404c3.197,3.741,6.353,7.617,9.38,11.525
						c1.241,1.604,0.948,3.91-0.654,5.153C1234.729,634.533,1234.035,634.782,1233.333,634.83z"/>
					<path style="fill:#91B3FA;" d="M1010.429,1132.646c-5.546,0.451-11.278,0.631-16.868,0.719
						c-2.029,0.028-3.697-1.589-3.728-3.618c-0.03-2.029,1.607-3.648,3.616-3.729c5.457-0.079,11.09-0.345,16.472-0.699
						c3.987-0.275,8.055-0.642,12.097-1.087c2.043-0.375,3.831,1.231,4.052,3.247c0.224,2.016-1.231,3.831-3.247,4.053
						C1018.683,1131.99,1014.514,1132.364,1010.429,1132.646z M1068.907,1122.821c-1.717,0.119-3.332-0.988-3.796-2.711
						c-0.525-1.959,0.635-3.973,2.594-4.5c8.899-2.39,17.825-5.228,26.529-8.428l0.757-0.279c1.898-0.699,4.013,0.277,4.714,2.177
						c0.701,1.903-0.274,4.016-2.178,4.716l-0.757,0.279c-8.91,3.279-18.047,6.181-27.158,8.63
						C1069.376,1122.768,1069.14,1122.805,1068.907,1122.821z M1139.261,1094.386c-1.377,0.095-2.751-0.594-3.466-1.882
						c-0.983-1.773-0.343-4.01,1.429-4.991c8.337-4.627,16.529-9.69,24.35-15.047c1.672-1.14,3.96-0.719,5.104,0.956
						c1.147,1.672,0.719,3.959-0.954,5.106c-8.01,5.485-16.4,10.669-24.936,15.403
						C1140.302,1094.203,1139.782,1094.35,1139.261,1094.386z M1200.552,1049.692c-1.061,0.073-2.146-0.312-2.932-1.149
						c-1.389-1.479-1.316-3.802,0.163-5.191c6.922-6.503,13.62-13.414,19.91-20.549c1.34-1.52,3.66-1.662,5.183-0.325
						c1.522,1.344,1.667,3.663,0.326,5.186c-6.439,7.303-13.3,14.381-20.389,21.042
						C1202.17,1049.307,1201.368,1049.636,1200.552,1049.692z M1249.032,991.348c-0.761,0.052-1.542-0.131-2.232-0.572
						c-1.708-1.097-2.203-3.367-1.107-5.075c5.128-7.993,9.945-16.331,14.316-24.786c0.929-1.8,3.143-2.51,4.949-1.575
						c1.801,0.932,2.507,3.148,1.575,4.949c-4.475,8.656-9.407,17.193-14.66,25.378
						C1251.22,990.683,1250.151,991.271,1249.032,991.348z M1281.905,922.956c-0.469,0.032-0.953-0.024-1.426-0.185
						c-1.923-0.647-2.953-2.733-2.306-4.654c3.046-9.014,5.698-18.274,7.884-27.52c0.467-1.977,2.451-3.189,4.418-2.728
						c1.975,0.467,3.196,2.447,2.73,4.42c-2.239,9.465-4.954,18.949-8.072,28.18C1284.644,921.915,1283.34,922.857,1281.905,922.956
						z M1297.2,848.634c-0.181,0.013-0.364,0.011-0.55-0.001c-2.021-0.162-3.531-1.931-3.37-3.952
						c0.755-9.496,1.066-19.126,0.927-28.618c-0.03-2.029,1.589-3.758,3.618-3.726c2.027-0.032,3.695,1.589,3.726,3.614
						c0.143,9.725-0.176,19.586-0.948,29.31C1300.457,847.097,1298.984,848.511,1297.2,848.634z M1293.822,772.801
						c-1.86,0.128-3.55-1.171-3.87-3.047c-1.592-9.37-3.651-18.779-6.119-27.969c-0.525-1.959,0.635-3.973,2.594-4.5
						c1.966-0.531,3.975,0.638,4.5,2.594c2.526,9.413,4.635,19.049,6.266,28.643c0.339,2-1.005,3.898-3.006,4.237
						C1294.064,772.777,1293.943,772.793,1293.822,772.801z M1272.058,700.088c-1.505,0.104-2.977-0.729-3.617-2.191
						c-3.828-8.74-8.098-17.372-12.689-25.661c-0.982-1.773-0.341-4.006,1.433-4.991c1.77-0.974,4.01-0.345,4.994,1.435
						c4.7,8.483,9.07,17.323,12.99,26.273c0.813,1.856-0.034,4.021-1.891,4.836C1272.879,699.964,1272.467,700.06,1272.058,700.088z
						"/>
					<path style="fill:#91B3FA;" d="M946.629,1130.443c-0.25,0.017-0.506,0.01-0.766-0.026c-4.868-0.681-9.798-1.488-14.655-2.4
						c-1.994-0.373-3.307-2.292-2.933-4.287c0.373-1.996,2.292-3.329,4.286-2.931c4.745,0.891,9.563,1.68,14.32,2.344
						c2.008,0.282,3.408,2.137,3.128,4.144C949.766,1129.037,948.325,1130.326,946.629,1130.443z"/>
				</g>
				<g>
					<path style="fill:#91B3FA;" d="M737.888,1004.487c-1.229,0.085-2.47-0.448-3.242-1.523c-2.85-3.977-5.664-8.107-8.366-12.281
						c-1.103-1.703-0.614-3.977,1.087-5.079c1.709-1.103,3.977-0.612,5.079,1.087c2.638,4.078,5.386,8.112,8.17,11.993
						c1.182,1.648,0.803,3.942-0.845,5.124C739.198,1004.22,738.544,1004.441,737.888,1004.487z"/>
					<path style="fill:#91B3FA;" d="M707.47,951.697c-1.488,0.103-2.95-0.713-3.6-2.153c-3.09-6.847-5.976-13.902-8.576-20.963
						c-0.715-1.946-1.408-3.889-2.083-5.834c-0.664-1.917,0.352-4.008,2.268-4.672c1.927-0.672,4.009,0.352,4.673,2.266
						c0.658,1.903,1.337,3.805,2.035,5.705c2.539,6.896,5.359,13.786,8.377,20.477c0.834,1.848,0.012,4.026-1.836,4.858
						C708.318,951.567,707.894,951.668,707.47,951.697z M685.079,880.462c-1.836,0.127-3.514-1.141-3.857-2.99
						c-1.754-9.42-3.086-19.034-3.959-28.575c-0.186-2.018,1.301-3.807,3.321-3.993c1.949-0.153,3.809,1.301,3.992,3.323
						c0.854,9.32,2.154,18.706,3.865,27.899c0.371,1.995-0.943,3.911-2.938,4.283C685.362,880.436,685.221,880.453,685.079,880.462z
						 M680.453,805.923c-0.157,0.011-0.317,0.011-0.478,0.004c-2.025-0.123-3.567-1.864-3.446-3.889
						c0.573-9.562,1.602-19.214,3.058-28.678c0.307-2.006,2.195-3.376,4.188-3.072c2.004,0.308,3.381,2.183,3.072,4.188
						c-1.422,9.243-2.427,18.663-2.986,28.005C683.748,804.344,682.267,805.798,680.453,805.923z M693.909,732.48
						c-0.444,0.031-0.898-0.017-1.346-0.159c-1.936-0.603-3.017-2.66-2.413-4.596c2.852-9.148,6.162-18.267,9.839-27.108
						c0.777-1.873,2.922-2.768,4.801-1.982c1.872,0.777,2.76,2.926,1.979,4.799c-3.59,8.635-6.822,17.543-9.606,26.474
						C696.698,731.396,695.374,732.379,693.909,732.48z M724.527,664.387c-0.726,0.05-1.475-0.114-2.146-0.52
						c-1.737-1.049-2.295-3.303-1.247-5.04c4.942-8.192,10.331-16.257,16.015-23.976c1.201-1.629,3.499-1.981,5.134-0.778
						c1.634,1.203,1.981,3.501,0.779,5.137c-5.549,7.537-10.813,15.413-15.641,23.411
						C726.78,663.685,725.681,664.307,724.527,664.387z M770.527,605.596c-1.023,0.071-2.069-0.285-2.851-1.065
						c-1.435-1.436-1.435-3.762-0.001-5.195c6.759-6.764,13.925-13.298,21.299-19.423c1.562-1.294,3.876-1.08,5.172,0.48
						c1.295,1.557,1.082,3.873-0.479,5.17c-7.201,5.979-14.198,12.361-20.799,18.964
						C772.216,605.181,771.38,605.537,770.527,605.596z M829.316,559.611c-1.333,0.092-2.667-0.546-3.402-1.771
						c-1.046-1.736-0.486-3.993,1.252-5.04c8.202-4.938,16.736-9.549,25.363-13.715c1.832-0.885,4.022-0.112,4.903,1.714
						c0.883,1.826,0.116,4.022-1.71,4.903c-8.426,4.065-16.759,8.57-24.768,13.393C830.438,559.404,829.878,559.573,829.316,559.611
						z M897.44,529.08c-1.658,0.114-3.239-0.916-3.756-2.573c-0.603-1.936,0.479-3.995,2.416-4.596
						c9.148-2.849,18.537-5.306,27.902-7.304c1.969-0.409,3.934,0.843,4.358,2.827c0.423,1.984-0.843,3.933-2.827,4.358
						c-9.145,1.951-18.316,4.348-27.253,7.129C898.003,529.008,897.721,529.06,897.44,529.08z M999.399,515.301
						c-0.125,0.009-0.253,0.01-0.381,0.008c-9.363-0.32-18.838-0.202-28.161,0.352c-2.024,0.118-3.763-1.422-3.883-3.449
						c-0.119-2.012,1.406-3.742,3.413-3.881c0.011-0.001,0.023-0.002,0.023-0.002c9.563-0.567,19.268-0.687,28.856-0.363
						c2.027,0.072,3.615,1.771,3.546,3.796C1002.748,513.66,1001.254,515.173,999.399,515.301z"/>
					<path style="fill:#91B3FA;" d="M1059.941,523.416c-0.361,0.025-0.732-0.004-1.103-0.089c-4.667-1.109-9.441-2.12-14.186-3.008
						c-1.994-0.372-3.307-2.291-2.934-4.284c0.371-1.992,2.292-3.329,4.284-2.934c4.86,0.908,9.75,1.944,14.532,3.077
						c1.973,0.468,3.194,2.447,2.726,4.42C1062.879,522.203,1061.503,523.308,1059.941,523.416z"/>
				</g>
				<g>
					<path style="fill:#91B3FA;" d="M1071.942,598.213c-1.414-0.709-3.124-0.443-4.255,0.663l-32.284,31.558
						c-20.506-4.902-41.94-6.57-63.548-4.606l-27.403-35.841c-0.961-1.258-2.614-1.766-4.116-1.267l-51.391,17.069
						c-1.502,0.499-2.522,1.896-2.54,3.477l-0.513,45.114c-18.488,11.356-34.666,25.515-48.164,41.711l-44.749-5.971
						c-1.569-0.209-3.097,0.6-3.806,2.014l-24.269,48.409c-0.71,1.416-0.443,3.125,0.663,4.256l31.558,32.284
						c-4.902,20.505-6.568,41.94-4.605,63.548l-35.842,27.403c-1.257,0.961-1.766,2.614-1.268,4.116l17.07,51.392
						c0.499,1.502,1.895,2.521,3.478,2.539l45.114,0.513c11.356,18.488,25.515,34.666,41.711,48.164l-5.972,44.75
						c-0.209,1.568,0.6,3.097,2.014,3.806l48.409,24.269c1.415,0.71,3.124,0.443,4.256-0.663l32.284-31.558
						c20.505,4.902,41.94,6.569,63.548,4.606l27.403,35.842c0.961,1.257,2.614,1.766,4.115,1.267l51.393-17.07
						c1.501-0.499,2.521-1.896,2.539-3.478l0.513-45.114c18.489-11.354,34.667-25.515,48.164-41.712l44.749,5.971
						c1.568,0.211,3.098-0.6,3.807-2.014l24.269-48.409c0.708-1.415,0.443-3.124-0.663-4.255l-31.557-32.283
						c4.902-20.506,6.568-41.94,4.605-63.548l35.842-27.403c1.256-0.96,1.766-2.614,1.267-4.115l-17.07-51.391
						c-0.499-1.502-1.895-2.522-3.477-2.541l-45.114-0.513c-11.356-18.488-25.516-34.665-41.711-48.163l5.971-44.749
						c0.209-1.569-0.599-3.097-2.014-3.807L1071.942,598.213z"/>
					<g>
						<path style="fill:#BDD0FB;" d="M993.353,876.382c-5.072,0.35-10.224-0.028-15.327-1.153
							c-13.978-3.09-25.916-11.436-33.615-23.505c-7.701-12.068-10.242-26.412-7.154-40.39
							c3.088-13.977,11.434-25.914,23.503-33.616c12.067-7.699,26.413-10.235,40.39-7.152c13.978,3.09,25.917,11.436,33.616,23.504
							c7.701,12.068,10.241,26.412,7.153,40.39c-3.088,13.978-11.435,25.914-23.503,33.616
							C1010.755,872.966,1002.174,875.773,993.353,876.382z M986.597,780.407c-7.007,0.484-13.823,2.716-19.911,6.602
							c-19.79,12.625-25.615,39-12.988,58.791c6.117,9.586,15.601,16.218,26.706,18.672c11.107,2.454,22.501,0.438,32.087-5.684
							c9.587-6.115,16.218-15.599,18.672-26.704c2.453-11.105,0.434-22.501-5.682-32.087c-6.119-9.585-15.603-16.217-26.708-18.672
							C994.719,780.429,990.625,780.129,986.597,780.407z"/>
					</g>
					<path style="fill:#BDD0FB;" d="M998.307,959.889c-24.003,1.657-48.104-3.121-70.178-14.19
						c-32.515-16.301-56.737-44.29-68.202-78.806c-3.684-11.091-5.909-22.43-6.693-33.789c-1.655-24,3.127-48.095,14.191-70.165
						c16.301-32.515,44.29-56.739,78.81-68.206c0.902-0.296,1.805-0.589,2.712-0.867c7.448-2.304,15.074-3.97,22.739-4.97
						c0.956-0.127,1.914-0.24,2.87-0.345l1.191,10.954c-8.792,0.956-17.553,2.869-26.04,5.687l0,0
						c-30.038,9.975-54.695,30.464-69.95,57.978c-0.858,1.547-1.686,3.118-2.482,4.708c-10.17,20.283-14.563,42.429-13.043,64.486
						c0.719,10.444,2.765,20.864,6.15,31.055c10.537,31.727,32.8,57.453,62.686,72.433c29.885,14.987,63.818,17.433,95.544,6.892
						c55.293-18.365,89.268-71.818,85.419-127.43c-0.708-10.261-2.707-20.595-6.094-30.796
						c-7.152-21.532-19.978-40.688-37.089-55.399l7.181-8.354c18.626,16.009,32.582,36.855,40.363,60.277
						c3.687,11.102,5.86,22.344,6.632,33.509c4.186,60.51-32.78,118.667-92.94,138.651
						C1020.999,956.881,1009.663,959.105,998.307,959.889z"/>
				</g>
			</g>
			<g>
				<g>
					<path style="fill:#91B3FA;" d="M901.278,1102.982c-1.514,0.104-3.046-0.559-3.984-1.893
						c-3.365-4.771-6.986-9.432-10.765-13.853c-1.612-1.885-1.39-4.718,0.497-6.33c1.885-1.607,4.721-1.385,6.332,0.495
						c3.958,4.629,7.753,9.516,11.277,14.513c1.43,2.029,0.944,4.828-1.083,6.26C902.856,1102.662,902.07,1102.928,901.278,1102.982
						z"/>
					<path style="fill:#91B3FA;" d="M783.756,1404.731c-2.186,0.151-4.21-1.318-4.69-3.523c-0.53-2.425,1.006-4.818,3.43-5.345
						c8.515-1.859,17.022-4.341,25.289-7.387c2.918-1.072,5.79-2.211,8.62-3.404c2.285-0.971,4.92,0.1,5.887,2.385
						c0.967,2.286-0.102,4.918-2.388,5.885c-2.958,1.255-5.963,2.438-9.015,3.564c-8.652,3.187-17.56,5.789-26.476,7.732
						C784.193,1404.688,783.973,1404.716,783.756,1404.731z M868.681,1362.685c-1.372,0.095-2.769-0.437-3.728-1.563
						c-1.612-1.889-1.388-4.723,0.499-6.335c8.999-7.682,17.325-16.272,24.742-25.528c1.55-1.936,4.373-2.25,6.314-0.695
						c1.936,1.55,2.247,4.377,0.695,6.314c-7.77,9.694-16.489,18.689-25.92,26.744
						C870.523,1362.272,869.607,1362.621,868.681,1362.685z M923.519,1285.433c-0.641,0.044-1.3-0.047-1.939-0.297
						c-2.311-0.9-3.454-3.503-2.552-5.817c4.311-11.056,7.598-22.564,9.771-34.207c0.458-2.437,2.789-4.057,5.241-3.589
						c2.439,0.456,4.045,2.798,3.591,5.239c-2.278,12.191-5.722,24.242-10.236,35.822
						C926.744,1284.256,925.199,1285.317,923.519,1285.433z M935.367,1191.422c-2.365,0.163-4.471-1.551-4.763-3.932
						c-1.443-11.732-4.015-23.42-7.643-34.741c-0.757-2.366,0.546-4.891,2.907-5.648c2.354-0.778,4.891,0.542,5.648,2.903
						c3.799,11.859,6.491,24.102,8.003,36.387c0.304,2.463-1.447,4.703-3.908,5.009
						C935.529,1191.411,935.448,1191.416,935.367,1191.422z"/>
					<path style="fill:#91B3FA;" d="M724.639,1408.328c-0.238,0.016-0.485,0.016-0.732-0.007c-6.087-0.569-12.207-1.43-18.192-2.56
						c-2.439-0.461-4.041-2.808-3.583-5.248c0.461-2.433,2.808-4.032,5.246-3.581c5.713,1.079,11.553,1.902,17.366,2.442
						c2.469,0.234,4.285,2.421,4.053,4.89C728.589,1406.486,726.796,1408.179,724.639,1408.328z"/>
				</g>
				<g>
					<path style="fill:#91B3FA;" d="M584.82,1328.19c-1.503,0.104-3.021-0.548-3.964-1.863c-3.544-4.948-6.91-10.137-9.999-15.428
						c-1.251-2.138-0.529-4.892,1.612-6.143c2.14-1.251,4.892-0.527,6.143,1.616c2.949,5.046,6.162,9.999,9.545,14.72
						c1.445,2.015,0.982,4.821-1.033,6.266C586.423,1327.864,585.623,1328.135,584.82,1328.19z"/>
					<path style="fill:#91B3FA;" d="M553.517,1259.176c-2.157,0.149-4.166-1.282-4.677-3.454c-2.44-10.375-4.05-21.021-4.783-31.646
						c-0.107-1.553-0.197-3.108-0.265-4.66c-0.109-2.476,1.892-4.435,4.286-4.688c2.479-0.109,4.576,1.812,4.686,4.289
						c0.067,1.481,0.151,2.957,0.253,4.441c0.7,10.143,2.237,20.307,4.565,30.21c0.569,2.414-0.928,4.83-3.344,5.401
						C553.999,1259.125,553.755,1259.159,553.517,1259.176z M554.704,1165.98c-0.475,0.033-0.961-0.008-1.447-0.138
						c-2.4-0.625-3.835-3.081-3.208-5.481c3.088-11.798,7.289-23.378,12.484-34.429c1.057-2.241,3.729-3.203,5.976-2.149
						c2.245,1.054,3.21,3.731,2.154,5.976c-4.963,10.547-8.974,21.613-11.922,32.878
						C558.239,1164.548,556.575,1165.85,554.704,1165.98z M599.146,1084.064c-1.179,0.081-2.39-0.301-3.333-1.159
						c-1.835-1.672-1.967-4.511-0.295-6.345c8.215-9.017,17.322-17.323,27.071-24.682c1.979-1.491,4.796-1.097,6.291,0.88
						c1.493,1.981,1.1,4.795-0.88,6.291c-9.306,7.026-18,14.951-25.843,23.56C601.347,1083.499,600.26,1083.987,599.146,1084.064z
						 M676.654,1032.343c-1.951,0.135-3.834-1.023-4.532-2.954c-0.843-2.333,0.367-4.91,2.7-5.752
						c11.526-4.164,23.45-7.273,35.442-9.244c2.486-0.51,4.758,1.25,5.162,3.702c0.402,2.448-1.255,4.756-3.702,5.158
						c-11.452,1.885-22.841,4.856-33.852,8.835C677.471,1032.234,677.061,1032.315,676.654,1032.343z"/>
					<path style="fill:#91B3FA;" d="M787.149,1025.96c-0.442,0.031-0.895-0.004-1.348-0.109c-5.67-1.345-11.468-2.44-17.232-3.247
						c-2.455-0.345-4.168-2.618-3.823-5.073c0.345-2.455,2.609-4.172,5.073-3.824c6.038,0.849,12.114,1.991,18.056,3.401
						c2.413,0.572,3.906,2.992,3.332,5.406C790.742,1024.476,789.057,1025.828,787.149,1025.96z"/>
				</g>
				<g>
					<path style="fill:#91B3FA;" d="M794.535,1070.771c-0.889-0.446-1.962-0.279-2.673,0.416l-20.282,19.827
						c-12.882-3.08-26.349-4.127-39.924-2.894l-17.216-22.517c-0.604-0.79-1.642-1.109-2.586-0.796l-32.286,10.723
						c-0.944,0.314-1.584,1.192-1.596,2.185l-0.322,28.343c-11.615,7.134-21.779,16.03-30.259,26.205l-28.114-3.751
						c-0.986-0.131-1.945,0.377-2.391,1.266l-15.247,30.413c-0.446,0.889-0.278,1.963,0.417,2.673l19.826,20.282
						c-3.08,12.883-4.126,26.349-2.893,39.924l-22.518,17.216c-0.79,0.604-1.109,1.642-0.796,2.586l10.724,32.287
						c0.313,0.944,1.19,1.584,2.185,1.595l28.342,0.322c7.134,11.615,16.029,21.779,26.205,30.259l-3.752,28.114
						c-0.131,0.985,0.377,1.946,1.265,2.391l30.413,15.247c0.889,0.446,1.963,0.278,2.674-0.417l20.282-19.826
						c12.882,3.08,26.349,4.127,39.924,2.894l17.216,22.518c0.604,0.789,1.642,1.109,2.586,0.796l32.287-10.724
						c0.943-0.313,1.584-1.192,1.595-2.185l0.323-28.343c11.615-7.134,21.779-16.03,30.259-26.205l28.113,3.752
						c0.986,0.132,1.946-0.377,2.392-1.266l15.247-30.413c0.445-0.888,0.278-1.962-0.417-2.673l-19.826-20.282
						c3.079-12.882,4.126-26.349,2.893-39.924l22.518-17.216c0.789-0.603,1.109-1.642,0.796-2.585l-10.724-32.286
						c-0.313-0.944-1.191-1.584-2.185-1.596l-28.342-0.322c-7.134-11.615-16.03-21.778-26.205-30.259l3.751-28.114
						c0.132-0.985-0.376-1.945-1.265-2.391L794.535,1070.771z"/>
					<g>
						<path style="fill:#BDD0FB;" d="M745.404,1248.773c-13.068,0.902-26.224-5.176-33.75-16.971
							c-10.959-17.172-5.902-40.058,11.268-51.021l0.002,0c17.173-10.955,40.063-5.896,51.017,11.272
							c10.959,17.172,5.902,40.058-11.268,51.022C757.296,1246.502,751.36,1248.362,745.404,1248.773z M730.174,1192.142
							c-10.911,6.961-14.123,21.503-7.162,32.414c6.963,10.906,21.5,14.123,32.413,7.158c10.909-6.961,14.121-21.502,7.16-32.413
							C755.624,1188.398,741.084,1185.177,730.174,1192.142L730.174,1192.142z"/>
					</g>
					<path style="fill:#BDD0FB;" d="M748.496,1301.261c-15.658,1.085-31.378-2.037-45.778-9.255
						c-21.211-10.635-37.01-28.889-44.489-51.406c-2.403-7.234-3.855-14.629-4.366-22.042c-1.078-15.652,2.04-31.369,9.259-45.765
						c10.633-21.213,28.891-37.013,51.408-44.494c6.013-1.998,12.228-3.354,18.473-4.032l1.452,13.397
						c-5.293,0.572-10.569,1.723-15.677,3.421c-18.271,6.071-33.234,18.597-42.396,35.417c-0.137,0.251-0.273,0.502-0.407,0.758
						c-0.276,0.52-0.546,1.04-0.811,1.569c-6.121,12.214-8.768,25.547-7.852,38.827c0.432,6.284,1.665,12.56,3.702,18.693
						c6.346,19.105,19.75,34.592,37.743,43.611c17.996,9.028,38.426,10.51,57.523,4.149c19.102-6.344,34.589-19.745,43.611-37.739
						c6.121-12.214,8.768-25.547,7.852-38.827c-0.432-6.283-1.665-12.56-3.702-18.694c-4.309-12.967-12.028-24.502-22.326-33.354
						l8.782-10.217c12.15,10.443,21.252,24.037,26.33,39.321c2.403,7.233,3.854,14.629,4.366,22.042
						c1.078,15.652-2.04,31.369-9.259,45.765c-10.633,21.213-28.891,37.013-51.408,44.494
						C763.297,1299.299,755.901,1300.75,748.496,1301.261z"/>
				</g>
			</g>
		</g>
		<g>
			<g>
				
					<linearGradient id="SVGID_00000147199895698442552780000017941115896416881809_" gradientUnits="userSpaceOnUse" x1="2617.1104" y1="293.7445" x2="1912.0361" y2="2605.5793">
					<stop  offset="0" style="stop-color:#FF928E"/>
					<stop  offset="1" style="stop-color:#FE7062"/>
				</linearGradient>
				<path style="fill:url(#SVGID_00000147199895698442552780000017941115896416881809_);" d="M1679.53,2307.138
					c3.045,0.515,6.094,1.023,9.152,1.507c462.068,73.065,896.527-246.386,970.392-713.514l-845.809-133.744L1679.53,2307.138z"/>
				
					<linearGradient id="SVGID_00000047739206644479516250000010741720000510248887_" gradientUnits="userSpaceOnUse" x1="1248.7277" y1="1883.5919" x2="1817.1967" y2="1883.5919">
					<stop  offset="0" style="stop-color:#FEBBBA"/>
					<stop  offset="1" style="stop-color:#FF928E"/>
				</linearGradient>
				<path style="fill:url(#SVGID_00000047739206644479516250000010741720000510248887_);" d="M1817.197,1460.348l-568.469,640.558
					c115.499,102.697,260.199,175.398,423.743,203.442c5.151,0.883,10.297,1.701,15.442,2.489L1817.197,1460.348z"/>
				<path style="fill:#91B3FA;" d="M1813.267,1461.376l-838.949-171.524c-1.074,5.263-2.118,10.539-3.099,15.843
					c-56.538,305.802,56.981,603.662,273.58,796.249L1813.267,1461.376z"/>
				
					<linearGradient id="SVGID_00000108275227072178964320000011310752045145238670_" gradientUnits="userSpaceOnUse" x1="2067.8186" y1="1775.9895" x2="2693.4094" y2="816.749">
					<stop  offset="0" style="stop-color:#4F52FF"/>
					<stop  offset="1" style="stop-color:#4042E2"/>
				</linearGradient>
				<path style="fill:url(#SVGID_00000108275227072178964320000011310752045145238670_);" d="M1917.813,1390.931l830.373,161.087
					c75.165-387.458-123.709-764.49-461.415-931.015l-372.179,763.472C1913.281,1387.162,1914.877,1390.361,1917.813,1390.931z"/>
				<path style="fill:#7D97F4;" d="M1816.374,1463.24l355.099-777.675c-67.678-32.19-128.174-50.124-205.521-63.911
					c-360.835-64.317-709.079,107.539-886.175,404.84L1816.374,1463.24z"/>
				<path style="fill:#BDD0FB;" d="M1080.171,1018.868c-49.613,81.731-86.226,173.148-106.495,271.938l0,0l838.769,172.405
					L1080.171,1018.868z"/>
			</g>
			<path style="fill:#91B3FA;" d="M1226.874,892.819c-1.738,0-3.476-0.664-4.8-1.993c-2.645-2.65-2.638-6.943,0.013-9.587
				c90.71-90.475,202.729-159.724,323.943-200.262c125.25-41.887,260.878-53.055,392.229-32.284
				c11.742,1.857,23.589,3.989,35.212,6.336c3.671,0.742,6.045,4.317,5.303,7.988c-0.741,3.666-4.327,6.046-7.984,5.303
				c-11.44-2.309-23.096-4.406-34.649-6.233c-256.803-40.615-520.154,44.91-704.48,228.753
				C1230.34,892.159,1228.605,892.819,1226.874,892.819z"/>
			<path style="fill:#FFFFFF;" d="M1241.946,2072.219c-1.678,0-3.36-0.619-4.671-1.867
				c-168.281-160.01-262.503-384.276-258.508-615.29c0.066-3.703,3.089-6.662,6.776-6.662c0.04,0,0.079,0,0.119,0.002
				c3.744,0.065,6.727,3.151,6.664,6.896c-3.933,227.228,88.754,447.826,254.29,605.229c2.715,2.581,2.824,6.871,0.242,9.583
				C1245.527,2071.512,1243.736,2072.219,1241.946,2072.219z"/>
			
				<linearGradient id="SVGID_00000126320645667308456950000004409324805436085671_" gradientUnits="userSpaceOnUse" x1="2253.0747" y1="1878.5352" x2="2341.209" y2="1092.1056">
				<stop  offset="0" style="stop-color:#FEBBBA"/>
				<stop  offset="1" style="stop-color:#FF928E"/>
			</linearGradient>
			<path style="fill:url(#SVGID_00000126320645667308456950000004409324805436085671_);" d="M2013.185,2272.665
				c-3.022,0-5.776-2.032-6.564-5.093c-0.93-3.627,1.255-7.323,4.879-8.254c164.041-42.161,308.961-132.763,419.089-262.012
				c2.427-2.854,6.71-3.193,9.557-0.765c2.85,2.428,3.191,6.708,0.765,9.559c-111.952,131.389-259.272,223.491-426.034,266.35
				C2014.311,2272.595,2013.741,2272.665,2013.185,2272.665z"/>
			<path style="fill:#91B3FA;" d="M2116.514,1061.076c-1.01,0-2.032-0.227-2.999-0.705c-3.357-1.66-4.73-5.727-3.072-9.084
				l193.883-391.795l6.326,3.87c63.734,38.996,122.456,83.909,184.803,141.345c2.751,2.537,2.93,6.826,0.391,9.58
				c-2.536,2.753-6.826,2.931-9.58,0.392c-59.613-54.917-115.835-98.238-176.375-135.858l-187.292,378.481
				C2121.414,1059.69,2119.013,1061.076,2116.514,1061.076z"/>
			<path style="fill:#91B3FA;" d="M2404.726,1453.977c-0.414,0-0.831-0.038-1.251-0.118l-437.266-81.698
				c-3.185-0.594-5.839-2.597-7.286-5.494c-1.447-2.896-1.45-6.222-0.013-9.123l39.456-79.693c1.659-3.355,5.72-4.73,9.084-3.069
				c3.353,1.662,4.727,5.729,3.065,9.083l-37.513,75.772l432.963,80.893c3.681,0.687,6.108,4.229,5.419,7.908
				C2410.773,1451.701,2407.927,1453.977,2404.726,1453.977z"/>
		</g>
		<g>
			
				<linearGradient id="SVGID_00000176739025957636946210000008837156995039760003_" gradientUnits="userSpaceOnUse" x1="3237.8074" y1="1300.1779" x2="2288.6653" y2="3300.1563">
				<stop  offset="0" style="stop-color:#4F52FF"/>
				<stop  offset="1" style="stop-color:#4042E2"/>
			</linearGradient>
			<path style="fill:url(#SVGID_00000176739025957636946210000008837156995039760003_);" d="M2244.767,2968.596l517.927-992.238
				H2656.58c-19.568,0-30.329-22.75-17.918-37.877l552.006-672.783c23.924-29.159,71.184-10.665,68.962,26.987l-38.803,657.9
				c-2.221,37.662-35.617,65.732-73.1,61.442l-73.983-8.467l-513.887,1112.895c-13.377,28.971-42.377,47.522-74.288,47.522h-178.106
				L2244.767,2968.596z"/>
			
				<linearGradient id="SVGID_00000004542681696547726330000018414141877195319739_" gradientUnits="userSpaceOnUse" x1="2447.6035" y1="3245.6267" x2="1898.4579" y2="2208.353">
				<stop  offset="0" style="stop-color:#4F52FF"/>
				<stop  offset="1" style="stop-color:#4042E2"/>
			</linearGradient>
			<path style="fill:url(#SVGID_00000004542681696547726330000018414141877195319739_);" d="M1816.554,2272.694l365.645,812.236
				c21.658,48.109,69.514,79.047,122.273,79.047h188.498c25.01,0,48.053-13.567,60.184-35.437l6.704-12.085l0,0
				c-20.252,0-38.796-11.354-48.002-29.394l-487.179-954.557L1816.554,2272.694z"/>
			
				<linearGradient id="SVGID_00000060749749834412850660000017582780106319774890_" gradientUnits="userSpaceOnUse" x1="2103.6113" y1="1913.0819" x2="1100.2316" y2="3153.7458">
				<stop  offset="0" style="stop-color:#4F52FF"/>
				<stop  offset="1" style="stop-color:#4042E2"/>
			</linearGradient>
			<path style="fill:url(#SVGID_00000060749749834412850660000017582780106319774890_);" d="M2073.885,2228.921L2073.885,2228.921
				c-36.666-28.954-90.238-20.442-116.124,18.45l-537.601,807.706c-43.057,64.691-115.618,103.559-193.327,103.559h-75.647
				l-61.564-177.346c0,0,499.784-766.327,628.6-882.25c0,0,128.283-115.618,254.768-28.202
				c33.416,23.094,58.787,56.055,74.284,93.604L2073.885,2228.921z"/>
			
				<linearGradient id="SVGID_00000021837506877233189330000014501477739210871699_" gradientUnits="userSpaceOnUse" x1="1208.1167" y1="3031.093" x2="276.4334" y2="2069.5964">
				<stop  offset="0" style="stop-color:#4F52FF"/>
				<stop  offset="1" style="stop-color:#4042E2"/>
			</linearGradient>
			<path style="fill:url(#SVGID_00000021837506877233189330000014501477739210871699_);" d="M504.907,2504.323
				c0,0,89.99-112.484,264.373-129.982c0,0,82.824,28.218,247.828,323.884c165.005,295.667,274.529,430.496,403.051,356.853
				l-10.64,17.667c-35.066,58.223-98.067,93.823-166.034,93.823h-71.082c-78.261,0-146.223-120.544-191.925-184.074
				C852.056,2803.969,583.796,2532.037,504.907,2504.323z"/>
			<path style="fill:#91B3FA;" d="M3197.35,1500.666c-0.192,0-0.384-0.01-0.579-0.033c-2.791-0.314-4.797-2.834-4.479-5.624
				l3.638-32.124c0.315-2.791,2.807-4.805,5.625-4.479c2.791,0.315,4.796,2.834,4.479,5.624l-3.638,32.123
				C3202.1,1498.749,3199.902,1500.666,3197.35,1500.666z"/>
			<path style="fill:#91B3FA;" d="M2736.547,1906.171c-1.083,0-2.175-0.344-3.098-1.054c-2.225-1.713-2.642-4.906-0.927-7.132
				l455.821-592.276c5.369-6.972,14.112-9.35,22.265-6.048c8.16,3.3,12.794,11.083,11.801,19.829l-8.044,70.993
				c-0.318,2.789-2.853,4.81-5.624,4.479c-2.791-0.316-4.797-2.834-4.479-5.624l8.044-70.993c0.56-4.956-2.479-8.031-5.512-9.257
				c-3.029-1.222-7.349-1.127-10.394,2.824l-455.821,592.278C2739.58,1905.489,2738.07,1906.171,2736.547,1906.171z"/>
			<path style="fill:#91B3FA;" d="M1702.47,2527.074c-0.98,0-1.97-0.281-2.84-0.869c-2.327-1.571-2.943-4.732-1.37-7.059
				l235.743-349.433c8.448-12.523,22.474-19.331,37.546-18.174c15.062,1.142,27.916,9.976,34.378,23.631
				c1.202,2.537,0.119,5.57-2.42,6.771c-2.536,1.207-5.568,0.117-6.77-2.421c-4.879-10.308-14.585-16.979-25.96-17.841
				c-11.321-0.864-21.968,4.265-28.346,13.721l-235.743,349.433C1705.708,2526.29,1704.102,2527.074,1702.47,2527.074z"/>
			<path style="fill:#91B3FA;" d="M1641.212,2617.879c-0.98,0-1.97-0.281-2.84-0.869c-2.327-1.571-2.943-4.73-1.37-7.059
				l15.115-22.406c1.569-2.331,4.737-2.94,7.058-1.372c2.327,1.571,2.943,4.73,1.37,7.059l-15.115,22.406
				C1644.45,2617.094,1642.844,2617.879,1641.212,2617.879z"/>
		</g>
		<g>
			<g>
				<g>
					
						<linearGradient id="SVGID_00000098942602199119007530000009642732736451447711_" gradientUnits="userSpaceOnUse" x1="3133.7349" y1="1713.2653" x2="3304.834" y2="1514.6683" gradientTransform="matrix(0.9991 -0.041 0.041 0.9991 -1082.7455 -304.8518)">
						<stop  offset="0" style="stop-color:#E1473D"/>
						<stop  offset="1" style="stop-color:#E9605A"/>
					</linearGradient>
					
						<circle style="fill:url(#SVGID_00000098942602199119007530000009642732736451447711_);" cx="2284.504" cy="1068.806" r="127.553"/>
					
						<linearGradient id="SVGID_00000012457731657249587230000006501080445724329113_" gradientUnits="userSpaceOnUse" x1="3401.5161" y1="1369.819" x2="2895.5715" y2="2134.1567" gradientTransform="matrix(0.9991 -0.041 0.041 0.9991 -1082.7455 -304.8518)">
						<stop  offset="0" style="stop-color:#FF928E"/>
						<stop  offset="1" style="stop-color:#FE7062"/>
					</linearGradient>
					
						<circle style="fill:url(#SVGID_00000012457731657249587230000006501080445724329113_);" cx="2284.504" cy="1068.806" r="123.312"/>
					<path style="opacity:0.78;fill:#FFFFFF;" d="M2180.97,1025.921c-0.624,0.026-1.263-0.089-1.871-0.366
						c-2.074-0.943-2.991-3.388-2.048-5.458c18.538-40.813,57.855-67.305,102.609-69.144c7.142-0.293,14.321,0.056,21.336,1.037
						c2.254,0.315,3.827,2.398,3.512,4.653c-0.314,2.258-2.387,3.846-4.656,3.512c-6.524-0.909-13.205-1.235-19.854-0.962
						c-41.625,1.711-78.196,26.353-95.44,64.312C2183.893,1024.97,2182.477,1025.859,2180.97,1025.921z"/>
					
						<ellipse transform="matrix(0.7071 -0.7071 0.7071 0.7071 -87.6458 1931.1643)" style="opacity:0.78;fill:#FFFFFF;" cx="2287.299" cy="1071.38" rx="104.369" ry="104.368"/>
					<g>
						
							<linearGradient id="SVGID_00000132066628396542902210000003694837088263737503_" gradientUnits="userSpaceOnUse" x1="2261.0359" y1="1239.9541" x2="2345.7805" y2="724.7064">
							<stop  offset="0" style="stop-color:#FF928E"/>
							<stop  offset="1" style="stop-color:#FE7062"/>
						</linearGradient>
						<path style="fill:url(#SVGID_00000132066628396542902210000003694837088263737503_);" d="M2280.251,1149.324l-0.466-11.345
							c-11.846,0.013-23.659-2.298-32.117-5.594c-3.02-1.176-4.669-4.444-3.946-7.603l2.448-10.687
							c0.898-3.92,5.031-6.099,8.802-4.698c8.384,3.117,18.673,5.432,29.646,4.981c11.392-0.468,19.728-4.679,19.403-12.596
							c-0.293-7.143-7.032-11.12-23.039-14.717c-22.843-5.25-39.467-14.431-40.284-34.318c-0.738-17.956,11.828-32.204,34.46-36.809
							l-0.466-11.346c-0.15-3.651,2.688-6.732,6.339-6.882l6.666-0.274c3.65-0.15,6.732,2.688,6.882,6.339l0.418,10.187
							c10.962-0.012,19.005,1.532,25.418,3.494c3.286,1.005,5.199,4.422,4.437,7.772l-2.249,9.882
							c-0.867,3.811-4.81,6.041-8.519,4.81c-5.911-1.962-14.235-3.916-24.932-3.476c-13.516,0.555-17.147,6.313-16.94,11.333
							c0.254,6.178,8.537,10.092,26.33,14.777c25.41,6.498,36.264,16.496,37.033,35.224c0.706,17.184-11.402,33.154-35.958,38.031
							l0.522,12.697c0.15,3.651-2.688,6.732-6.338,6.882l-6.667,0.274C2283.483,1155.812,2280.401,1152.974,2280.251,1149.324z"/>
					</g>
				</g>
				<g>
					
						<linearGradient id="SVGID_00000170986328806825289620000007236302497545184386_" gradientUnits="userSpaceOnUse" x1="3359.1082" y1="1558.1035" x2="3638.3413" y2="1233.994" gradientTransform="matrix(0.9991 -0.041 0.041 0.9991 -1082.7455 -304.8518)">
						<stop  offset="0" style="stop-color:#E1473D"/>
						<stop  offset="1" style="stop-color:#E9605A"/>
					</linearGradient>
					
						<circle style="fill:url(#SVGID_00000170986328806825289620000007236302497545184386_);" cx="2608.282" cy="772.087" r="208.166"/>
					
						<linearGradient id="SVGID_00000176005820039681801470000000778773469589808032_" gradientUnits="userSpaceOnUse" x1="3796.1265" y1="997.6001" x2="2970.4258" y2="2244.998" gradientTransform="matrix(0.9991 -0.041 0.041 0.9991 -1082.7455 -304.8518)">
						<stop  offset="0" style="stop-color:#FF928E"/>
						<stop  offset="1" style="stop-color:#FE7062"/>
					</linearGradient>
					
						<circle style="fill:url(#SVGID_00000176005820039681801470000000778773469589808032_);" cx="2608.282" cy="772.088" r="201.245"/>
					<path style="opacity:0.78;fill:#FFFFFF;" d="M2439.2,699.238c-0.585,0.024-1.184-0.084-1.754-0.344
						c-1.945-0.883-2.804-3.176-1.92-5.116c29.805-65.615,93.017-108.213,164.97-111.169c11.482-0.472,23.024,0.089,34.304,1.674
						c2.115,0.294,3.589,2.248,3.293,4.365c-0.297,2.113-2.247,3.61-4.365,3.289c-10.821-1.516-21.896-2.055-32.914-1.602
						c-69.02,2.836-129.657,43.7-158.249,106.639C2441.941,698.347,2440.613,699.18,2439.2,699.238z"/>
					
						<ellipse transform="matrix(0.7071 -0.7071 0.7071 0.7071 216.3652 2074.9287)" style="opacity:0.78;fill:#FFFFFF;" cx="2612.843" cy="776.288" rx="170.329" ry="170.329"/>
					<g>
						
							<linearGradient id="SVGID_00000031918114463479381690000015897135271183052170_" gradientUnits="userSpaceOnUse" x1="1840.8129" y1="3461.0935" x2="1979.7856" y2="2959.437" gradientTransform="matrix(0.9751 0.222 -0.222 0.9751 93.6994 -227.6713)">
							<stop  offset="0" style="stop-color:#FF928E"/>
							<stop  offset="1" style="stop-color:#FE7062"/>
						</linearGradient>
						<path style="fill:url(#SVGID_00000031918114463479381690000015897135271183052170_);" d="M2601.341,903.493l-0.761-18.515
							c-19.333,0.02-38.612-3.75-52.415-9.129c-4.929-1.92-7.62-7.253-6.439-12.41l3.995-17.439
							c1.465-6.398,8.212-9.953,14.364-7.666c13.682,5.086,30.474,8.864,48.382,8.128c18.591-0.764,32.197-7.637,31.666-20.556
							c-0.479-11.658-11.477-18.149-37.601-24.019c-37.28-8.568-64.41-23.551-65.743-56.006
							c-1.204-29.306,19.304-52.558,56.239-60.071l-0.761-18.517c-0.245-5.958,4.387-10.987,10.345-11.232l10.879-0.447
							c5.959-0.245,10.987,4.387,11.232,10.345l0.683,16.625c17.889-0.019,31.016,2.501,41.482,5.702
							c5.363,1.64,8.485,7.216,7.241,12.683l-3.671,16.128c-1.415,6.219-7.85,9.858-13.904,7.849
							c-9.647-3.202-23.231-6.39-40.689-5.673c-22.057,0.906-27.982,10.303-27.646,18.496c0.415,10.083,13.933,16.471,42.969,24.116
							c41.469,10.605,59.182,26.921,60.438,57.486c1.153,28.044-18.608,54.106-58.681,62.067l0.852,20.721
							c0.245,5.959-4.387,10.987-10.345,11.232l-10.88,0.447C2606.615,914.083,2601.586,909.451,2601.341,903.493z"/>
					</g>
				</g>
				<g>
					
						<linearGradient id="SVGID_00000098184325064967194380000012922478181243578811_" gradientUnits="userSpaceOnUse" x1="3494.45" y1="2032.6591" x2="3781.7776" y2="1699.1541" gradientTransform="matrix(0.9991 -0.041 0.041 0.9991 -1082.7455 -304.8518)">
						<stop  offset="0" style="stop-color:#E1473D"/>
						<stop  offset="1" style="stop-color:#E9605A"/>
					</linearGradient>
					
						<circle style="fill:url(#SVGID_00000098184325064967194380000012922478181243578811_);" cx="2770.816" cy="1230.752" r="214.201"/>
					
						<linearGradient id="SVGID_00000106849014114087062520000002605998632731099794_" gradientUnits="userSpaceOnUse" x1="3944.1362" y1="1455.9075" x2="3094.501" y2="2739.4644" gradientTransform="matrix(0.9991 -0.041 0.041 0.9991 -1082.7455 -304.8518)">
						<stop  offset="0" style="stop-color:#FF928E"/>
						<stop  offset="1" style="stop-color:#FE7062"/>
					</linearGradient>
					
						<circle style="fill:url(#SVGID_00000106849014114087062520000002605998632731099794_);" cx="2770.816" cy="1230.752" r="207.078"/>
					<path style="opacity:0.78;fill:#FFFFFF;" d="M2596.829,1155.679c-0.585,0.024-1.184-0.084-1.754-0.344
						c-1.945-0.884-2.804-3.176-1.92-5.117c30.65-67.478,95.657-111.283,169.654-114.324c11.807-0.485,23.677,0.093,35.279,1.721
						c2.115,0.295,3.59,2.248,3.293,4.365c-0.297,2.113-2.235,3.599-4.365,3.289c-11.144-1.56-22.547-2.115-33.89-1.649
						c-71.064,2.92-133.495,44.991-162.933,109.793C2599.57,1154.788,2598.241,1155.621,2596.829,1155.679z"/>
					
						<ellipse transform="matrix(0.7071 -0.7071 0.7071 0.7071 -60.4019 2324.3267)" style="opacity:0.78;fill:#FFFFFF;" cx="2775.51" cy="1235.075" rx="175.266" ry="175.267"/>
					<g>
						
							<linearGradient id="SVGID_00000111876374476086420760000018169925540427639446_" gradientUnits="userSpaceOnUse" x1="1680.9387" y1="3575.6931" x2="1928.3801" y2="3038.4407" gradientTransform="matrix(0.9751 0.222 -0.222 0.9751 93.6994 -227.6713)">
							<stop  offset="0" style="stop-color:#FF928E"/>
							<stop  offset="1" style="stop-color:#FE7062"/>
						</linearGradient>
						<path style="fill:url(#SVGID_00000111876374476086420760000018169925540427639446_);" d="M2763.675,1365.966l-0.783-19.052
							c-19.894,0.021-39.731-3.859-53.935-9.394c-5.072-1.976-7.842-7.463-6.626-12.769l4.111-17.945
							c1.508-6.583,8.45-10.242,14.78-7.888c14.08,5.233,31.357,9.122,49.785,8.364c19.13-0.786,33.129-7.858,32.583-21.152
							c-0.493-11.996-11.809-18.675-38.69-24.715c-38.362-8.816-66.278-24.234-67.65-57.63
							c-1.239-30.155,19.864-54.081,57.869-61.813l-0.783-19.054c-0.252-6.131,4.514-11.305,10.645-11.557l11.194-0.46
							c6.131-0.252,11.305,4.513,11.557,10.645l0.703,17.107c18.409-0.02,31.916,2.573,42.686,5.868
							c5.518,1.687,8.731,7.425,7.451,13.051l-3.776,16.595c-1.456,6.4-8.078,10.144-14.307,8.077
							c-9.927-3.295-23.904-6.576-41.868-5.837c-22.697,0.932-28.794,10.601-28.448,19.031
							c0.426,10.375,14.337,16.948,44.215,24.816c42.67,10.913,60.898,27.701,62.19,59.152
							c1.186,28.856-19.146,55.675-60.382,63.866l0.876,21.321c0.252,6.131-4.514,11.305-10.645,11.557l-11.195,0.46
							C2769.101,1376.863,2763.927,1372.097,2763.675,1365.966z"/>
					</g>
				</g>
				<g>
					
						<linearGradient id="SVGID_00000137113716779014408330000005673265100091885186_" gradientUnits="userSpaceOnUse" x1="3820.6331" y1="1607.7811" x2="4050.4275" y2="1341.0558" gradientTransform="matrix(0.9991 -0.041 0.041 0.9991 -1082.7455 -304.8518)">
						<stop  offset="0" style="stop-color:#E1473D"/>
						<stop  offset="1" style="stop-color:#E9605A"/>
					</linearGradient>
					
						<circle style="fill:url(#SVGID_00000137113716779014408330000005673265100091885186_);" cx="3023.436" cy="863.356" r="171.31"/>
					
						<linearGradient id="SVGID_00000148618836634679273710000016708801347707507850_" gradientUnits="userSpaceOnUse" x1="4180.2759" y1="1146.5161" x2="3500.7683" y2="2173.0586" gradientTransform="matrix(0.9991 -0.041 0.041 0.9991 -1082.7455 -304.8518)">
						<stop  offset="0" style="stop-color:#FF928E"/>
						<stop  offset="1" style="stop-color:#FE7062"/>
					</linearGradient>
					
						<circle style="fill:url(#SVGID_00000148618836634679273710000016708801347707507850_);" cx="3023.436" cy="863.357" r="165.614"/>
					<path style="opacity:0.78;fill:#FFFFFF;" d="M2884.332,804.442c-0.638,0.026-1.292-0.091-1.915-0.375
						c-2.122-0.965-3.061-3.467-2.096-5.585c24.691-54.356,77.059-89.644,136.664-92.093c9.499-0.391,19.06,0.074,28.419,1.385
						c2.306,0.322,3.916,2.454,3.594,4.761c-0.324,2.307-2.436,3.948-4.764,3.594c-8.857-1.236-17.907-1.677-26.902-1.307
						c-56.403,2.318-105.96,35.713-129.327,87.148C2887.324,803.469,2885.875,804.378,2884.332,804.442z"/>
					
						<ellipse transform="matrix(0.7071 -0.7071 0.7071 0.7071 273.7135 2394.4307)" style="opacity:0.78;fill:#FFFFFF;" cx="3027.19" cy="866.814" rx="140.172" ry="140.172"/>
					<g>
						
							<linearGradient id="SVGID_00000138566456933024196010000013224741469795403140_" gradientUnits="userSpaceOnUse" x1="2101.9768" y1="3391.9609" x2="2276.5403" y2="2875.05" gradientTransform="matrix(0.9751 0.222 -0.222 0.9751 93.6994 -227.6713)">
							<stop  offset="0" style="stop-color:#FF928E"/>
							<stop  offset="1" style="stop-color:#FE7062"/>
						</linearGradient>
						<path style="fill:url(#SVGID_00000138566456933024196010000013224741469795403140_);" d="M3017.725,971.496l-0.626-15.237
							c-15.91,0.016-31.776-3.086-43.135-7.513c-4.056-1.58-6.271-5.969-5.299-10.212l3.287-14.352
							c1.207-5.265,6.758-8.19,11.821-6.309c11.26,4.186,25.079,7.295,39.817,6.69c15.299-0.629,26.495-6.285,26.058-16.917
							c-0.394-9.594-9.444-14.936-30.943-19.766c-30.68-7.051-53.006-19.381-54.103-46.09
							c-0.991-24.117,15.886-43.252,46.282-49.435l-0.626-15.239c-0.202-4.904,3.61-9.042,8.513-9.243l8.952-0.368
							c4.904-0.201,9.042,3.61,9.243,8.514l0.563,13.681c14.722-0.016,25.524,2.058,34.138,4.693
							c4.413,1.349,6.983,5.938,5.959,10.438l-3.021,13.273c-1.165,5.117-6.46,8.113-11.442,6.459
							c-7.939-2.635-19.118-5.259-33.485-4.668c-18.152,0.746-23.028,8.478-22.751,15.221c0.341,8.298,11.466,13.555,35.362,19.846
							c34.126,8.728,48.704,22.155,49.737,47.308c0.948,23.079-15.313,44.527-48.292,51.078l0.701,17.052
							c0.202,4.903-3.609,9.042-8.513,9.243l-8.953,0.368C3022.065,980.211,3017.927,976.399,3017.725,971.496z"/>
					</g>
				</g>
			</g>
		</g>
		<g>
			
				<linearGradient id="SVGID_00000074434775679437699140000017612597316130439094_" gradientUnits="userSpaceOnUse" x1="897.4828" y1="3174.5862" x2="1135.146" y2="3174.5862">
				<stop  offset="0" style="stop-color:#53D8FF"/>
				<stop  offset="1" style="stop-color:#3840F7"/>
			</linearGradient>
			<path style="fill:url(#SVGID_00000074434775679437699140000017612597316130439094_);" d="M1128.435,3163.091
				c-40.714,3.519-111.377,9.236-167.084,11.688c-33.487,1.474-52.765-1.805-63.868-6.25c0.019,1.252,0.054,2.435,0.103,3.533
				c0.263,5.862,5.027,10.552,10.947,10.882c105.261,5.875,188.975,2.033,218.777,0.22c6.163-0.376,9.835-7.073,6.684-12.326
				C1132.418,3168.21,1130.508,3165.636,1128.435,3163.091z"/>
			
				<linearGradient id="SVGID_00000042007476245503583030000009777126239043473837_" gradientUnits="userSpaceOnUse" x1="897.4692" y1="3128.0073" x2="1128.4348" y2="3128.0073">
				<stop  offset="0" style="stop-color:#09005D"/>
				<stop  offset="1" style="stop-color:#1A0F91"/>
			</linearGradient>
			<path style="fill:url(#SVGID_00000042007476245503583030000009777126239043473837_);" d="M961.351,3174.779
				c55.707-2.452,126.369-8.168,167.084-11.688c-40.029-49.112-167.084-82.213-167.084-82.213h-35.884
				c-24.681,35.577-28.255,69.448-27.984,87.65C908.586,3172.974,927.865,3176.253,961.351,3174.779z"/>
			
				<linearGradient id="SVGID_00000049223112464738337330000005528511520568911526_" gradientUnits="userSpaceOnUse" x1="919.4247" y1="3062.9768" x2="986.3694" y2="3062.9768">
				<stop  offset="0" style="stop-color:#FEBBBA"/>
				<stop  offset="1" style="stop-color:#FF928E"/>
			</linearGradient>
			<path style="fill:url(#SVGID_00000049223112464738337330000005528511520568911526_);" d="M919.425,3022.296l3.358,66.451
				c0.364,7.196,5.75,13.243,12.957,14.273c7.17,1.025,16.773,1.156,26.956-2.233c6.264-2.085,10.916-7.364,12.071-13.803
				l11.603-64.688H919.425z"/>
			<g>
				
					<linearGradient id="SVGID_00000124156291514107417760000010878847630610641080_" gradientUnits="userSpaceOnUse" x1="473.2856" y1="3233.5193" x2="564.3621" y2="3233.5193">
					<stop  offset="0" style="stop-color:#53D8FF"/>
					<stop  offset="1" style="stop-color:#3840F7"/>
				</linearGradient>
				<path style="fill:url(#SVGID_00000124156291514107417760000010878847630610641080_);" d="M502.943,3239.748
					c-17.656-3.183-25.645-15.037-28.994-27.71c-0.022,0.114-0.044,0.228-0.066,0.341c-2.597,13.368,3.424,27.223,15.464,33.812
					c14.552,7.964,30.462,9.321,42.814,8.663c13.252-0.706,25.416-7.793,32.102-19.136l0.1-0.171
					C551.06,3244.054,532.388,3245.055,502.943,3239.748z"/>
				
					<linearGradient id="SVGID_00000149372515613257805670000007161514799688353698_" gradientUnits="userSpaceOnUse" x1="473.9482" y1="3142.8872" x2="607.6306" y2="3142.8872">
					<stop  offset="0" style="stop-color:#09005D"/>
					<stop  offset="1" style="stop-color:#1A0F91"/>
				</linearGradient>
				<path style="fill:url(#SVGID_00000149372515613257805670000007161514799688353698_);" d="M586.189,3042.77h-29.593
					c-45.076-1.19-73.382,121.684-82.648,169.268c3.35,12.673,11.338,24.527,28.994,27.71c29.445,5.307,48.118,4.306,61.42-4.2
					c24.352-41.417,36.426-102.076,42.229-137.477C613.192,3057.809,586.189,3042.77,586.189,3042.77z"/>
			</g>
			
				<linearGradient id="SVGID_00000037663531882828015270000002884783799293373322_" gradientUnits="userSpaceOnUse" x1="543.4341" y1="3028.0676" x2="623.4401" y2="3028.0676">
				<stop  offset="0" style="stop-color:#FEBBBA"/>
				<stop  offset="1" style="stop-color:#FF928E"/>
			</linearGradient>
			<path style="fill:url(#SVGID_00000037663531882828015270000002884783799293373322_);" d="M560.4,2981.091l-16.433,65.357
				c-2.015,8.013,1.821,16.302,9.23,20.104c9.193,4.718,22.135,9.675,34.03,8.24c5.594-0.675,10.241-4.615,12.089-9.882
				l24.125-68.763L560.4,2981.091z"/>
			
				<linearGradient id="SVGID_00000109030476546917712180000002480945193335373704_" gradientUnits="userSpaceOnUse" x1="-993.3043" y1="4350.6421" x2="2016.8298" y2="1584.5723">
				<stop  offset="0" style="stop-color:#09005D"/>
				<stop  offset="1" style="stop-color:#1A0F91"/>
			</linearGradient>
			<path style="fill:url(#SVGID_00000109030476546917712180000002480945193335373704_);" d="M1138.459,2120.294
				c0,0-146.849,917.934-144.431,922.979c0,0-40.559,18.434-84.774,2.349c0,0,13.279-490.701,44.396-678.847
				c0,0-250.622,438.59-330.21,657.131c0,0-41.51-4.95-75.871-27.563c0,0,269.85-789.443,341.843-894.593L1138.459,2120.294z"/>
			
				<linearGradient id="SVGID_00000123405116474937408400000013509826572758007221_" gradientUnits="userSpaceOnUse" x1="975.9631" y1="2370.9153" x2="1038.3336" y2="2248.6204">
				<stop  offset="0" style="stop-color:#4F52FF"/>
				<stop  offset="1" style="stop-color:#4042E2"/>
			</linearGradient>
			<path style="fill:url(#SVGID_00000123405116474937408400000013509826572758007221_);" d="M959.513,2361.994
				c-0.787,0-1.583-0.21-2.296-0.659c-2.032-1.274-2.646-3.948-1.377-5.977l54.878-87.654c0.635-1.01,1.653-1.719,2.819-1.954
				l40.385-8.128c2.362-0.466,4.637,1.055,5.111,3.396c0.47,2.349-1.051,4.637-3.396,5.111l-38.555,7.757l-53.888,86.072
				C962.37,2361.273,960.956,2361.994,959.513,2361.994z"/>
			
				<linearGradient id="SVGID_00000058572590177392891630000005961462963914267055_" gradientUnits="userSpaceOnUse" x1="1643.8784" y1="1342.8291" x2="1327.0104" y2="1755.0656">
				<stop  offset="0" style="stop-color:#FEBBBA"/>
				<stop  offset="1" style="stop-color:#FF928E"/>
			</linearGradient>
			<path style="fill:url(#SVGID_00000058572590177392891630000005961462963914267055_);" d="M1812.343,1221.437
				c0,0-99.091,21.855-159.362,49.682c-11.97,5.526-21.518,15.19-26.956,27.101c-18.025,39.485-71.955,138.5-176.543,185.752
				c15.061,19.991,39.313,61.574,49.878,131.468c62.817-46.754,117.047-124.834,143.083-252.888c0,0,19.826,10.778,44.558-1.234
				c13.067-6.346,28.154-15.348,39.48-22.427c11.284-7.054,19.689-18.019,22.954-30.825c4.311-16.91,1.772-31.78,1.772-47.732
				l50.935-15.781C1802.142,1244.553,1817.453,1238.773,1812.343,1221.437z"/>
			
				<linearGradient id="SVGID_00000091693637860218285460000008885357577050276012_" gradientUnits="userSpaceOnUse" x1="370.5373" y1="2495.4312" x2="1082.3921" y2="1661.5438">
				<stop  offset="0" style="stop-color:#FF928E"/>
				<stop  offset="1" style="stop-color:#FE7062"/>
			</linearGradient>
			<path style="fill:url(#SVGID_00000091693637860218285460000008885357577050276012_);" d="M1499.36,1615.44
				c-10.565-69.893-34.817-111.476-49.878-131.468c-64.972,29.354-149.487,38.738-257.11,1.445
				c-9.92-3.437-20.268-5.45-30.761-6.066c-57.293-3.359-246.092-9.489-402.317,42.125c-32.879,10.862-59.509,35.168-73.233,66.663
				c-42.261,96.983-110.681,317.848,79.26,429.352c14.593-36.23,31.436-65.353,45.839-86.749
				c-30.589-51.594-39.648-122.064,14.633-213.829c39.58,106.874,58.148,262.816,62.028,331.828
				c1.278,22.722-2.708,45.4-11.624,66.378l-0.973,2.288c-1.908,4.489,0.718,9.648,5.517,10.725
				c106.93,24.02,218.144,17.494,251.371,14.749c5.932-0.49,10.86-4.734,12.221-10.467
				c51.996-219.093,52.115-368.544,39.385-463.019C1232.357,1680.27,1381.092,1703.464,1499.36,1615.44z"/>
			
				<linearGradient id="SVGID_00000155109628147324772430000018099699368417499012_" gradientUnits="userSpaceOnUse" x1="1775.6252" y1="675.8715" x2="718.0124" y2="2282.6311">
				<stop  offset="0" style="stop-color:#E1473D"/>
				<stop  offset="1" style="stop-color:#E9605A"/>
			</linearGradient>
			<path style="fill:url(#SVGID_00000155109628147324772430000018099699368417499012_);" d="M1183.928,1675.287
				c-2.143,0-4.006-1.587-4.295-3.767c-12.213-92.246-37.08-132.503-37.327-132.899c-1.278-2.024-0.676-4.703,1.348-5.985
				c2.016-1.27,4.695-0.68,5.977,1.34c1.063,1.669,26.103,41.98,38.601,136.407c0.313,2.374-1.356,4.555-3.73,4.868
				C1184.308,1675.274,1184.118,1675.287,1183.928,1675.287z"/>
			
				<linearGradient id="SVGID_00000176722862985737982980000015468490839116038836_" gradientUnits="userSpaceOnUse" x1="955.6321" y1="1670.5789" x2="969.191" y2="1345.1599">
				<stop  offset="0" style="stop-color:#FEBBBA"/>
				<stop  offset="1" style="stop-color:#FF928E"/>
			</linearGradient>
			<path style="fill:url(#SVGID_00000176722862985737982980000015468490839116038836_);" d="M920.045,1351.722
				c0,0-10.817,114.375-20.342,148.207c-1.445,5.133,0.785,10.545,5.448,13.209c16.165,9.237,54.935,24.302,107.968-1.689
				c8.591-4.211,13.757-13.166,13.356-22.644l-4.673-110.523L920.045,1351.722z"/>
			<g>
				
					<linearGradient id="SVGID_00000114771879758856593310000003923581937254951593_" gradientUnits="userSpaceOnUse" x1="1031.3877" y1="1275.3591" x2="833.5978" y2="1426.6985">
					<stop  offset="0" style="stop-color:#FEBBBA"/>
					<stop  offset="1" style="stop-color:#FF928E"/>
				</linearGradient>
				<path style="fill:url(#SVGID_00000114771879758856593310000003923581937254951593_);" d="M1024.135,1205.4
					c0,0,34.599,79.479,36.922,121.195c2.323,41.716,11.313,68.784-36.922,77.185c-48.235,8.4-88.868-15.628-110.882-57.182
					c0,0-34.491-64.03-26.754-90.252C894.237,1230.124,1024.135,1205.4,1024.135,1205.4z"/>
				
					<linearGradient id="SVGID_00000116954871317199319480000009380462640073523120_" gradientUnits="userSpaceOnUse" x1="892.1524" y1="1155.5315" x2="1076.3625" y2="1392.7015">
					<stop  offset="0" style="stop-color:#09005D"/>
					<stop  offset="1" style="stop-color:#1A0F91"/>
				</linearGradient>
				<path style="fill:url(#SVGID_00000116954871317199319480000009380462640073523120_);" d="M929.736,1316.721l2.746-1.211
					c3.496-1.541,4.991-5.702,3.235-9.094c-6.802-13.142-20.062-43.257-2.932-50.283c22.076-9.054,109.521-26.886,128.388-57.914
					c18.133-29.821,2.066-68.315-22.079-79.264c-1.616-0.733-3.521-0.151-4.35,1.418l-2.012,3.807
					c-1.377,2.606-5.227,2.211-6.046-0.62c-0.787-2.719-4.403-3.246-5.902-0.846c-5.8,9.283-21.456,24.332-63.327,32.06
					c-59.506,10.983-98.847,35.063-99.827,76.182c-0.062,2.613-2.841,4.065-5.073,2.705c-4.394-2.678-11.425-3.934-20.822,3.967
					c-16.342,13.741-9.655,49.387,26.17,78.708c1.702,1.393,1.688,4.05-0.155,5.25c-6.495,4.228-16.177,14.287,8.91,27.698
					c25.948,13.871,45.325,12.733,52.786,11.501c1.856-0.306,3.052-2.103,2.648-3.941l-7.964-36.14
					c-0.451-2.045,1.106-3.983,3.201-3.983H929.736z"/>
				
					<linearGradient id="SVGID_00000126311270525441958640000001935379523375301264_" gradientUnits="userSpaceOnUse" x1="1006.8542" y1="1243.2954" x2="809.0642" y2="1394.6349">
					<stop  offset="0" style="stop-color:#FEBBBA"/>
					<stop  offset="1" style="stop-color:#FF928E"/>
				</linearGradient>
				<path style="fill:url(#SVGID_00000126311270525441958640000001935379523375301264_);" d="M931.234,1324.348
					c0,0-13.199-50.77-35.962-36.535c-22.763,14.235,11.812,56.885,30.112,58.786L931.234,1324.348z"/>
			</g>
			<path style="fill:#F8A570;" d="M1668.87,1350.741c-0.96,0-1.929-0.317-2.733-0.973c-1.859-1.509-2.139-4.241-0.627-6.1
				c3.747-4.612,37.001-45.27,49.812-52.504c4.662-2.634,7.44-5.354,8.029-7.864c0.284-1.199,0.095-2.547-0.581-4.08l-39.07,7.831
				l-22.138,18.993c-1.81,1.562-4.555,1.356-6.113-0.466c-1.562-1.818-1.352-4.555,0.466-6.117l22.995-19.735
				c0.565-0.482,1.241-0.812,1.97-0.96l43.254-8.668c1.735-0.35,3.475,0.379,4.451,1.83c3.17,4.703,4.221,9.076,3.207,13.363
				c-1.195,5.066-5.185,9.46-12.205,13.425c-9.637,5.445-37.446,38.246-47.351,50.426
				C1671.384,1350.197,1670.131,1350.741,1668.87,1350.741z"/>
			
				<linearGradient id="SVGID_00000023959804588721744400000009976675668692552094_" gradientUnits="userSpaceOnUse" x1="774.1617" y1="2225.1912" x2="1289.4083" y2="1560.7933">
				<stop  offset="0" style="stop-color:#FEBBBA"/>
				<stop  offset="1" style="stop-color:#FF928E"/>
			</linearGradient>
			<path style="fill:url(#SVGID_00000023959804588721744400000009976675668692552094_);" d="M929.555,2072.46l152.933,1.892
				l-53.524-50.382c-13.304-12.523-33.61-14.551-48.967-4.591c-8.992,5.832-18.743,13.749-27.191,24.232
				c0,0-95.399-34.864-141.646-112.868c-14.403,21.396-31.246,50.519-45.839,86.749
				C806.779,2041.83,860.52,2060.968,929.555,2072.46z"/>
			<g>
				
					<linearGradient id="SVGID_00000026158121965803353110000002802016830702921149_" gradientUnits="userSpaceOnUse" x1="-3358.3909" y1="1880.6168" x2="-3671.1416" y2="1966.3336" gradientTransform="matrix(-0.9988 -0.0494 -0.0494 0.9988 -2381.2668 -55.0328)">
					<stop  offset="0" style="stop-color:#09005D"/>
					<stop  offset="1" style="stop-color:#1A0F91"/>
				</linearGradient>
				<path style="fill:url(#SVGID_00000026158121965803353110000002802016830702921149_);" d="M946.032,2092.184
					c0.297,0.014,0.594,0.022,0.893,0.02l388.204-0.419c9.597-0.008,17.367-7.714,17.358-17.209
					c-0.01-9.499-7.825-17.345-17.396-17.175l-388.204,0.419c-9.596,0.008-17.367,7.714-17.358,17.209
					C929.54,2084.229,936.851,2091.735,946.032,2092.184z"/>
				
					<linearGradient id="SVGID_00000049903846120591111260000001075976092897230506_" gradientUnits="userSpaceOnUse" x1="-3727.0466" y1="1789.6603" x2="-3947.6528" y2="2022.8274" gradientTransform="matrix(-1 0 0 1 -2422.7358 0)">
					<stop  offset="0" style="stop-color:#09005D"/>
					<stop  offset="1" style="stop-color:#1A0F91"/>
				</linearGradient>
				<path style="fill:url(#SVGID_00000049903846120591111260000001075976092897230506_);" d="M1684.106,1743.442h-323.299
					c-23.85,0-45.558,13.618-55.731,34.962l-149.46,313.575h401.774c15.369,0,29.178-9.292,34.827-23.434l115.9-290.167
					C1714.814,1761.611,1702.327,1743.442,1684.106,1743.442z"/>
				
					<ellipse transform="matrix(0.313 -0.9497 0.9497 0.313 -798.7443 2719.6045)" style="fill:#91B3FA;" cx="1480.585" cy="1911.943" rx="41.007" ry="25.445"/>
			</g>
		</g>
	</g>
</g>
</svg>
