<svg width="1587" height="1058" viewBox="0 0 1587 1058" fill="none" xmlns="http://www.w3.org/2000/svg">
<mask id="mask0_1599_733" style="mask-type:luminance" maskUnits="userSpaceOnUse" x="0" y="0" width="1587" height="1058">
<path d="M1586.07 0.373047H0.917969V1057.38H1586.07V0.373047Z" fill="white"/>
</mask>
<g mask="url(#mask0_1599_733)">
<path d="M-88.8223 344.619C-62.3396 383.538 -9.01507 401.781 35.7497 387.237C80.5144 372.714 112.957 326.628 111.541 279.571C110.865 256.993 103.256 235.155 101.481 212.641C95.119 132.71 172.263 60.0941 252.408 61.5528C332.554 63.0115 403.611 128.969 421.83 207.039C440.069 285.109 410.607 369.775 356.056 428.524C324.057 463.003 284.386 489.449 250.887 522.449C217.387 555.47 189.214 598.405 190.101 645.442C191.306 709.476 247.421 761.776 308.692 780.379C359.311 795.769 417.349 792.429 461.226 762.875C505.103 733.322 530.55 675.017 513.959 624.767C501.003 585.51 464.904 551.58 470.758 510.653C476.084 473.404 515.058 450.044 552.087 443.427C589.116 436.811 627.688 441.313 664.274 432.583C700.859 423.852 737.592 395.08 736.43 357.472C734.845 306.038 670.91 283.862 639.418 243.167C599.599 191.712 620.312 110.408 671.502 70.2837C722.713 30.1386 794.151 24.9381 857.747 38.5946C962.494 61.0877 1059.34 137.467 1085.97 241.265C1112.6 345.063 1052.42 469.451 948.608 495.897C892.705 510.124 833.209 496.637 776.312 506.087C719.416 515.536 659.73 565.892 675.771 621.3C685.155 653.729 716.478 673.833 738.501 699.392C776.967 744.04 783.308 820.334 738.163 858.196C691.602 897.242 622.468 878.237 562.401 869.062C494.324 858.661 421.914 864.623 361.446 897.622C300.999 930.622 254.733 993.535 252.704 1062.39C249.64 1166.21 347.539 1251.82 450.109 1268C552.679 1284.15 656.01 1247.19 749.639 1202.34C800.998 1177.73 852.019 1149.89 891.711 1109.02C931.404 1068.16 958.774 1012.14 953.723 955.398C945.67 864.749 859.353 791.647 863.834 700.745C866.962 637.494 921.238 580.775 984.284 574.898C1047.31 569.021 1096.51 631.469 1111.24 693.05C1120.08 729.918 1127.62 753.003 1139.78 788.92C1159.96 848.577 1234.04 880.372 1294.13 861.536C1354.22 842.7 1395.71 781.605 1400.23 718.798C1404.75 655.991 1376.24 593.628 1332.38 548.451C1295.52 510.463 1244.14 474.736 1244.78 421.822C1245.79 336.332 1382.73 294.305 1371.59 209.555C1366.5 170.805 1330.21 143.809 1294.02 129.053C1257.84 114.297 1218.02 106.56 1186.38 83.6231C1116.7 33.0982 1114.82 -78.7963 1167.11 -147.184C1219.39 -215.573 1309.62 -245.148 1395.64 -248.002C1482.11 -250.877 1571.76 -228.954 1638.51 -173.884C1705.25 -118.814 1744.82 -27.5738 1725.59 56.7963C1710.88 121.337 1665.54 174.208 1618.39 220.674C1571.24 267.14 1519.85 311.217 1487.24 368.803C1454.61 426.41 1444.59 502.641 1482.38 556.971C1543.36 644.597 1697.96 641.151 1735.1 741.249C1755.01 794.903 1728.14 856.589 1686.32 895.635C1644.49 934.681 1590.07 956.688 1538.33 981.126C1486.59 1005.56 1434.19 1035.14 1403.15 1083.21C1372.1 1131.28 1370.05 1202.57 1412.95 1240.45C1409.38 1232.27 1405.81 1224.09 1402.26 1215.93" stroke="#EEEEEE" stroke-width="2" stroke-miterlimit="10"/>
<path d="M-58.3672 335.867C-37.6968 365.843 11.1259 362.968 37.8833 338.298C64.6407 313.627 73.7923 275.321 77.174 239.066C80.5345 202.811 79.6257 165.52 91.694 131.167C110.42 77.8939 159.94 38.4465 214.808 25.1494C269.675 11.8311 328.664 22.6971 379.072 48.1498C407.731 62.6308 434.531 82.1854 452.665 108.695C473.991 139.877 481.874 178.5 483.142 216.256C486.82 325.466 435.841 435.183 350.011 502.768C327.121 520.8 301.928 536 280.792 556.083C259.657 576.166 242.432 602.57 241.48 631.701C240.55 659.986 255.557 687.342 277.199 705.565C298.842 723.808 326.466 733.744 354.365 738.501C373.386 741.735 393.211 742.665 411.705 737.127C430.177 731.588 447.17 718.756 454.166 700.766C465.198 672.375 449.579 641.531 439.223 612.886C425.168 574.01 420.772 530.567 433.58 491.267C446.388 451.968 478.176 417.784 518.396 408.314C545.788 401.866 574.574 406.876 602.494 403.473C630.414 400.069 660.785 383.559 664.611 355.675C668.415 327.96 645.166 305.087 628.469 282.657C595.646 238.601 584.191 179.345 598.203 126.22C612.237 73.0951 651.655 27.6862 701.725 5.12971C785.759 -32.7533 992.885 -27.1089 1083.07 118.039C1173.25 263.208 1159.16 433.724 1050.67 497.144C942.182 560.565 760.375 511.097 720.958 573.249C681.54 635.401 775.91 670.768 793.515 741.101C811.121 811.434 801.272 886.122 727.996 928.402C654.719 970.682 489.863 886.122 402.511 938.275C315.158 990.427 323.612 1136.99 506.772 1156.72C689.952 1176.44 854.808 1098.94 884.398 989.011C913.987 879.082 796.855 747.633 842.127 640.897C887.399 534.161 1035.16 526.74 1099.98 595.805C1164.8 664.87 1152.12 807.206 1253.57 822.702C1355.02 838.197 1394.48 673.284 1278.93 572.53C1163.38 471.776 1178.9 402.733 1245.12 337.896C1311.33 273.059 1343.75 192.727 1278.93 167.359C1214.11 141.991 1114.08 101.127 1107.04 -46.8538C1100 -194.834 1235.27 -285.039 1464.92 -275.167C1694.6 -265.294 1798.86 -93.362 1780.54 47.579C1762.21 188.52 1537.67 304.896 1510 430.912C1482.34 556.95 1670.63 576.081 1753.76 687.405C1836.88 798.75 1760.8 918.53 1648.08 980.555C1535.37 1042.56 1369.1 1093.29 1453.64 1249.73" stroke="#EEEEEE" stroke-width="2" stroke-miterlimit="10"/>
<path d="M-62.5723 436.874C-21.8444 459.853 30.0007 461.84 72.3771 442.032C114.732 422.224 146.478 381.17 154.995 335.19C160.406 305.974 156.876 275.977 156.369 246.275C155.862 216.573 158.821 185.328 175.306 160.636C200.859 122.309 256.107 109.985 298.42 128.186C340.733 146.388 368.885 190.253 374.803 235.937C380.721 281.621 366.539 328.319 342.318 367.492C318.097 406.665 284.365 439.072 248.752 468.288C217.281 494.1 183.507 518.39 160.406 551.897C131.662 593.606 122.278 648.127 135.424 697.045C148.57 745.963 184.035 788.433 229.836 810.081C279.758 833.694 331.074 836.231 385.794 828.727C440.513 821.201 493.732 794.776 527.337 750.952C560.943 707.129 572.271 645.23 550.037 594.663C539.723 571.219 522.349 547.711 527.971 522.724C532.241 503.698 549.466 489.851 567.875 483.445C586.284 477.04 606.151 476.617 625.575 475.011C668.712 471.417 713.16 460.635 745.983 432.392C778.806 404.149 796.37 354.892 777.77 315.783C755.092 268.091 691.221 252.807 664.886 207.039C637.939 160.213 664.527 102.839 711.363 83.1789C769.147 58.9101 836.971 58.9946 894.395 84.3416C959.154 112.923 1009.14 172.982 1025.5 241.856C1038.5 296.63 1030.21 356.88 999.692 404.17C969.172 451.482 915.996 484.354 859.776 486.933C812.728 489.09 764.434 471.226 719.331 484.798C692.405 492.895 669.113 512.344 656.305 537.374C643.518 562.404 641.405 592.697 650.599 619.249C659.772 645.759 679.047 667.322 697.033 688.843C715.019 710.363 732.71 733.829 737.613 761.438C742.517 789.068 730.385 821.687 703.987 831.136C657.383 847.795 615.578 849.655 566.121 848.006C516.664 846.336 466.7 841.241 418.004 850.057C350.413 862.297 288.275 902.336 249.153 958.823C210.032 1015.31 194.413 1087.57 206.714 1155.17" stroke="#EEEEEE" stroke-width="2" stroke-miterlimit="10"/>
<path d="M911.176 1124.56C977.055 1079.89 1009.71 991.421 988.658 914.64C978.851 878.871 959.005 846.865 941.759 814.034C924.512 781.204 909.337 745.688 910.267 708.609C911.176 671.529 932.1 632.737 967.396 621.342C1002.29 610.075 1041.29 628.551 1064.87 656.646C1088.46 684.741 1099.96 720.743 1110.93 755.751C1121.9 790.759 1133.39 826.761 1156.98 854.856C1195.34 900.561 1263.23 917.05 1319.85 898.277C1376.47 879.505 1420.01 828.473 1434.28 770.528C1448.54 712.583 1434.87 649.353 1401.94 599.589C1381.8 569.126 1355.06 543.589 1333.48 514.12C1311.9 484.672 1295.12 448.945 1299.6 412.69C1304.89 369.839 1337.79 336.543 1366.9 304.643C1396 272.742 1424.64 233.316 1418.43 190.592C1412.27 148.206 1373.41 118.124 1333.99 101.402C1294.57 84.6589 1251.29 76.224 1215.23 53.139C1179.15 30.054 1151.38 -14.9744 1166.45 -55.0771" stroke="#EEEEEE" stroke-width="2" stroke-miterlimit="10"/>
<path d="M1664.25 86.0332C1628 156.345 1564.22 207.483 1509.98 265.069C1455.75 322.654 1407.73 396.285 1416.33 474.926C1422.74 533.442 1460.1 584.601 1504.91 622.759C1524.84 639.734 1546.93 653.074 1567.94 668.506C1587.23 682.691 1608.43 688.822 1631.22 696.834C1682.81 714.993 1742.09 754.335 1707.22 817.015C1691.43 845.406 1662.22 863.439 1633.35 878.258C1586.09 902.527 1536.32 921.616 1488.95 945.695C1441.59 969.774 1395.94 999.475 1362.5 1040.76C1329.06 1082.05 1308.96 1136.38 1317.57 1188.81" stroke="#EEEEEE" stroke-width="2" stroke-miterlimit="10"/>
<path d="M-45.0723 483.001C3.79274 496.15 58.0261 487.863 100.72 460.719C143.434 433.576 173.954 387.997 182.809 338.17C188.791 304.473 185.303 269.444 193.229 236.169C201.155 202.874 225.883 169.367 260.059 167.908C283.498 166.914 305.691 181.924 317.843 202.007C329.996 222.09 333.378 246.401 332.511 269.867C330.842 314.24 314.504 357.957 286.626 392.521C252.62 434.717 203.543 462.03 165.901 500.991C110.632 558.239 82.7757 640.875 92.1598 719.897C98.1834 770.591 120.693 822.342 166.852 848.408C186.698 859.612 205.678 860.331 227.447 863.776C236.472 865.214 248.308 867.222 253.127 876.165C264.054 896.48 239.959 921.172 229.624 936.223C214.005 958.97 202.93 986.621 194.159 1012.62C175.856 1066.87 169.515 1125.17 176.363 1182.04" stroke="#EEEEEE" stroke-width="2" stroke-miterlimit="10"/>
<path d="M239.768 229.976C234.273 244.457 234.907 260.418 234.104 275.913C231.843 319.61 217.259 362.588 192.467 398.653C187.226 406.263 181.498 416.601 187.184 423.873C193.44 431.885 206.269 427.107 214.49 421.125C246.722 397.575 271.049 363.412 282.779 325.233C291.994 295.235 294.213 261.052 286.626 230.42C278.932 199.344 251.308 199.619 239.768 229.997V229.976Z" stroke="#EEEEEE" stroke-width="2" stroke-miterlimit="10"/>
<path d="M-58.0293 515.134C-28.0382 530.926 8.96986 528.178 40.5039 515.768C72.0378 503.359 99.2602 482.261 126.06 461.502C134.366 455.054 145.378 448.332 154.614 453.363C162.265 457.549 164.104 468.309 161.06 476.49C158.017 484.671 151.401 490.908 145.166 496.996C107.249 534.076 75.335 578.216 57.539 628.17C39.743 678.145 36.8052 734.272 54.8336 784.163C72.8833 834.054 113.125 876.651 163.787 892.316C176.721 896.311 191.685 899.673 198.385 911.448C207.537 927.577 195.046 946.836 184.795 962.268C138.551 1031.82 131.217 1125.53 166.069 1201.43" stroke="#EEEEEE" stroke-width="2" stroke-miterlimit="10"/>
<path d="M-78.9746 572.149C-70.9643 585.34 -52.9147 589.357 -37.9508 585.7C-10.9821 579.083 6.66596 555.343 30.6123 543.018C37.8618 539.297 46.9711 537.374 53.9247 541.602C60.2441 545.449 63.0129 553.482 62.5902 560.86C62.1675 568.238 59.1451 575.193 56.165 581.958C10.1744 686.115 -21.5287 840.882 100.549 908.044C111.244 913.921 123.08 918.635 131.069 927.852C143.179 941.826 143.327 962.881 137.79 980.512C132.252 998.164 121.917 1013.87 114.647 1030.89C96.8718 1072.49 98.7317 1122.02 119.55 1162.19" stroke="#EEEEEE" stroke-width="2" stroke-miterlimit="10"/>
<path d="M-29.1152 623.667C-22.3308 614.197 -14.0246 605.825 -4.64046 598.934C-1.78719 596.841 1.42539 594.832 4.93386 594.98C10.1332 595.213 14.0221 600.329 14.7195 605.487C15.417 610.645 13.705 615.782 12.0142 620.687C0.939279 652.989 -10.1357 685.291 -21.2106 717.593" stroke="#EEEEEE" stroke-width="2" stroke-miterlimit="10"/>
<path d="M-28.4609 780.4C-26.2629 834.456 1.65698 886.883 45.2593 918.868C63.3723 932.144 85.649 944.3 91.1442 966.074C95.4135 982.986 87.9105 1000.34 81.4008 1016.51C61.8294 1065.03 49.8456 1120.02 67.3035 1169.34" stroke="#EEEEEE" stroke-width="2" stroke-miterlimit="10"/>
<path d="M-40.6133 901.639C-39.3874 922.419 -19.8583 936.816 -1.63964 946.9C16.5791 956.962 37.1649 967.786 43.6746 987.573C49.3812 1004.95 42.2585 1023.55 36.9958 1041.06C23.279 1086.72 22.2645 1136.12 34.1003 1182.29" stroke="#EEEEEE" stroke-width="2" stroke-miterlimit="10"/>
<path d="M-34.9277 976.602C-18.569 982.648 -0.582742 990.11 6.60329 1006.01C12.0985 1018.14 9.79473 1032.22 7.38529 1045.33C0.431754 1083.3 -6.54292 1121.26 -13.4965 1159.23" stroke="#EEEEEE" stroke-width="2" stroke-miterlimit="10"/>
<path d="M-78.2773 303.543C-43.1503 324.091 7.87048 309.188 26.4273 272.954C40.736 244.985 36.2553 211.647 37.6925 180.254C41.2855 101.825 87.889 25.9316 157.847 -9.66834C199.801 -31.0198 247.757 -37.8904 294.847 -38.4823C337.604 -39.0108 382.516 -33.8949 417.643 -9.5415C445.415 9.71712 464.458 39.2921 478.344 70.1144C514.782 150.933 519.431 245.577 491.152 329.588C488.045 338.805 484.516 348.381 485.826 358.021C487.158 367.661 495.379 377.174 505.038 376.033C514.507 374.933 520.15 364.976 528.456 360.262C551.451 347.219 584.549 377.639 604.713 360.558C613.272 353.307 614.477 340.158 610.99 329.503C607.502 318.849 600.274 309.928 593.891 300.711C551.029 238.876 544.16 155.098 571.572 85.0181C599.006 14.9387 658.544 -40.6808 728.502 -68.3955" stroke="#EEEEEE" stroke-width="2" stroke-miterlimit="10"/>
<path d="M129.886 -22.6699C82.2043 -7.59703 42.6389 31.1105 26.4915 78.4432C18.3966 102.183 15.9872 127.404 10.7456 151.926C5.50402 176.449 -3.22489 201.309 -21.1266 218.835C-39.0494 236.36 -68.1105 244.435 -89.9434 232.089" stroke="#EEEEEE" stroke-width="2" stroke-miterlimit="10"/>
<path d="M-10.707 133.598C-9.75594 64.0052 25.054 -4.34069 80.788 -46.0078" stroke="#EEEEEE" stroke-width="2" stroke-miterlimit="10"/>
<path d="M440.111 -57.9311C465.41 -50.067 484.644 -28.4829 495.634 -4.36209C506.624 19.7588 510.45 46.4164 513.641 72.7358C514.825 82.4814 518.946 95.0386 528.774 94.7004C537.968 94.3833 541.667 82.9254 543.337 73.8563C556.335 2.6987 595.013 -63.4909 650.62 -109.767" stroke="#EEEEEE" stroke-width="2" stroke-miterlimit="10"/>
<path d="M540.293 258.684C538.243 255.513 533.149 254.097 530.677 256.972C529.472 258.367 529.218 260.333 529.028 262.172C527.929 272.616 528.119 284.264 525.646 294.453C523.279 304.199 517.277 309.759 514.402 319.272C512.711 324.916 513.62 331.787 518.143 335.571C524.97 341.257 545.64 329.736 556.229 332.442C560.921 333.647 565.508 335.634 570.348 335.634C575.188 335.634 580.556 332.801 581.275 328.003C582.226 321.745 575.399 317.496 570.052 314.092C560.012 307.729 552.023 298.322 547.141 287.498C543.337 279.021 544.985 265.978 540.251 258.684H540.293Z" stroke="#EEEEEE" stroke-width="2" stroke-miterlimit="10"/>
<path d="M294.212 614.26C289.415 628.509 288.802 644.533 294.656 658.401C303.385 679.076 324.816 691.675 346.353 697.933C356.393 700.85 367.003 702.732 377.317 701.04C387.631 699.349 397.691 693.641 402.637 684.403C410.859 669.013 402.954 650.494 397.649 633.899C389.702 608.954 401.918 553.25 368.419 546.253C336.166 539.53 302.836 588.638 294.212 614.281V614.26Z" stroke="#EEEEEE" stroke-width="2" stroke-miterlimit="10"/>
<path d="M328.538 625.718C326.53 642.334 335.364 661.17 351.448 665.757C357.155 667.385 364.278 666.645 367.596 661.719C370.111 657.999 369.688 653.094 369.16 648.634C366.941 629.608 364.721 610.603 362.481 591.577C362.185 589.061 361.847 586.397 360.325 584.368C349.8 570.289 329.446 618.234 328.538 625.718Z" stroke="#EEEEEE" stroke-width="2" stroke-miterlimit="10"/>
<path d="M576.349 589.252C588.883 622.547 596.449 658.591 591.229 693.789C586.008 728.988 566.522 763.235 535.241 780.189C525.751 785.326 513.577 791.71 514.571 802.449C515.585 813.189 528.901 817.269 539.595 818.748C573.137 823.399 608.285 827.881 640.115 816.296C671.945 804.69 698.597 771.331 690.544 738.437C684.499 713.746 662.032 697.299 645.885 677.681C613.273 638.085 606.15 579.21 628.406 532.977C631.809 525.895 635.972 518.453 634.81 510.674C630.435 481.205 589.306 497.926 576.371 510.103C553.84 531.328 567.198 564.962 576.328 589.252H576.349Z" stroke="#EEEEEE" stroke-width="2" stroke-miterlimit="10"/>
<path d="M616.971 714.654C615.132 718.46 614.836 722.793 614.244 726.979C611.877 743.215 603.909 758.605 591.989 769.893C587.17 774.46 581.168 779.702 582.14 786.277C582.795 790.759 586.832 794.205 591.207 795.41C595.582 796.615 600.253 795.959 604.67 794.987C617.88 792.048 630.667 785.96 639.945 776.109C649.223 766.257 654.698 752.432 652.838 739.008C651.274 727.719 626.989 694.022 616.971 714.676V714.654Z" stroke="#EEEEEE" stroke-width="2" stroke-miterlimit="10"/>
<path d="M945.225 185.053C922.906 148.967 887.399 121.591 847.368 107.828C807.465 94.1296 739.789 90.3455 716.688 134.655C678.708 207.462 800.68 247.29 823.211 302.127C839.485 341.744 819.427 387.639 790.81 419.497C782.842 428.354 773.5 439.284 777.114 450.636C781.257 463.637 798.651 465.836 812.178 464.123C872.9 456.386 928.486 416.157 954.842 360.896C981.198 305.636 977.457 237.1 945.246 185.053H945.225Z" stroke="#EEEEEE" stroke-width="2" stroke-miterlimit="10"/>
<path d="M759.636 178.985C767.435 220.103 849.968 264.18 862.544 296.757C876.197 332.103 859.078 372.142 835.744 401.992C832.13 406.622 828.135 411.865 828.896 417.699C829.826 424.739 837.794 429.094 844.854 428.46C851.913 427.825 858.084 423.555 863.601 419.095C921.512 372.333 944.169 286.567 916.925 217.291C905.66 188.689 886.427 162.792 860.494 146.282C837.921 131.906 801.695 125.205 778.446 141.885C762.024 153.681 757.226 166.174 759.636 178.985Z" stroke="#EEEEEE" stroke-width="2" stroke-miterlimit="10"/>
<path d="M801.336 189.408C803.111 197.061 807.571 203.847 812.516 209.978C821.224 220.759 831.602 230.061 841.937 239.299C854.66 250.672 867.405 262.046 880.128 273.44C882.644 275.681 886.004 278.091 889.09 276.717C892.197 275.322 892.619 271.157 892.45 267.754C890.992 236.72 878.332 206.638 857.957 183.299C849.799 173.955 836.885 158.29 823.147 158.586C807.613 158.946 798.06 175.371 801.336 189.43V189.408Z" stroke="#EEEEEE" stroke-width="2" stroke-miterlimit="10"/>
<path d="M732.285 591.81C731.144 601.175 734.885 610.413 739.366 618.721C749.912 638.276 765.024 655.357 783.158 668.189C787.85 671.508 793.43 674.679 799.031 673.453C805.942 671.952 809.831 664.32 810.486 657.281C811.163 650.241 809.62 643.117 810.359 636.098C812.071 619.672 825.387 607.306 834.052 593.247C837.878 587.074 840.921 579.675 838.998 572.699C836.039 562.002 823.231 557.584 812.156 556.823C791.253 555.407 735.413 565.892 732.264 591.81H732.285Z" stroke="#EEEEEE" stroke-width="2" stroke-miterlimit="10"/>
<path d="M763.081 601.597C761.496 613.626 767.688 625.486 775.889 634.407C779.82 638.698 786.583 642.609 790.937 638.762C792.353 637.514 793.093 635.717 793.791 633.984C796.876 626.331 799.983 618.678 803.069 611.047C805.901 604.049 808.754 596.333 806.408 589.167C799.455 567.984 765.279 584.918 763.06 601.597H763.081Z" stroke="#EEEEEE" stroke-width="2" stroke-miterlimit="10"/>
<path d="M409.422 1102.79C401.687 1083.76 393.888 1064.37 392.746 1044.08C391.605 1023.79 398.199 1002.08 415.002 989.011C431.424 976.221 454.483 973.705 475.935 974.53C541.455 977.024 605.664 1005.1 670.402 995.458C723.684 987.531 771.26 952.375 791.423 906.057C798.778 889.145 806.366 867.793 825.832 864.855C838.006 863.016 850.201 870.203 856.647 879.949C863.072 889.673 864.763 901.448 865.164 912.864C867.933 989.56 814.566 1065.31 737.634 1093.93" stroke="#EEEEEE" stroke-width="2.08" stroke-miterlimit="10"/>
<path d="M456.026 1082.41C436.983 1071.33 438.611 1040.64 454.568 1025.46C470.525 1010.28 494.556 1007.45 516.537 1008.8C582.606 1012.9 648.675 1047.15 712.272 1028.73C746.363 1018.86 775.635 993.514 790.303 961.191C795.249 950.304 801.526 936.563 813.468 936.753C822.831 936.901 829.636 946.9 829.594 956.265C829.552 965.63 824.585 974.213 819.386 981.993C790.578 1025.27 749.998 1060.61 703.204 1083.21" stroke="#EEEEEE" stroke-width="2.08" stroke-miterlimit="10"/>
<path d="M479.634 1079.51C474.287 1071.99 477.204 1060.84 483.904 1054.48C490.583 1048.12 499.967 1045.54 509.055 1043.95C561.978 1034.74 618.98 1053.66 655.904 1092.68" stroke="#EEEEEE" stroke-width="2.08" stroke-miterlimit="10"/>
<path d="M978.155 1106.68C1036.59 1049.73 1055.83 956.18 1024.61 880.774C1006.98 838.219 974.71 800.04 972.237 754.06C971.18 734.209 977.542 712.012 994.809 702.182C1011.76 692.521 1034.21 698.187 1049.11 710.807C1064.01 723.428 1072.86 741.63 1080.6 759.556C1098.06 800.082 1109.98 853.418 1141.26 885.657C1171.16 916.5 1213.98 935.442 1256.72 938.106C1340.06 943.327 1411.66 886.27 1449.71 815.662C1476.97 765.074 1468.47 720.574 1454.04 668.083C1452.83 663.686 1451.63 659.035 1452.9 654.659C1455.24 646.605 1465.37 643.032 1473.53 644.998C1481.68 646.964 1488.24 652.862 1494.39 658.549C1521.69 683.727 1546.4 716.177 1582.18 729.072C1597.74 734.675 1614.44 736.556 1630.05 742.01C1645.67 747.464 1661 757.654 1666.28 773.34C1686.74 834.118 1553.52 865.722 1516.13 880.478C1455.14 904.577 1390.38 941.784 1348.32 992.837C1306.03 1044.17 1276.63 1106.28 1264.96 1171.83" stroke="#EEEEEE" stroke-width="2.08" stroke-miterlimit="10"/>
<path d="M1014.72 1107.08C1045.26 1069.64 1063.58 1022.39 1066.27 974.129C1068.95 925.887 1055.98 876.884 1029.77 836.295C1021.55 823.548 1011.76 810.885 1009.88 795.833C1008 780.781 1018.33 762.918 1033.49 763.616C1042.53 764.038 1049.99 770.676 1055.81 777.61C1090.26 818.728 1093.36 878.787 1125.17 921.976C1157.64 966.053 1219.99 985.354 1271.66 967.343C1280.07 964.404 1288.36 960.557 1297.24 959.774C1306.11 958.992 1316.09 962.121 1320.36 969.964C1326.93 981.993 1317.1 996.072 1308.25 1006.54C1257.61 1066.36 1220.3 1137.41 1199.82 1213.08" stroke="#EEEEEE" stroke-width="2.08" stroke-miterlimit="10"/>
<path d="M1042.34 1128.24C1084.89 1102.68 1107.59 1048.01 1095.69 999.835C1092.83 988.25 1090 972.458 1100.84 967.49C1107.33 964.531 1115.17 968.146 1119.82 973.558C1124.47 978.97 1126.93 985.861 1130.39 992.098C1145.17 1018.48 1181.18 1030.51 1208.85 1018.27C1215.72 1015.22 1222.06 1010.93 1229.22 1008.65C1236.39 1006.37 1245.01 1006.52 1250.53 1011.61C1256.32 1016.96 1256.87 1026.22 1254.08 1033.6C1251.29 1040.97 1245.81 1046.93 1240.66 1052.9C1203.71 1095.49 1176.7 1146.67 1162.37 1201.22" stroke="#EEEEEE" stroke-width="2.08" stroke-miterlimit="10"/>
<path d="M1109.04 1100.72C1110.8 1086 1112.57 1071.27 1114.33 1056.55C1115.13 1049.89 1116.93 1041.92 1123.29 1039.77C1127.96 1038.18 1133.05 1040.68 1136.88 1043.81C1140.71 1046.94 1144.05 1050.85 1148.57 1052.83C1160.38 1058.01 1174.78 1048.2 1186.65 1053.23C1194.77 1056.68 1198.79 1066.26 1198.7 1075.07C1198.51 1093.06 1185.22 1107.92 1172.45 1120.59C1159.69 1133.25 1145.8 1147.16 1143.85 1165.04" stroke="#EEEEEE" stroke-width="2.08" stroke-miterlimit="10"/>
<path d="M1497.68 729.452C1495.74 736.323 1497.92 743.595 1499.31 750.614C1506.37 785.769 1492.55 824.329 1464.77 846.991C1459.09 851.642 1452.11 857.498 1453.76 864.664C1454.97 869.886 1460.67 873.015 1466.04 873.078C1471.39 873.12 1476.44 870.816 1481.3 868.554C1518.9 851.008 1556.52 833.483 1594.12 815.936C1603.13 811.751 1613.59 805.176 1612.85 795.283C1612.28 787.672 1605.18 782.493 1598.75 778.392C1578.67 765.56 1558.62 752.749 1538.54 739.917C1529.22 733.955 1503.88 707.424 1497.68 729.473V729.452Z" stroke="#EEEEEE" stroke-width="2.08" stroke-miterlimit="10"/>
<path d="M1515.92 820.101C1513.01 824.795 1509.58 831.242 1513.49 835.153C1516.6 838.261 1521.84 836.802 1525.86 835.026C1533.49 831.686 1540.97 828.029 1548.26 824.012C1557.94 818.706 1568.11 811.73 1570.64 800.991C1574.64 784.121 1549.72 755.92 1531.16 761.311C1519.81 764.609 1522.85 772.726 1523.51 782.451C1524.46 796.594 1523.81 807.417 1515.92 820.101Z" stroke="#EEEEEE" stroke-width="2.08" stroke-miterlimit="10"/>
<path d="M1237.06 -38.292C1225.35 -14.3191 1235.54 15.8055 1254.46 34.6413C1273.37 53.456 1299.2 63.3496 1324.44 72.017C1349.67 80.6633 1375.77 88.8868 1396.74 105.397C1422.61 125.776 1438.31 157.782 1441.06 190.613C1443.81 223.444 1434.13 256.739 1416.33 284.454C1401.33 307.835 1380.93 327.199 1363.64 348.931C1346.33 370.663 1331.66 396.306 1331.35 424.084C1330.95 459.304 1353.22 490.231 1374.48 518.305C1378.69 523.844 1384.1 529.954 1391.01 529.404C1397.4 528.897 1401.98 522.512 1402.74 516.149C1403.5 509.807 1401.39 503.507 1399.42 497.419C1386.72 458.31 1378.65 415.713 1390.44 376.35C1407.22 320.392 1459.17 283.989 1499.12 241.328C1567.37 168.437 1604.42 67.2394 1599.39 -32.4996" stroke="#EEEEEE" stroke-width="2.08" stroke-miterlimit="10"/>
<path d="M1299.31 -26.8556C1297.28 -5.90576 1310.06 14.2196 1326.85 26.9036C1343.63 39.6088 1364.02 46.3314 1383.89 53.2653C1403.76 60.2204 1423.98 67.8943 1439.6 81.9947C1457.48 98.1246 1467.73 121.527 1471.16 145.373C1473.84 163.976 1472.3 181.839 1468.83 200.041C1467.84 205.199 1462.32 209.068 1465.77 214.543C1477.35 232.872 1505.82 193.382 1510.66 185.053C1555.34 107.976 1564.28 11.0909 1534.42 -72.8564" stroke="#EEEEEE" stroke-width="2.08" stroke-miterlimit="10"/>
<path d="M1359.33 -27.0875C1364.89 -9.94291 1379.85 2.48745 1395.56 11.2817C1411.28 20.0971 1428.44 26.2912 1443.39 36.3539C1461.5 48.5729 1475.79 66.3728 1483.8 86.7096C1487.33 95.6941 1493.29 107.385 1502.67 105.123C1508.97 103.601 1511.78 96.3495 1513.2 90.0497C1523.62 43.6684 1511.06 -7.32154 1480.31 -43.5557" stroke="#EEEEEE" stroke-width="2.08" stroke-miterlimit="10"/>
<path d="M1409.38 -17.5328C1434.93 -5.50404 1457.02 13.7969 1472.34 37.5161C1474.29 40.5391 1476.21 43.7101 1479.04 45.9087C1481.87 48.1284 1485.95 49.1854 1489.12 47.4942C1494.79 44.4711 1493.67 36.0997 1491.41 30.0747C1482.23 5.55222 1467.86 -17.0254 1449.54 -35.7344" stroke="#EEEEEE" stroke-width="2.08" stroke-miterlimit="10"/>
<path d="M950.594 -35.7344C950.594 -35.7344 1043.44 -4.55274 1109.05 115.227C1174.63 235.028 1158.95 355.146 1166.09 376.117C1173.23 397.088 1194.37 350.58 1211.28 318.172C1228.19 285.764 1280.33 261.495 1270.46 219.363C1260.59 177.231 1097.15 140.595 1078.82 -17.2579" stroke="#EEEEEE" stroke-width="2.08" stroke-miterlimit="10"/>
<path d="M1165.03 181.439C1163.41 185.667 1164.21 190.402 1165.05 194.863C1171.65 229.828 1178.24 264.773 1184.84 299.739C1190.54 300.288 1195.19 294.897 1196.84 289.401C1198.49 283.926 1198.24 277.985 1199.93 272.51C1204.34 258.114 1221.08 249.51 1223.73 234.669C1225.69 223.613 1219.03 212.895 1211.62 204.481C1205.42 197.442 1172.41 162.37 1165.03 181.439Z" stroke="#EEEEEE" stroke-width="2.08" stroke-miterlimit="10"/>
<path d="M1130.03 463.679C1132.15 453.68 1133.12 441.207 1142.46 437.064C1149.41 433.978 1157.89 437.783 1162.52 443.808C1167.15 449.833 1168.86 457.57 1170.36 465.011C1178.18 503.465 1185.39 544.308 1211.11 573.925C1229.05 594.579 1254.2 607.495 1274.32 626.035C1300.45 650.114 1317.42 683.875 1321.18 719.221C1324.06 746.09 1316.91 777.377 1293.18 790.294C1273.06 801.244 1247.14 795.008 1228.73 781.352C1204.6 763.446 1190.54 734.991 1181.22 706.41C1171.9 677.829 1166.36 647.958 1154.63 620.285C1142.9 592.592 1123.59 566.357 1095.69 555.153C1087.55 551.876 1078.78 549.931 1071.3 545.344C1045.93 529.806 1063.9 511.794 1083.7 508.475C1107.33 504.501 1124.88 487.99 1129.99 463.722L1130.03 463.679Z" stroke="#EEEEEE" stroke-width="2.08" stroke-miterlimit="10"/>
<path d="M1262.32 756.765C1243 750.318 1223.05 727.465 1215.38 715.162C1183.82 664.637 1184.84 596.925 1134.01 558.577C1122.91 550.205 1108.83 538.663 1113.82 525.683C1118.2 514.288 1135.23 513.316 1145.06 520.567C1154.89 527.818 1159.66 539.847 1165.24 550.713C1190.97 600.688 1240.61 633.265 1276.52 676.475C1291.02 693.916 1312.87 740.614 1282.19 756.152C1276.04 759.26 1269.21 759.048 1262.3 756.744L1262.32 756.765Z" stroke="#EEEEEE" stroke-width="2.08" stroke-miterlimit="10"/>
<path d="M1615.43 320.751C1583.47 347.81 1550.99 379.372 1543.46 420.553C1538.62 447.084 1545.36 475.539 1561.6 497.081C1577.83 518.622 1603.34 532.913 1630.18 535.534" stroke="#EEEEEE" stroke-width="2.08" stroke-miterlimit="10"/>
<path d="M1594.72 383.241C1578.36 400.026 1571.89 425.796 1578.38 448.332C1584.87 470.846 1604.06 489.238 1626.84 494.734" stroke="#EEEEEE" stroke-width="2.08" stroke-miterlimit="10"/>
<path d="M1530.72 1077C1564.47 1047.1 1607.08 1029.54 1648.8 1012.48" stroke="#EEEEEE" stroke-width="2.08" stroke-miterlimit="10"/>
</g>
</svg>
